<?xml version="1.0" standalone="no"?>
<!DOCTYPE svg PUBLIC "-//W3C//DTD SVG 20010904//EN"
 "http://www.w3.org/TR/2001/REC-SVG-20010904/DTD/svg10.dtd">
<svg version="1.0" xmlns="http://www.w3.org/2000/svg"
 width="1080.000000pt" height="1080.000000pt" viewBox="0 0 1080.000000 1080.000000"
 preserveAspectRatio="xMidYMid meet">
<metadata>
Created by potrace 1.16, written by Peter Selinger 2001-2019
</metadata>
<g transform="translate(0.000000,1080.000000) scale(0.100000,-0.100000)"
fill="#000000" stroke="none">
<path d="M0 10585 l0 -214 103 -3 c96 -3 102 -4 99 -23 -2 -11 -5 -76 -8 -145
-5 -104 -9 -130 -26 -154 -17 -23 -18 -33 -9 -53 6 -13 11 -38 11 -55 0 -18 5
-57 12 -88 11 -54 10 -58 -24 -135 -20 -44 -39 -95 -43 -112 -7 -33 -27 -54
-84 -85 l-31 -17 0 -554 c0 -462 2 -556 14 -560 7 -3 18 -1 24 5 18 18 44 -9
32 -32 -6 -10 -10 -29 -10 -42 0 -13 -4 -18 -8 -13 -4 6 -17 10 -29 11 l-23 1
0 -1279 0 -1278 70 0 c61 0 80 5 140 35 38 19 74 35 80 35 5 0 10 -16 10 -35
l0 -35 340 0 c321 0 340 1 332 18 -37 70 -114 406 -132 572 -17 164 -18 189
-19 448 l-1 254 -29 -7 c-53 -11 -67 5 -67 77 1 63 1 63 31 64 17 1 36 -4 44
-10 12 -9 13 -7 7 14 -5 14 -9 36 -10 50 -1 14 -6 36 -10 48 -6 18 -2 29 14
47 12 13 19 28 16 34 -6 9 5 66 21 108 5 12 2 15 -10 10 -9 -3 -17 -3 -17 2 0
4 -10 13 -22 19 -13 6 -17 11 -10 11 17 1 15 26 -3 41 -17 14 -21 45 -5 35 6
-3 10 3 10 14 0 22 14 28 25 11 3 -5 12 -7 20 -3 16 5 16 78 0 103 -10 17 13
57 37 63 16 5 19 13 17 49 -3 73 7 94 46 95 37 1 49 -14 39 -53 -4 -14 -2 -24
5 -24 17 0 13 -47 -5 -65 -10 -9 -25 -14 -35 -12 -13 4 -18 -3 -22 -27 -2 -17
-1 -32 4 -34 5 -2 9 -17 9 -32 0 -31 -28 -54 -53 -44 -11 4 -16 -5 -19 -33 -3
-21 -1 -43 4 -50 5 -7 7 -17 3 -23 -3 -5 -4 -10 -2 -10 3 0 20 24 38 53 19 28
49 68 67 88 29 34 31 39 20 63 -10 22 -9 29 5 44 19 18 77 26 77 9 0 -6 31 22
70 61 38 40 76 72 84 72 17 0 38 24 35 42 -4 20 12 78 21 78 15 0 22 -19 15
-40 -4 -11 -11 -18 -16 -15 -5 3 -6 -1 -3 -9 9 -23 20 -20 61 18 21 18 53 41
71 50 28 14 31 20 26 44 -8 33 -13 39 -39 44 -11 2 -21 12 -23 22 -3 11 0 16
7 12 6 -4 11 -1 11 6 -1 41 -49 48 -57 8 -5 -27 -26 -45 -42 -36 -4 3 -6 18
-5 35 2 33 -17 56 -41 48 -18 -7 -27 6 -19 27 8 21 20 20 44 -4 l20 -20 9 22
c5 13 6 29 4 36 -3 6 0 12 6 12 6 0 11 7 11 15 0 8 3 16 8 16 34 6 59 5 68 -2
10 -8 47 24 38 33 -2 3 9 17 26 31 16 15 32 22 35 17 4 -6 10 -8 14 -5 12 7
44 -32 37 -43 -8 -13 21 -35 38 -29 7 3 19 0 25 -6 8 -8 11 -8 11 2 0 11 3 11
15 1 8 -7 15 -20 15 -30 0 -9 7 -31 16 -49 9 -18 17 -43 18 -56 0 -13 5 -21
10 -18 4 3 5 18 2 34 -3 16 -1 29 4 29 6 0 10 -11 10 -23 0 -13 2 -26 5 -29 4
-4 125 110 125 118 0 2 -6 1 -12 -1 -18 -7 -42 11 -34 24 8 12 83 51 98 51 5
0 7 -4 3 -9 -3 -5 -1 -12 5 -16 5 -3 10 -1 10 5 0 7 8 9 21 5 15 -5 22 -2 26
14 3 12 9 21 13 21 4 0 24 35 44 78 21 42 56 105 78 140 l41 63 17 -28 c20
-32 76 -86 133 -127 33 -24 37 -25 25 -7 -7 12 -19 21 -27 21 -11 0 -11 3 0
17 11 13 11 15 1 9 -11 -6 -13 -1 -10 23 2 20 -3 35 -11 40 -8 5 -15 21 -17
35 -1 15 1 24 6 21 5 -3 14 1 22 8 21 21 57 27 72 11 8 -8 22 -14 30 -14 9 0
16 -5 16 -12 0 -6 3 -8 7 -5 4 4 19 -5 35 -20 20 -19 25 -30 17 -39 -7 -8 -7
-14 1 -19 5 -3 10 -15 10 -25 0 -10 12 -28 26 -39 15 -12 22 -21 16 -21 -18 0
-7 -28 19 -48 28 -22 57 -35 81 -36 28 -2 30 -12 13 -75 -9 -34 -13 -66 -10
-71 9 -14 -8 -12 -25 3 -8 6 5 -9 28 -35 23 -26 42 -52 42 -58 0 -5 15 -30 34
-54 48 -63 60 -106 53 -190 -6 -64 -4 -73 19 -103 29 -39 46 -36 34 6 -6 21
-4 33 9 46 9 10 11 15 5 11 -13 -7 -28 21 -15 28 4 3 6 19 3 35 -3 22 0 33 12
37 22 9 30 -1 21 -23 -5 -10 -9 -28 -10 -39 -1 -19 2 -21 23 -13 42 16 61 29
72 49 8 16 8 18 -4 14 -8 -3 -17 -1 -20 5 -3 5 8 12 24 16 39 9 73 61 95 146
14 56 45 163 88 304 7 22 17 39 22 38 6 -1 14 -38 19 -82 l9 -79 41 -18 c54
-24 74 -39 182 -142 114 -110 308 -236 414 -270 120 -38 139 -51 246 -157 55
-55 117 -115 137 -133 20 -18 37 -38 37 -45 0 -6 11 -22 24 -35 14 -12 34 -42
46 -67 11 -24 28 -49 36 -56 13 -10 14 -6 13 27 -2 34 9 109 25 179 9 39 68
200 77 209 5 6 9 34 9 63 0 38 7 68 26 103 17 32 27 70 29 107 8 139 58 309
105 363 76 85 128 138 156 157 17 12 77 35 135 51 97 27 164 61 241 121 31 25
51 26 71 6 12 -12 14 -37 10 -134 -7 -137 -14 -122 112 -216 81 -61 95 -79 95
-126 0 -47 -34 -89 -86 -108 -45 -16 -93 -66 -94 -98 0 -13 16 -40 35 -62 37
-40 105 -162 105 -186 0 -46 123 -37 215 15 30 17 80 34 123 41 62 10 78 17
108 48 66 67 68 124 8 191 -19 21 -36 47 -36 57 -2 23 44 144 99 259 36 77 43
102 43 153 0 55 2 61 24 67 16 4 37 -4 69 -24 25 -16 67 -37 92 -46 l45 -18 0
-1859 0 -1859 -3075 0 -3075 0 0 -2445 0 -2445 5400 0 5400 0 0 5400 0 5400
-2515 0 c-2164 0 -2515 -2 -2515 -14 0 -8 -3 -21 -6 -30 -4 -11 -1 -16 11 -16
9 0 13 -4 10 -10 -3 -5 1 -20 10 -34 18 -28 20 -70 11 -321 -3 -99 -11 -196
-18 -215 -6 -19 -10 -62 -9 -96 2 -58 1 -62 -23 -68 -13 -3 -32 -3 -40 0 -9 3
-35 -1 -58 -11 -27 -11 -54 -14 -76 -10 -26 5 -39 2 -56 -13 -19 -18 -82 -42
-148 -56 -48 -11 -76 -94 -57 -167 6 -24 13 -60 16 -81 l5 -36 -54 -16 c-52
-15 -89 -43 -101 -78 -7 -21 18 -169 31 -177 5 -3 15 -25 22 -49 11 -44 3 -72
-22 -72 -20 0 -58 58 -58 89 0 31 -22 71 -38 71 -9 0 -27 -13 -41 -29 -19 -22
-36 -31 -66 -33 -35 -3 -41 0 -54 27 -21 43 -18 139 8 225 24 81 24 74 2 400
-25 387 -25 365 7 498 17 67 38 136 49 154 21 37 65 62 125 74 9 2 35 23 57
46 l40 43 -1077 3 c-744 1 -1079 -1 -1086 -8 -6 -6 -11 -54 -11 -110 0 -89 2
-101 22 -119 12 -12 28 -21 36 -21 20 0 67 -46 67 -65 0 -8 4 -15 8 -15 5 0
15 -11 22 -25 7 -14 19 -25 27 -25 7 0 13 -4 13 -9 0 -5 9 -12 19 -16 11 -3
21 -16 23 -28 2 -12 9 -21 16 -19 8 1 11 -2 7 -7 -3 -6 8 -17 24 -26 22 -11
28 -20 24 -32 -5 -12 -2 -15 11 -10 11 4 27 -3 46 -19 23 -21 30 -37 35 -83 7
-65 33 -124 51 -117 7 3 14 0 17 -7 2 -7 7 16 10 51 4 35 11 71 17 82 15 29
12 87 -5 94 -23 8 -18 33 8 39 98 23 148 39 183 56 22 11 94 34 160 51 65 17
157 48 202 70 46 22 93 40 103 40 23 0 95 -35 104 -50 4 -6 6 -178 5 -383 -1
-469 -2 -437 15 -463 11 -17 12 -24 2 -27 -9 -4 -9 -8 2 -15 22 -15 5 -29 -44
-36 -44 -7 -45 -8 -45 -45 0 -30 10 -48 54 -101 30 -35 56 -76 58 -91 4 -24 0
-30 -26 -39 -17 -7 -40 -15 -51 -20 -11 -4 -51 -33 -89 -64 -38 -31 -101 -77
-140 -101 -93 -58 -115 -92 -138 -213 -19 -103 -18 -145 9 -307 23 -138 20
-179 -19 -261 -16 -33 -6 -66 32 -107 19 -21 39 -46 44 -55 5 -10 16 -23 23
-30 32 -32 62 -130 46 -146 -5 -4 -8 -12 -8 -18 0 -7 -34 -10 -95 -9 -104 2
-173 14 -178 30 -2 6 -12 11 -23 11 -10 0 -19 4 -19 9 0 5 -10 11 -22 13 -14
2 -24 11 -26 23 -11 72 -18 76 -62 38 -37 -34 -72 -29 -120 15 -22 22 -40 46
-40 55 0 23 20 71 26 64 3 -3 1 -14 -4 -24 -6 -11 -7 -25 -2 -33 10 -15 20
-10 24 12 12 58 30 74 93 82 18 2 41 13 50 24 18 21 69 32 89 19 6 -3 22 -4
35 -1 13 3 32 6 42 6 13 -1 16 4 12 19 -4 11 -2 19 4 19 24 0 8 29 -52 95 -34
39 -70 88 -80 110 -38 89 -45 204 -27 425 20 232 46 332 110 425 35 51 37 73
10 108 -28 35 -24 88 12 164 6 13 8 45 5 75 -9 73 -32 91 -107 84 -100 -9
-134 -39 -106 -95 15 -30 11 -51 -10 -51 -8 0 -14 -7 -14 -15 0 -8 -11 -22
-25 -31 -14 -9 -25 -26 -25 -39 0 -12 -7 -28 -16 -36 -10 -8 -14 -22 -10 -39
6 -31 -22 -60 -58 -60 -13 0 -36 -10 -52 -22 -16 -12 -26 -18 -22 -13 4 4 4
13 -1 19 -5 6 -10 40 -11 76 -4 106 -21 221 -43 280 -31 85 -49 123 -64 138
-7 7 -13 24 -13 36 0 12 -11 33 -25 46 -14 13 -25 27 -25 32 0 12 -82 128 -90
128 -4 0 -21 14 -38 30 -18 17 -36 30 -42 30 -5 0 -10 6 -10 14 0 14 -55 76
-68 76 -4 1 -22 14 -41 30 -18 15 -40 26 -47 23 -8 -3 -14 0 -14 6 0 6 -10 11
-23 11 -13 0 -28 5 -35 12 -15 15 -252 28 -269 15 -6 -4 -26 -7 -44 -5 -32 3
-33 5 -54 85 l-22 82 96 49 c57 30 95 55 94 63 -1 8 -5 26 -9 41 -5 21 0 32
22 54 l29 27 -555 -8 c-625 -8 -579 -8 -680 -5 -41 1 -93 -2 -115 -6 -48 -8
-61 -8 -145 1 -92 10 -157 11 -166 3 -4 -5 1 -17 11 -29 17 -17 17 -22 5 -29
-8 -6 -11 -10 -6 -10 5 0 -6 -13 -24 -30 -18 -16 -41 -30 -50 -30 -9 0 -22 -6
-28 -12 -8 -8 -45 -13 -101 -13 -73 0 -92 3 -110 19 -12 11 -21 16 -21 13 0
-17 -71 65 -73 84 -3 43 -45 49 -317 49 l-250 0 0 -215z m1236 -106 c91 -34
222 -61 271 -55 28 3 54 3 56 -1 4 -7 13 -231 19 -465 1 -34 6 -58 12 -58 6 0
5 -4 -2 -9 -10 -6 -6 -11 17 -19 17 -6 34 -19 38 -29 4 -10 15 -24 25 -31 18
-13 25 -52 10 -52 -4 0 -25 20 -45 45 -39 46 -67 58 -67 29 0 -15 -2 -15 -22
0 -38 26 -103 53 -157 65 -62 13 -216 14 -186 1 17 -7 17 -9 3 -9 -10 -1 -18
-6 -18 -12 0 -5 -5 -7 -10 -4 -6 4 -17 1 -25 -5 -8 -7 -21 -10 -29 -7 -7 3
-19 0 -25 -6 -8 -8 -11 -7 -11 6 0 9 5 17 12 17 6 0 9 3 5 6 -14 14 -116 -32
-172 -78 -33 -26 -67 -47 -75 -46 -8 2 -29 32 -46 66 -18 35 -35 66 -39 70 -5
4 -5 0 -1 -8 5 -9 2 -8 -7 2 -8 10 -17 15 -20 11 -4 -3 -7 -1 -7 6 0 7 -4 9
-10 6 -5 -3 -10 -1 -10 5 0 6 -4 8 -10 5 -5 -3 -10 -1 -10 6 0 7 -3 10 -6 7
-3 -3 -24 12 -47 33 -23 21 -58 46 -77 56 -21 10 -30 18 -21 21 11 4 11 6 0
13 -10 6 -11 9 -1 9 6 0 12 10 13 23 0 21 1 21 10 2 9 -21 5 92 -7 171 -4 31
-1 51 14 80 l20 39 98 3 c55 2 128 7 164 12 36 5 99 10 140 11 77 2 90 8 90
46 0 18 7 23 38 26 71 7 81 7 108 -4z m7884 -292 l0 -204 -142 -6 c-185 -9
-1198 -9 -1316 -1 l-92 7 0 203 0 204 775 0 775 0 0 -203z m-4487 -9 c31 -16
46 -39 47 -69 0 -21 -12 -34 -66 -69 -74 -48 -111 -49 -158 -5 -41 38 -34 67
25 114 55 44 106 54 152 29z m-1780 -203 c16 -1 32 -6 35 -11 4 -6 23 -20 42
-32 l35 -22 -40 0 c-32 0 -42 -5 -50 -22 -6 -13 -19 -24 -30 -24 -40 -3 -71
-22 -72 -44 -1 -13 -7 -28 -12 -33 -14 -14 -101 21 -124 50 -11 14 -29 23 -45
23 -19 0 -32 9 -44 30 -18 32 -45 38 -92 20 -20 -7 -24 -6 -19 5 5 14 41 27
113 40 51 9 61 11 103 20 24 4 48 3 62 -3 19 -9 31 -8 52 3 15 8 35 12 43 8 8
-3 28 -7 43 -8z m-392 -136 c6 -13 6 -19 -1 -19 -5 0 -10 -4 -10 -10 0 -5 8
-10 18 -10 25 0 79 -36 93 -62 11 -21 11 -22 -4 -10 -9 8 -21 11 -27 7 -5 -3
-10 -1 -10 4 0 14 -33 14 -47 0 -8 -8 -17 -8 -32 0 -12 7 -29 11 -39 9 -10 -2
-17 3 -17 12 0 8 10 16 23 18 12 2 22 8 22 13 0 13 -35 3 -79 -22 -19 -11 -42
-17 -52 -14 -19 6 -19 7 1 34 10 16 16 32 12 36 -4 5 1 5 10 2 11 -4 23 1 31
14 10 13 20 17 32 13 11 -5 16 -3 12 2 -4 6 6 9 24 6 16 -2 34 -13 40 -23z
m561 -304 c37 -1 83 -18 93 -35 14 -22 13 -81 -1 -87 -8 -3 -11 -9 -8 -14 3
-5 -2 -9 -10 -9 -9 0 -16 6 -16 13 0 9 -3 8 -9 -2 -6 -9 -11 -10 -15 -3 -4 6
-12 9 -19 6 -7 -2 -33 11 -58 29 -42 33 -45 37 -41 75 4 40 28 61 44 38 3 -5
21 -10 40 -11z m-2372 0 c7 -8 21 -15 31 -15 10 0 23 -9 29 -20 6 -11 15 -18
21 -15 5 4 10 1 11 -4 4 -30 2 -36 -12 -37 -8 -1 -33 -2 -55 -3 l-40 -2 43
-15 c24 -9 46 -13 49 -10 9 9 33 -22 33 -42 0 -27 -17 -38 -70 -47 -25 -4 -54
-12 -65 -18 -13 -7 -20 -7 -23 2 -2 6 -12 11 -23 11 -21 0 -27 19 -6 21 9 0 9
2 -1 6 -8 3 -4 11 13 25 19 14 40 20 73 20 33 -1 43 1 32 8 -8 5 -22 10 -31
10 -24 0 -33 30 -13 45 15 11 13 13 -16 23 -18 7 -45 12 -61 12 -15 0 -34 3
-43 6 -14 5 -14 8 1 30 13 20 24 24 63 24 30 0 52 -6 60 -15z m2240 -233 c14
-9 36 -20 50 -23 21 -5 17 -7 -21 -13 -29 -5 -54 -4 -66 3 -14 7 -23 7 -30 0
-6 -6 -38 -13 -72 -16 -53 -5 -64 -3 -76 13 -36 48 -2 66 110 58 50 -4 89 -12
105 -22z m-1533 -23 c15 -18 35 -39 44 -48 14 -16 15 -24 3 -61 -3 -8 -5 -17
-5 -20 0 -8 -31 -23 -53 -26 -12 -2 -32 -6 -46 -9 -38 -9 -87 26 -99 72 -9 33
-8 42 15 75 27 38 39 45 86 47 18 1 35 -9 55 -30z m1534 -130 c31 -21 41 -69
15 -69 -7 0 -16 -10 -20 -22 -5 -18 -8 -20 -15 -9 -6 9 -15 11 -27 6 -11 -4
-30 -7 -43 -6 -13 2 -27 -2 -30 -8 -4 -6 -23 -13 -43 -15 -34 -5 -37 -3 -43
25 -4 16 -11 29 -16 29 -6 0 -7 -4 -4 -10 3 -5 2 -10 -4 -10 -6 0 -7 -7 -4
-17 4 -11 3 -14 -6 -9 -7 5 -10 14 -7 22 3 8 1 14 -5 14 -5 0 -2 11 8 24 11
15 32 26 55 30 21 3 45 14 55 25 36 37 83 37 134 0z m465 -59 c7 0 20 -7 28
-16 9 -8 21 -12 27 -9 7 5 8 -7 3 -41 -3 -27 -9 -52 -11 -57 -11 -19 -66 -38
-94 -32 -24 6 -27 9 -19 25 5 10 8 25 5 32 -3 7 4 31 15 53 11 22 16 41 10 45
-5 3 -6 17 -3 30 l7 25 10 -27 c5 -16 15 -28 22 -28z m-23 -277 c62 -32 77
-75 79 -227 1 -84 -2 -109 -16 -128 -57 -78 -77 -115 -73 -136 4 -20 1 -22
-29 -20 -18 1 -30 6 -28 10 3 4 1 8 -4 8 -5 0 -13 33 -17 72 -3 40 -12 86 -20
103 -16 38 -70 89 -84 81 -8 -5 -11 25 -11 98 0 101 1 106 24 122 21 13 82 28
134 33 7 0 27 -6 45 -16z m-3050 -610 c4 -3 1 -13 -5 -21 -10 -12 -7 -19 15
-38 15 -13 27 -31 27 -42 0 -39 -50 -58 -68 -25 -15 26 -46 -28 -39 -67 5 -23
2 -32 -12 -40 -29 -15 -44 11 -36 59 4 24 2 41 -4 46 -14 8 -14 38 0 52 8 8
18 7 37 -3 24 -12 27 -11 41 18 11 23 12 33 3 36 -9 3 -9 7 1 17 13 15 30 19
40 8z m547 -175 c7 -18 9 -19 9 -5 1 9 6 17 12 17 6 0 10 -12 8 -27 -1 -16 2
-37 6 -47 10 -24 -21 -49 -51 -42 -18 5 -20 0 -23 -35 -1 -23 3 -47 9 -54 23
-27 -27 -68 -55 -45 -7 6 -15 7 -18 3 -4 -3 -7 1 -7 10 0 10 5 17 10 17 6 0 3
12 -7 27 -13 19 -14 28 -5 31 6 2 12 12 12 23 0 22 18 26 26 4 5 -11 9 -11 19
-2 7 6 10 18 7 25 -3 8 1 17 8 22 9 6 8 13 -4 33 -15 22 -15 25 -1 30 8 4 15
13 15 22 0 23 19 18 30 -7z m8560 -193 l0 -195 -1040 0 -1040 0 0 195 0 195
1040 0 1040 0 0 -195z m-8767 58 c3 -5 8 -36 12 -70 l7 -61 -32 -7 -33 -7 7
-63 c6 -61 6 -63 -19 -69 -14 -4 -30 -4 -35 -1 -6 4 -10 -4 -10 -17 0 -13 -7
-36 -15 -52 -9 -16 -13 -31 -10 -34 3 -3 5 0 5 6 0 7 5 12 10 12 18 0 10 -39
-10 -50 -25 -13 -40 -5 -40 20 0 10 -8 32 -17 48 -15 26 -15 31 -2 44 8 9 25
19 37 22 18 6 22 15 22 52 0 24 5 44 10 44 6 0 10 9 10 20 0 13 7 20 20 20 18
0 19 5 15 56 -4 37 -2 53 5 49 5 -3 10 2 10 13 0 10 3 22 7 25 9 9 41 9 46 0z
m104 -182 c-2 -25 -2 -40 0 -33 7 19 23 14 23 -8 0 -22 -34 -44 -57 -36 -21 8
-36 -3 -25 -17 5 -7 13 -38 16 -69 7 -50 5 -58 -13 -67 -34 -19 -61 -13 -71
15 -6 14 -8 30 -5 35 3 5 1 18 -5 29 -15 28 3 58 37 62 20 2 29 9 31 26 2 12
10 22 19 22 13 0 12 3 -4 18 -11 9 -23 26 -26 36 -6 16 -5 17 8 6 13 -10 15
-9 15 7 0 27 6 31 36 25 25 -4 26 -8 21 -51z m8943 -376 l0 -195 -1315 0
-1315 0 0 195 0 195 1315 0 1315 0 0 -195z m0 -420 l0 -195 -1315 0 -1315 0 0
195 0 195 1315 0 1315 0 0 -195z m2 -430 l-3 -195 -1314 0 -1315 0 0 195 0
195 1318 0 1317 0 -3 -195z m0 -430 l-3 -195 -1314 0 -1315 0 0 195 0 195
1318 0 1317 0 -3 -195z m0 -430 l-3 -195 -1314 0 -1315 0 0 195 0 195 1318 0
1317 0 -3 -195z m0 -430 l-3 -195 -1314 0 -1315 0 0 195 0 195 1318 0 1317 0
-3 -195z m-8459 -646 c42 -51 5 -139 -59 -139 -47 0 -74 29 -74 80 0 56 37 95
83 86 18 -3 40 -16 50 -27z m3547 8 c0 -20 4 -23 29 -19 34 5 61 -26 61 -70 0
-39 -24 -58 -76 -58 l-44 0 0 85 c0 69 3 85 15 85 9 0 15 -9 15 -23z m1464 1
c21 -30 20 -45 -4 -65 -19 -17 -19 -17 1 -50 18 -29 18 -33 4 -33 -8 0 -25 16
-36 35 -12 20 -29 35 -40 35 -15 0 -19 -7 -19 -35 0 -24 -5 -35 -15 -35 -12 0
-15 16 -15 85 l0 85 54 0 c45 0 58 -4 70 -22z m-3574 -94 c0 -78 -13 -104 -51
-104 -29 0 -59 18 -59 35 0 20 9 19 32 -2 21 -19 50 -9 56 19 2 10 -6 13 -31
10 -39 -4 -60 15 -60 58 0 44 19 60 69 58 l44 -1 0 -73z m172 59 c21 -19 24
-71 5 -97 -10 -14 -23 -17 -45 -14 -28 4 -32 2 -32 -20 0 -14 -5 -22 -12 -20
-12 4 -23 128 -14 154 7 17 78 15 98 -3z m378 -55 c0 -72 -19 -108 -58 -108
-27 0 -66 30 -53 43 6 6 15 4 27 -7 9 -10 23 -15 31 -12 8 3 17 6 19 6 2 0 4
7 4 15 0 10 -10 15 -29 15 -37 0 -61 23 -61 57 0 42 26 63 76 61 l44 -2 0 -68z
m2446 -308 l11 -55 7 46 c10 57 19 72 42 67 12 -2 21 -18 29 -53 l11 -50 8 35
c14 63 17 70 37 70 23 0 23 2 1 -85 -16 -62 -21 -70 -44 -73 -27 -3 -38 16
-38 66 0 13 -4 20 -10 17 -5 -3 -10 -18 -10 -33 0 -36 -14 -55 -39 -57 -14 -1
-23 5 -26 19 -36 158 -35 147 -12 144 18 -2 24 -14 33 -58z m219 25 c-2 -33
-1 -35 31 -35 32 0 34 2 34 35 0 28 4 35 20 35 18 0 20 -7 20 -80 0 -73 -2
-80 -20 -80 -16 0 -20 7 -20 31 0 28 -2 30 -32 27 -29 -3 -33 -7 -33 -33 -1
-16 -4 -29 -8 -27 -4 1 -14 2 -22 2 -12 0 -15 16 -15 80 0 77 1 80 23 80 20 0
23 -5 22 -35z m262 20 c44 -31 35 -131 -12 -149 -24 -9 -64 -7 -84 4 -43 22
-50 102 -14 143 20 21 81 23 110 2z m394 -65 c18 -49 23 -77 16 -82 -15 -9
-37 2 -37 18 0 20 -66 19 -74 -1 -7 -18 -50 -21 -44 -2 3 6 16 43 29 80 23 65
25 68 53 65 27 -3 32 -10 57 -78z m126 28 l32 -53 1 53 c0 45 3 52 20 52 18 0
20 -7 20 -80 0 -79 0 -80 -25 -80 -19 0 -31 9 -43 31 -9 17 -25 41 -34 53 -17
21 -17 20 -18 -30 0 -37 -4 -54 -15 -58 -13 -4 -15 8 -15 79 0 82 1 85 23 85
16 0 31 -14 54 -52z m275 -30 l28 -78 -25 0 c-16 0 -25 6 -25 15 0 10 -11 15
-35 15 -19 0 -35 -5 -35 -10 0 -11 -41 -31 -49 -24 -2 2 9 40 25 84 28 78 30
81 58 78 27 -3 32 -10 58 -80z m545 30 l28 -52 3 52 c3 44 6 52 23 52 17 0 19
-7 19 -81 l0 -80 -27 3 c-21 2 -34 14 -53 48 l-25 45 -3 -47 c-3 -40 -6 -48
-23 -48 -17 0 -19 7 -19 80 0 78 1 80 24 80 19 0 31 -11 53 -52z m223 32 c14
-14 20 -33 20 -63 0 -65 -24 -81 -117 -78 l-33 1 0 80 0 80 55 0 c42 0 60 -5
75 -20z m284 3 c3 -10 8 -36 12 -58 l8 -40 11 55 c8 45 14 56 32 58 17 3 24
-3 29 -25 3 -15 9 -39 14 -53 7 -23 8 -22 14 15 11 60 14 65 35 65 17 0 18 -4
9 -42 -23 -109 -28 -118 -53 -118 -21 0 -26 6 -31 40 -9 56 -21 58 -29 4 -6
-42 -8 -45 -33 -42 -23 3 -28 10 -38 56 -7 29 -15 64 -18 77 -5 20 -3 25 13
25 11 0 22 -8 25 -17z m477 -2 c19 -15 24 -29 24 -66 0 -37 -5 -51 -24 -66
-44 -36 -116 -17 -130 35 -9 37 3 86 26 104 25 18 77 15 104 -7z m119 -33 l14
-53 14 53 c14 47 18 52 43 52 l29 0 0 -80 c0 -63 -3 -80 -14 -80 -11 0 -16 15
-18 53 l-3 52 -18 -53 c-24 -69 -45 -66 -68 8 l-17 55 -1 -57 c-1 -45 -5 -58
-16 -58 -12 0 -15 16 -15 80 l0 80 28 0 c26 0 30 -5 42 -52z m-6377 -6 c21
-19 22 -60 1 -91 -12 -17 -24 -22 -45 -19 -25 4 -29 1 -29 -19 0 -14 -6 -23
-15 -23 -12 0 -15 16 -15 84 l0 85 33 3 c36 4 44 1 70 -20z m4030 -303 c64
-29 60 -133 -6 -160 -83 -35 -143 94 -70 151 29 23 42 24 76 9z m3807 -13 c0
-19 4 -22 24 -19 32 7 66 -28 66 -67 0 -39 -34 -74 -63 -66 -12 3 -30 6 -39 6
-16 0 -18 11 -18 85 0 69 3 85 15 85 9 0 15 -9 15 -24z m-6441 -22 c31 -6 31
-7 31 -72 0 -47 -5 -71 -17 -84 -21 -24 -65 -23 -88 2 -20 22 -6 27 24 8 22
-14 51 -4 51 17 0 11 -6 14 -24 9 -53 -13 -87 65 -46 106 22 22 24 23 69 14z
m3371 -14 c23 -23 25 -48 8 -85 -12 -26 -48 -42 -67 -30 -7 3 -11 -2 -11 -14
0 -12 -7 -21 -15 -21 -12 0 -15 15 -15 79 0 75 1 80 23 84 45 9 57 7 77 -13z
m-1255 -363 c32 -46 6 -107 -46 -107 -22 0 -29 -5 -29 -20 0 -11 -7 -20 -15
-20 -12 0 -15 16 -15 84 l0 83 45 1 c35 1 48 -3 60 -21z m3689 1 c33 -46 7
-108 -45 -108 -22 0 -29 -5 -29 -20 0 -11 -7 -20 -15 -20 -12 0 -15 16 -15 83
l0 84 44 1 c36 2 48 -2 60 -20z m-7729 -313 c31 -30 33 -82 4 -119 -16 -20
-29 -26 -60 -26 -34 0 -42 5 -60 33 -25 40 -19 83 17 115 33 29 69 28 99 -3z
m1685 -58 l0 -84 -44 -1 c-36 -2 -48 2 -60 20 -34 48 -5 113 45 106 25 -4 29
-1 29 19 0 14 6 23 15 23 12 0 15 -16 15 -83z m840 -1 l0 -83 -50 -2 c-39 0
-52 3 -60 19 -28 53 4 117 55 108 21 -4 25 -1 25 18 0 15 6 24 15 24 12 0 15
-16 15 -84z m4350 1 l0 -84 -42 -1 c-49 -2 -78 19 -78 57 0 43 28 74 61 69 25
-4 29 -1 29 19 0 14 6 23 15 23 12 0 15 -16 15 -83z m-4752 -30 c2 -56 0 -69
-18 -87 -24 -24 -48 -25 -79 -4 -16 12 -20 19 -12 27 8 8 15 6 24 -7 17 -23
57 -13 57 13 0 14 -6 17 -32 13 -37 -6 -58 16 -58 59 0 42 25 60 74 56 l41 -4
3 -66z m3350 -11 c-3 -77 -4 -81 -30 -90 -20 -7 -33 -5 -53 8 -14 9 -23 21
-19 27 4 6 13 4 26 -7 21 -20 50 -10 56 18 2 11 -5 14 -29 10 -38 -6 -59 16
-59 59 0 40 24 59 71 57 l40 -1 -3 -81z m-4208 -260 c0 -8 6 -17 13 -20 10 -5
10 -7 0 -12 -15 -7 -18 -84 -3 -84 6 0 10 -7 10 -15 0 -18 -5 -18 -31 -5 -14
8 -19 21 -19 55 0 63 -23 59 -41 -7 -21 -76 -36 -75 -64 7 -6 17 -10 13 -22
-22 -8 -24 -19 -43 -24 -43 -12 0 -33 50 -44 99 -10 48 15 36 30 -15 l12 -39
12 28 c6 16 11 35 11 43 0 32 34 9 43 -29 12 -48 24 -47 32 3 6 34 11 40 31
40 15 0 24 6 24 15 0 8 7 15 15 15 8 0 15 -6 15 -14z m-460 -83 c0 -35 -5 -73
-10 -84 -16 -30 -100 -24 -100 7 0 16 16 19 25 4 11 -18 55 -12 55 8 0 15 -6
18 -29 14 -21 -3 -33 2 -45 19 -38 54 -10 100 60 97 l44 -1 0 -64z m4930 -268
c0 -22 3 -25 24 -19 32 8 66 -26 66 -66 0 -39 -34 -74 -63 -66 -12 3 -30 6
-39 6 -16 0 -18 11 -18 85 0 69 3 85 15 85 9 0 15 -9 15 -25z m1270 -60 c0
-74 -2 -85 -17 -85 -10 0 -28 -3 -40 -6 -29 -8 -63 27 -63 66 0 39 34 74 66
67 18 -3 24 0 24 13 0 18 9 30 22 30 4 0 8 -38 8 -85z m-4600 -299 c0 -19 4
-22 29 -18 50 7 79 -58 45 -106 -12 -17 -25 -22 -60 -22 l-44 0 0 83 c0 46 3
87 6 90 11 11 24 -3 24 -27z m4650 0 c0 -19 4 -22 29 -18 50 7 79 -58 45 -106
-12 -17 -25 -22 -60 -22 l-44 0 0 83 c0 46 3 87 6 90 11 11 24 -3 24 -27z
m1370 -59 l0 -84 -42 -1 c-49 -2 -78 19 -78 57 0 43 28 74 61 69 25 -4 29 -1
29 19 0 14 6 23 15 23 12 0 15 -16 15 -83z m-3035 20 c32 -46 6 -107 -46 -107
-22 0 -29 -5 -29 -20 0 -11 -7 -20 -15 -20 -12 0 -15 16 -15 84 l0 83 45 1
c35 1 48 -3 60 -21z m1305 -59 c0 -75 -1 -79 -26 -90 -21 -10 -31 -9 -52 2
-30 18 -40 40 -18 40 9 0 16 -4 16 -9 0 -15 32 -22 46 -10 25 21 16 36 -18 31
-37 -6 -58 16 -58 59 0 40 24 59 71 57 l39 -1 0 -79z m-7572 -246 c18 -12 32
-69 25 -103 -6 -31 -36 -59 -64 -59 -9 0 -24 9 -35 21 -23 25 -26 107 -5 132
14 18 57 22 79 9z m3602 -71 l0 -79 -41 -7 c-31 -5 -45 -3 -60 11 -44 40 -8
132 46 118 21 -5 25 -3 25 15 0 12 6 21 15 21 12 0 15 -15 15 -79z m-2350 -25
c0 -89 -32 -124 -94 -100 -17 7 -22 34 -6 34 6 0 10 -5 10 -11 0 -18 55 -5 58
14 3 14 -1 17 -21 12 -48 -13 -87 56 -54 97 16 20 32 25 73 20 l34 -4 0 -62z
m-1362 -334 l3 -82 -33 -1 c-50 -2 -62 1 -75 19 -34 43 4 120 53 108 21 -6 24
-3 24 20 0 16 5 24 13 22 8 -3 13 -32 15 -86z m2425 36 c47 -36 15 -137 -39
-124 -19 5 -24 2 -24 -14 0 -11 -7 -20 -15 -20 -12 0 -15 15 -15 79 0 75 1 80
23 84 41 8 53 7 70 -5z m4937 -8 c23 -23 25 -51 9 -83 -16 -30 -30 -38 -56
-32 -18 4 -23 1 -23 -15 0 -11 -7 -20 -15 -20 -12 0 -15 15 -15 79 0 75 1 80
23 84 45 9 57 7 77 -13z m-6966 -316 c22 -21 20 -51 -4 -71 -19 -17 -19 -17 1
-50 16 -26 17 -33 6 -33 -7 0 -22 16 -33 35 -13 24 -26 35 -41 35 -20 0 -23
-5 -23 -35 0 -19 -4 -35 -10 -35 -6 0 -10 35 -10 85 l0 85 49 0 c32 0 55 -6
65 -16z m446 -4 c14 -14 20 -33 20 -63 0 -56 -23 -78 -90 -85 l-50 -5 0 87 0
86 50 0 c37 0 55 -5 70 -20z m3560 -64 l0 -84 -42 0 c-52 -1 -78 20 -78 63 0
40 30 69 65 63 21 -4 25 -1 25 18 0 15 6 24 15 24 12 0 15 -16 15 -84z m890 1
l0 -83 -42 -1 c-51 -2 -78 18 -78 60 0 39 26 67 62 67 21 0 28 5 28 20 0 11 7
20 15 20 12 0 15 -16 15 -83z m-2976 21 c33 -46 7 -108 -45 -108 -22 0 -29 -5
-29 -20 0 -11 -7 -20 -15 -20 -12 0 -15 16 -15 85 l0 85 44 0 c35 0 48 -5 60
-22z m3656 -54 c0 -64 -3 -75 -22 -88 -29 -21 -41 -20 -69 3 -30 24 -19 39 12
17 16 -11 27 -12 41 -5 30 16 22 36 -12 31 -41 -6 -60 13 -60 57 0 48 15 61
67 59 l43 -1 0 -73z m1814 54 c33 -46 7 -108 -45 -108 -22 0 -29 -5 -29 -20 0
-11 -7 -20 -15 -20 -12 0 -15 16 -15 85 l0 85 44 0 c35 0 48 -5 60 -22z
m-5540 -320 c9 -12 16 -38 16 -58 0 -59 -22 -80 -86 -80 l-54 0 0 80 0 80 54
0 c45 0 58 -4 70 -22z m176 2 c29 -29 27 -94 -5 -125 -31 -31 -66 -32 -101 -1
-33 28 -38 79 -11 120 22 33 86 37 117 6z m872 3 c25 -28 30 -61 18 -99 -19
-57 -83 -72 -125 -29 -53 52 -18 145 54 145 24 0 44 -7 53 -17z"/>
<path d="M8471 10276 c-65 -36 -66 -151 -2 -186 26 -13 84 -13 115 1 59 27 72
132 21 177 -30 25 -95 30 -134 8z m104 -21 c20 -19 25 -34 25 -72 0 -61 -21
-93 -61 -93 -48 0 -79 39 -79 100 0 84 62 119 115 65z"/>
<path d="M8700 10198 c0 -82 -3 -99 -17 -107 -14 -8 -10 -10 22 -11 22 0 35 4
29 8 -6 4 -14 38 -17 76 l-5 68 78 -77 77 -77 6 39 c4 21 7 66 7 100 0 40 4
63 13 66 6 3 -6 6 -28 6 -24 0 -35 -3 -27 -7 7 -5 15 -39 19 -78 3 -40 2 -66
-3 -61 -5 4 -42 40 -81 80 l-73 72 0 -97z"/>
<path d="M7528 7963 c8 -3 12 -33 12 -98 0 -65 -4 -95 -12 -98 -7 -3 7 -5 32
-5 25 0 39 2 33 5 -8 3 -13 24 -13 54 l0 49 50 0 50 0 0 -49 c0 -30 -5 -51
-12 -54 -7 -3 22 -4 64 -4 42 0 74 5 71 9 -2 5 -2 20 1 34 5 19 13 24 40 24
30 0 36 -4 46 -35 10 -30 16 -35 43 -35 26 1 29 3 15 10 -9 6 -33 53 -54 105
-21 53 -41 92 -45 88 -4 -5 -22 -44 -39 -88 -36 -92 -45 -105 -71 -105 -17 0
-19 9 -19 94 0 67 4 96 13 99 6 2 -8 4 -33 4 -25 0 -39 -2 -32 -4 7 -3 12 -21
12 -44 l0 -39 -50 0 -50 0 0 39 c0 22 5 42 13 44 6 3 -8 5 -33 5 -25 0 -39 -2
-32 -5z"/>
<path d="M8320 7878 c-7 -51 -16 -98 -22 -105 -7 -8 -3 -10 11 -6 17 4 21 14
22 47 1 79 12 83 44 17 16 -34 32 -61 35 -61 4 0 20 29 37 65 l30 65 7 -37 c3
-21 6 -50 6 -64 0 -19 6 -28 23 -33 31 -8 44 -7 29 2 -7 5 -17 37 -22 73 -6
35 -13 80 -16 99 l-6 35 -40 -80 -41 -79 -38 77 c-22 42 -41 77 -43 77 -2 0
-9 -42 -16 -92z"/>
<path d="M8778 7963 c8 -3 12 -32 12 -98 0 -66 -4 -95 -12 -98 -7 -2 4 -3 24
-3 23 1 33 5 27 11 -13 13 -11 75 2 75 7 0 30 -20 53 -45 42 -44 43 -45 106
-45 50 0 61 3 52 12 -7 7 -12 30 -12 51 l0 39 46 -51 c35 -39 53 -51 75 -51
29 0 28 1 -33 59 l-63 59 25 27 c14 15 39 36 55 46 l30 19 -38 0 c-21 0 -36
-4 -33 -8 3 -5 -10 -24 -29 -42 l-35 -34 0 36 c0 20 6 38 13 41 6 2 -8 4 -33
5 -34 1 -41 -2 -27 -9 14 -8 17 -24 17 -84 0 -40 -3 -80 -6 -89 -10 -27 -40
-18 -78 25 -36 39 -37 42 -22 64 37 56 12 87 -72 90 -31 1 -51 0 -44 -2z"/>
<path d="M8188 7359 c3 -52 0 -74 -10 -80 -8 -6 4 -8 32 -8 25 0 39 3 33 6
-15 6 -18 63 -3 63 6 0 18 -10 28 -22 45 -56 53 -60 91 -54 20 3 47 6 61 7 14
0 19 3 13 6 -9 3 -13 28 -13 73 0 45 4 70 13 73 6 3 -8 5 -33 5 -25 0 -39 -2
-32 -5 8 -3 12 -28 12 -74 0 -61 -2 -69 -19 -69 -21 0 -75 61 -62 70 16 11 19
39 5 59 -12 17 -26 21 -67 21 l-52 0 3 -71z"/>
<path d="M8308 6991 c10 -6 13 -28 10 -79 -3 -70 -3 -71 22 -69 22 2 25 6 22
35 -6 44 18 43 49 -3 26 -38 48 -50 79 -40 25 8 27 25 1 18 -12 -3 -26 6 -44
28 -23 29 -24 35 -11 54 12 18 12 24 -2 43 -13 19 -24 22 -77 22 -38 0 -57 -4
-49 -9z"/>
<path d="M8595 6500 l0 -80 35 1 c19 0 29 3 23 6 -7 2 -13 18 -13 34 0 40 23
37 49 -5 27 -43 40 -48 106 -40 52 6 53 7 44 31 -12 32 -11 90 1 114 10 17 7
19 -26 19 -30 0 -34 -2 -25 -14 7 -9 11 -38 9 -73 -3 -48 -6 -58 -23 -62 -21
-4 -82 58 -67 68 17 12 20 40 6 60 -12 17 -26 21 -67 21 l-52 0 0 -80z"/>
<path d="M7970 5705 c-32 -34 -33 -91 -1 -116 36 -29 95 -25 120 7 65 82 -48
185 -119 109z"/>
<path d="M7158 5288 c7 -7 12 -37 12 -68 0 -31 -5 -61 -12 -68 -9 -9 1 -12 45
-12 71 0 107 28 107 84 0 51 -36 76 -108 76 -44 0 -53 -3 -44 -12z"/>
<path d="M7795 5219 l0 -81 59 4 c47 4 62 9 77 29 26 34 24 75 -6 104 -19 20
-34 25 -77 25 l-53 0 0 -81z"/>
<path d="M1848 8272 c-27 -18 -57 -53 -146 -170 -45 -60 -53 -65 -207 -141
-88 -44 -171 -82 -185 -86 -46 -13 -50 -23 -29 -59 37 -64 102 -223 155 -383
29 -89 76 -210 104 -269 27 -59 60 -139 71 -178 12 -39 33 -87 48 -106 58 -76
81 -140 81 -229 0 -21 11 -63 24 -93 13 -30 38 -95 55 -144 17 -49 43 -110 56
-135 49 -92 76 -179 74 -238 -1 -34 4 -67 12 -83 25 -46 72 -112 103 -146 17
-18 29 -36 26 -40 -3 -4 121 -8 274 -10 254 -2 281 -1 298 15 32 29 154 31
229 3 56 -21 61 -22 72 -6 9 12 44 23 110 34 71 12 97 20 97 31 0 12 3 12 12
3 7 -7 23 -11 38 -11 16 1 19 3 8 6 -10 2 -18 6 -18 9 0 10 26 50 38 57 6 4
12 19 12 33 0 16 4 23 11 18 11 -7 99 81 99 99 0 9 4 14 84 102 25 28 46 59
46 70 0 14 3 16 8 7 6 -9 14 -6 30 13 11 13 39 33 62 45 39 20 40 22 40 72 0
36 6 58 19 72 19 22 35 93 47 210 4 38 17 95 30 126 17 41 25 88 30 166 6 96
10 110 31 130 29 27 68 121 82 199 15 83 13 254 -4 342 -34 178 -95 245 -346
375 -31 16 -88 60 -126 98 -53 52 -79 70 -108 76 -51 9 -80 25 -106 58 -17 21
-24 25 -30 14 -7 -11 -11 -10 -19 2 -7 11 -10 3 -10 -31 0 -26 -13 -85 -29
-130 -16 -46 -41 -124 -56 -174 -49 -170 -180 -565 -187 -565 -12 0 -109 125
-222 285 -135 191 -248 344 -262 356 -7 6 -27 3 -54 -6 -23 -8 -51 -15 -61
-15 -21 0 -164 162 -229 260 -24 36 -48 68 -54 72 -21 14 -101 8 -128 -10z
m513 -495 c0 -12 3 -16 6 -9 2 6 8 10 13 7 4 -3 14 3 21 12 10 12 10 14 2 9
-7 -4 -13 -2 -13 3 0 16 46 13 63 -4 12 -11 16 -12 20 -2 2 6 11 -20 20 -60
21 -91 50 -280 45 -295 -3 -7 -14 53 -27 133 -12 79 -24 152 -27 162 -8 25
-21 13 -28 -28 -5 -26 -12 -35 -27 -35 -16 0 -18 -3 -9 -19 14 -28 13 -51 -4
-51 -15 0 -16 -16 -3 -37 5 -7 4 -13 0 -13 -5 0 -3 -57 3 -127 15 -155 17
-263 5 -263 -5 0 -8 30 -8 68 2 160 -2 202 -20 209 -9 4 -19 1 -21 -5 -2 -7
-8 -10 -13 -6 -5 3 -9 0 -9 -7 0 -6 -8 -18 -17 -24 -17 -12 -17 -14 2 -35 15
-17 16 -21 5 -20 -27 4 -41 0 -35 -10 4 -6 11 -7 17 -4 7 5 9 0 6 -14 -4 -13
-1 -22 5 -22 6 0 7 -3 4 -6 -4 -4 -13 -2 -21 5 -12 10 -14 1 -14 -61 -1 -40
-3 -98 -5 -128 -3 -30 -5 -122 -6 -204 0 -82 -3 -147 -5 -145 -3 2 -6 95 -7
206 -2 183 -3 202 -20 206 -9 3 -22 0 -29 -7 -8 -8 -13 -7 -20 4 -11 17 -13 9
-4 -14 5 -13 9 -14 20 -5 11 9 14 8 14 -3 0 -8 -11 -20 -25 -26 -31 -14 -46
-15 -25 -2 13 9 13 10 0 10 -12 0 -13 2 -1 9 11 7 10 11 -5 19 -18 10 -19 6
-21 -51 -3 -146 -7 -129 -14 63 -4 113 -14 269 -23 347 -9 78 -16 146 -15 150
2 23 19 -59 30 -151 7 -58 16 -103 21 -100 4 3 11 -3 15 -12 6 -16 7 -16 14 2
7 18 8 17 10 -3 1 -13 3 -27 4 -33 1 -5 3 -18 4 -27 1 -16 3 -16 16 1 10 13
12 23 5 30 -16 16 -12 29 7 22 15 -6 15 -5 -1 12 -10 12 -16 32 -14 48 2 19
-1 28 -9 27 -16 -4 -17 13 -2 22 6 4 8 13 5 21 -3 9 1 14 12 14 15 0 15 2 2
10 -10 6 -11 10 -2 10 6 0 12 5 12 10 0 6 -6 10 -14 10 -16 0 -28 91 -13 101
5 4 11 17 12 30 1 13 3 28 4 33 0 5 11 -2 23 -15 15 -17 19 -19 15 -6 -4 11
-2 17 6 16 6 -1 26 4 43 11 26 11 29 17 26 43 -3 21 -1 28 7 23 6 -4 11 -17
12 -29z m-602 -244 c0 4 7 3 14 -4 6 -6 13 -38 13 -71 1 -41 6 -63 17 -71 9
-7 18 -24 21 -40 3 -15 11 -40 19 -56 13 -27 13 -28 -7 -23 -12 3 -30 12 -40
21 -13 10 -17 11 -11 2 4 -7 9 -31 10 -52 2 -22 8 -92 14 -157 17 -191 21
-291 13 -296 -5 -3 -10 21 -11 52 -1 31 -6 107 -12 167 -5 61 -10 129 -10 153
-1 30 -6 46 -18 50 -16 7 -20 15 -23 57 -1 14 -3 25 -4 25 0 0 -9 -10 -20 -22
-16 -18 -17 -21 -2 -15 12 4 15 2 11 -9 -3 -7 -9 -14 -15 -14 -5 0 -6 -5 -3
-10 4 -6 10 -8 14 -6 4 3 8 -1 8 -8 0 -12 -6 -15 -48 -18 -20 -2 -20 -7 -15
-83 5 -76 4 -75 -9 25 -8 58 -19 112 -24 121 -5 9 -7 26 -4 37 2 11 -1 23 -8
28 -9 5 -11 2 -6 -9 3 -10 3 -17 -2 -17 -17 0 -20 14 -7 29 12 14 12 31 0 121
-16 125 -17 193 0 102 9 -54 13 -61 26 -50 12 11 12 11 1 -4 -7 -9 -11 -29 -9
-45 3 -24 7 -28 31 -25 16 2 27 -1 27 -8 0 -7 -7 -10 -15 -6 -8 3 -15 1 -15
-4 0 -6 7 -10 16 -10 10 0 14 -5 10 -16 -3 -8 -2 -12 4 -9 6 3 10 15 10 25 0
13 5 17 15 14 18 -7 20 7 3 25 -7 7 -8 12 -3 11 20 -4 30 1 17 8 -10 7 -10 15
-2 38 7 17 9 57 6 94 l-5 65 13 -60 c8 -33 14 -56 15 -52z m262 -107 c12 -70
29 -134 36 -142 10 -10 11 -14 3 -14 -8 0 -10 -8 -5 -22 3 -13 7 -28 7 -35 1
-7 5 -10 9 -7 4 2 10 -2 12 -8 4 -9 6 -8 6 2 1 9 -6 26 -15 38 -18 26 -12 29
10 6 16 -15 23 -80 8 -70 -4 2 -8 -3 -8 -12 -1 -9 -3 -23 -5 -31 -2 -7 2 -16
10 -18 10 -4 11 0 6 17 -5 17 -4 21 6 17 8 -2 12 -11 10 -18 -2 -8 -4 -20 -4
-27 0 -8 -8 -10 -20 -6 -19 6 -20 3 -13 -67 3 -41 10 -105 16 -144 9 -71 13
-172 6 -164 -4 4 -7 28 -26 229 -7 63 -15 122 -19 130 -5 8 -7 29 -5 45 2 19
0 25 -5 17 -7 -11 -9 -10 -14 2 -4 9 -4 23 0 31 3 10 -10 30 -36 55 -24 23
-39 45 -35 52 4 6 3 8 -3 5 -6 -4 -14 0 -17 9 -4 10 -2 13 7 8 6 -4 4 2 -6 14
-15 16 -18 29 -12 62 5 31 10 38 19 31 7 -6 17 -7 21 -3 5 4 5 1 0 -7 -4 -7
-3 -16 4 -21 7 -4 13 -22 13 -41 1 -19 3 -28 5 -21 3 6 9 10 14 7 5 -4 6 2 2
11 -5 13 -3 15 7 9 10 -6 12 -3 6 16 -8 26 -10 43 -21 139 -12 105 2 65 26
-74z"/>
<path d="M4385 7271 c-3 -6 1 -13 8 -18 16 -9 39 -76 62 -180 9 -40 21 -73 26
-73 20 0 169 102 169 116 0 20 -35 35 -74 30 -29 -4 -43 2 -75 27 -22 18 -45
42 -52 54 -16 29 -56 56 -64 44z"/>
<path d="M1060 6062 c0 -9 9 -34 19 -54 11 -19 18 -38 15 -40 -8 -9 85 -88
123 -104 21 -9 56 -25 78 -35 22 -9 60 -25 85 -35 25 -9 49 -21 55 -26 5 -4
126 -8 269 -8 298 0 290 -6 131 86 -55 32 -102 61 -105 65 -14 19 -96 50 -156
59 -65 10 -250 65 -321 95 -28 12 -33 12 -49 -6 -22 -24 -55 -24 -96 1 -41 25
-48 25 -48 2z"/>
<path d="M695 5641 c-41 -15 -51 -22 -53 -44 -2 -19 1 -27 12 -27 9 0 16 8 16
19 0 14 5 18 18 14 14 -3 18 -11 14 -29 -3 -18 -14 -26 -46 -34 -22 -6 -47
-13 -53 -15 -10 -3 -13 -42 -13 -148 0 -133 2 -147 23 -178 31 -46 110 -94
156 -94 25 0 54 11 88 33 82 53 87 64 91 234 l3 147 -43 11 c-24 6 -50 13 -59
16 -9 3 -19 16 -22 29 -3 20 1 27 19 31 35 9 29 18 -23 37 -57 20 -64 20 -128
-2z m190 -134 l30 -2 0 -142 c0 -83 -4 -139 -9 -135 -5 3 -7 -2 -3 -11 10 -27
-33 -44 -75 -28 -21 8 -23 14 -24 96 -1 64 2 88 12 92 13 5 47 63 37 63 -3 0
-16 -9 -30 -20 -31 -24 -43 -25 -43 -5 0 8 -4 15 -10 15 -5 0 -10 -7 -10 -15
0 -20 -12 -19 -43 5 -14 11 -27 20 -30 20 -11 0 24 -58 38 -64 11 -4 14 -22
13 -79 -1 -40 2 -78 5 -84 8 -13 -47 -34 -76 -30 -35 6 -39 23 -40 174 l-1
148 -6 -130 -6 -130 -2 132 -2 133 33 -6 c19 -3 27 -2 20 3 -11 8 112 8 222 0z"/>
<path d="M3143 5536 c-38 -17 -53 -43 -53 -89 0 -81 105 -120 164 -61 35 35
37 101 4 131 -31 28 -76 35 -115 19z m73 -14 c56 -37 38 -152 -25 -152 -55 0
-90 84 -57 135 16 25 58 34 82 17z"/>
<path d="M3530 5537 c-38 -19 -37 -51 5 -94 20 -20 34 -44 33 -52 -5 -23 -47
-26 -63 -4 -13 17 -14 17 -15 1 0 -28 -16 -21 -49 21 -27 34 -29 40 -16 51 18
15 20 51 3 68 -7 7 -32 12 -57 12 l-46 0 3 -81 c3 -60 0 -84 -10 -90 -8 -6 2
-8 27 -8 22 0 34 3 28 6 -7 2 -13 20 -13 39 0 45 22 45 49 0 26 -41 37 -46
107 -46 46 0 56 4 69 24 19 29 13 46 -34 90 -36 35 -38 42 -12 56 15 7 23 6
35 -6 14 -13 16 -13 16 -1 0 8 -7 18 -16 21 -19 7 -14 8 -44 -7z"/>
<path d="M2222 5462 c1 -43 -2 -84 -6 -90 -5 -8 4 -12 31 -12 31 1 35 3 21 11
-21 12 -25 69 -5 69 8 0 28 -18 46 -40 24 -30 39 -40 59 -39 15 1 20 3 11 6
-9 2 -30 21 -47 43 -27 33 -29 40 -17 50 18 15 20 51 3 68 -7 7 -31 12 -55 12
l-43 0 2 -78z"/>
<path d="M509 5310 c-9 -89 -1 -129 22 -114 5 3 9 0 9 -6 0 -7 -8 -9 -21 -5
-19 6 -20 5 -9 -15 8 -15 18 -20 31 -17 10 3 19 1 19 -4 0 -5 -10 -9 -22 -9
-20 0 -18 -3 12 -30 38 -34 35 -33 60 -20 13 7 21 7 25 0 3 -5 -3 -10 -14 -10
-12 0 -21 -4 -21 -10 0 -5 9 -10 20 -10 11 0 20 -4 20 -10 0 -5 9 -10 20 -10
11 0 20 -5 20 -11 0 -6 12 -10 28 -9 51 4 55 1 31 -21 l-24 -21 28 16 c25 15
29 15 55 0 l27 -16 -24 21 c-24 22 -20 25 32 21 15 -1 27 3 27 9 0 6 9 11 20
11 11 0 20 5 20 10 0 6 9 10 19 10 10 0 21 7 25 15 3 8 10 15 15 15 6 0 22 11
37 25 26 24 26 25 5 25 -11 0 -21 4 -21 9 0 5 9 7 19 4 13 -3 23 2 30 16 13
23 2 28 -17 9 -9 -9 -12 -8 -12 5 0 9 -3 17 -8 17 -12 0 -34 -59 -28 -75 3 -8
1 -15 -4 -15 -6 0 -10 7 -10 15 0 8 -4 15 -10 15 -5 0 -10 -4 -10 -10 0 -5 -7
-10 -15 -10 -9 0 -18 -7 -21 -15 -4 -8 -11 -12 -17 -8 -5 3 -15 0 -21 -8 -6
-8 -18 -14 -26 -14 -8 0 -19 -10 -25 -22 -16 -38 -58 -40 -68 -4 -5 19 -64 54
-77 46 -4 -3 -10 2 -14 10 -3 8 -12 15 -21 15 -8 0 -15 5 -15 10 0 6 -4 10
-10 10 -5 0 -10 -7 -10 -15 0 -8 -4 -15 -9 -15 -5 0 -7 8 -4 18 2 10 -3 31
-11 47 -9 17 -16 38 -16 49 0 15 -3 16 -14 7 -8 -7 -17 -8 -20 -3 -3 6 3 12
14 15 11 3 20 13 20 22 0 11 -5 15 -15 12 -8 -4 -17 -2 -20 3 -4 6 3 10 14 10
14 0 21 6 21 18 0 22 -39 24 -41 2z"/>
<path d="M2204 5250 c-60 -24 -72 -104 -24 -152 28 -27 36 -30 73 -25 68 9
106 75 81 142 -14 35 -83 54 -130 35z m81 -25 c32 -31 34 -96 5 -125 -51 -51
-121 11 -106 95 11 57 60 72 101 30z"/>
<path d="M2410 5233 c-52 -47 -42 -127 19 -153 68 -28 141 17 141 86 0 47 -35
84 -86 91 -35 4 -46 1 -74 -24z m90 7 c29 -15 44 -73 30 -114 -17 -52 -56 -61
-95 -21 -32 31 -34 96 -5 125 22 22 42 25 70 10z"/>
<path d="M2874 5250 c-59 -24 -72 -104 -25 -151 77 -76 195 12 155 116 -14 35
-83 54 -130 35z m81 -25 c32 -31 34 -96 5 -125 -51 -51 -121 11 -106 95 11 57
60 72 101 30z"/>
</g>
</svg>
