<?xml version="1.0" standalone="no"?>
<!DOCTYPE svg PUBLIC "-//W3C//DTD SVG 20010904//EN"
 "http://www.w3.org/TR/2001/REC-SVG-20010904/DTD/svg10.dtd">
<svg version="1.0" xmlns="http://www.w3.org/2000/svg"
 width="1080.000000pt" height="1080.000000pt" viewBox="0 0 1080.000000 1080.000000"
 preserveAspectRatio="xMidYMid meet">
<metadata>
Created by potrace 1.16, written by Peter Selinger 2001-2019
</metadata>
<g transform="translate(0.000000,1080.000000) scale(0.100000,-0.100000)"
fill="#000000" stroke="none">
<path d="M0 5400 l0 -5400 5400 0 5400 0 0 5400 0 5400 -5400 0 -5400 0 0
-5400z m5835 3175 c197 -74 360 -136 362 -138 2 -2 -27 -15 -64 -29 -38 -14
-202 -75 -365 -136 -164 -62 -302 -112 -308 -112 -6 0 -155 54 -331 120 -176
66 -322 120 -324 120 -3 0 -5 -64 -5 -142 l0 -142 -22 22 -22 22 -23 -28 -22
-27 -1 165 0 165 363 137 c199 75 372 137 383 137 12 1 183 -60 379 -134z
m-470 -433 l100 -35 175 66 c96 36 183 68 193 72 16 7 17 -3 17 -115 0 -67 -4
-130 -10 -140 -8 -16 -5 -19 23 -25 51 -11 428 -92 579 -125 75 -17 143 -30
152 -30 15 0 16 -80 14 -942 l-3 -943 -23 -57 c-71 -176 -263 -364 -542 -532
-167 -101 -429 -216 -527 -232 -51 -8 -179 35 -358 120 -387 185 -675 433
-759 655 -21 55 -21 66 -24 992 l-2 935 317 68 c175 38 342 74 371 80 53 12
53 12 33 30 -19 17 -21 31 -21 142 l0 123 98 -36 c53 -19 142 -51 197 -71z
m-1600 -500 c100 -51 164 -158 138 -230 -9 -22 -10 -22 -58 25 -28 27 -73 90
-102 141 -56 100 -55 103 22 64z m3508 -19 c-59 -104 -77 -130 -121 -175 -25
-26 -49 -45 -54 -42 -14 9 -8 78 11 119 10 22 31 52 47 67 27 25 119 77 137
78 4 0 -4 -21 -20 -47z m-3247 -215 c34 -101 17 -196 -43 -235 -21 -14 -22
-13 -31 29 l-10 43 -1 -43 c-1 -40 -3 -43 -23 -37 -53 16 -111 99 -132 188 -6
24 -3 27 17 27 37 0 90 -41 113 -87 l22 -43 4 68 c4 70 31 142 53 142 8 0 21
-24 31 -52z m3002 15 c11 -21 22 -55 26 -75 7 -40 -11 -165 -25 -174 -28 -17
-79 62 -79 125 0 38 38 161 50 161 5 0 18 -17 28 -37z m178 -56 c6 -17 -21
-94 -50 -138 -22 -33 -91 -77 -103 -66 -10 10 19 117 40 149 12 18 38 41 57
50 42 21 49 22 56 5z m-3118 -288 c2 -35 0 -79 -3 -97 -7 -36 -69 -112 -91
-112 -30 0 -30 123 1 196 17 41 61 87 78 81 7 -2 13 -29 15 -68z m2870 46 c39
-33 62 -102 62 -187 0 -37 -2 -68 -5 -68 -4 0 -19 7 -35 15 -34 18 -65 71 -75
132 -7 46 3 133 15 133 5 0 22 -11 38 -25z m-3061 -24 c39 -28 63 -90 63 -164
0 -37 -3 -67 -6 -67 -3 0 -19 8 -35 17 -40 24 -79 107 -86 184 -6 61 -6 61 18
54 13 -4 34 -15 46 -24z m3261 -38 c-6 -82 -36 -146 -81 -173 -28 -17 -32 -18
-40 -4 -13 24 1 116 26 166 14 27 35 49 57 60 19 10 37 18 39 18 2 0 2 -30 -1
-67z m-3270 -229 c28 -19 53 -67 63 -119 9 -45 1 -135 -12 -135 -5 0 -24 14
-44 31 -41 36 -65 105 -65 186 0 59 14 68 58 37z m216 -7 c7 -31 -9 -128 -28
-165 -32 -62 -116 -108 -116 -64 0 41 23 139 41 173 19 39 63 79 84 79 7 0 15
-10 19 -23z m2846 -3 c46 -39 72 -99 78 -176 4 -64 3 -68 -16 -68 -58 0 -122
117 -122 222 0 57 13 61 60 22z m215 -12 c7 -42 -7 -118 -30 -162 -15 -29 -72
-76 -81 -67 -12 12 -15 116 -4 156 12 47 67 111 93 111 10 0 18 -14 22 -38z
m-3262 -304 c28 -44 43 -127 33 -183 -8 -40 -7 -40 -46 -20 -43 22 -72 87 -78
172 -2 40 -2 79 2 88 5 15 8 15 35 -1 15 -9 40 -35 54 -56z m3286 0 c2 -74
-19 -137 -58 -179 -21 -21 -46 -39 -56 -39 -16 0 -17 9 -13 88 5 101 23 143
78 180 32 22 35 22 41 5 4 -10 8 -35 8 -55z m-3089 28 c0 -41 -19 -126 -36
-162 -17 -35 -76 -84 -103 -84 -11 0 -13 14 -9 69 6 81 41 151 91 182 42 25
57 24 57 -5z m2838 10 c63 -33 100 -99 109 -191 6 -61 5 -65 -15 -65 -29 0
-79 45 -104 94 -20 40 -39 176 -24 176 4 0 19 -6 34 -14z m-3101 -278 c49 -34
77 -98 81 -190 4 -85 1 -89 -48 -63 -39 20 -66 69 -80 143 -10 57 -6 132 8
132 3 0 21 -10 39 -22z m3373 -46 c0 -38 -7 -89 -16 -115 -17 -51 -72 -107
-106 -107 -20 0 -21 4 -15 76 7 91 37 159 86 191 19 13 38 23 42 23 5 0 9 -31
9 -68z m-3123 -5 c-11 -85 -35 -143 -78 -182 -21 -19 -49 -35 -60 -35 -20 0
-21 3 -15 63 13 115 75 207 140 207 17 0 18 -6 13 -53z m2871 39 c65 -34 102
-108 102 -206 0 -55 -1 -58 -22 -52 -65 17 -128 129 -128 229 0 47 7 50 48 29z
m-2877 -369 c-8 -50 -20 -84 -39 -111 -28 -40 -76 -75 -88 -64 -3 4 -6 40 -7
81 0 96 32 158 96 188 41 18 42 18 45 -2 2 -11 -1 -52 -7 -92z m2916 60 c38
-41 53 -84 54 -161 l1 -61 13 61 c25 117 88 204 148 204 51 0 -12 -221 -75
-262 -31 -21 -88 -33 -88 -19 0 6 -6 8 -14 5 -8 -3 -32 11 -55 31 -48 43 -71
108 -71 196 l0 58 28 -10 c16 -5 43 -24 59 -42z m-3166 20 c19 -12 44 -41 56
-63 26 -46 56 -155 51 -183 -3 -18 -6 -18 -43 -6 -76 26 -125 116 -125 227 0
56 10 60 61 25z m3124 -278 c35 -39 40 -59 35 -129 -3 -44 -39 -122 -54 -117
-6 2 -23 27 -38 56 -29 54 -37 134 -22 209 8 39 32 33 79 -19z m-2833 -14 c10
-66 -6 -150 -38 -198 -20 -30 -28 -36 -39 -27 -10 8 -13 7 -11 -7 1 -14 -8
-19 -38 -21 -52 -4 -90 13 -131 61 -52 61 -97 197 -65 197 23 0 87 -33 113
-58 15 -14 46 -54 68 -89 23 -35 42 -63 43 -63 2 0 -4 26 -12 58 -17 72 -4
131 39 174 41 42 62 34 71 -27z m3084 -32 c-4 -21 -21 -66 -37 -101 -40 -83
-92 -122 -160 -122 -26 0 -50 3 -53 8 -5 9 60 119 103 172 35 44 93 79 130 80
21 0 23 -3 17 -37z m-2972 -168 c46 -78 59 -130 47 -186 -5 -22 -11 -43 -14
-46 -19 -18 -107 81 -127 143 -7 20 -9 50 -6 69 6 32 40 85 54 85 4 0 24 -29
46 -65z m2596 59 c17 -4 27 -10 21 -13 -7 -5 -6 -20 4 -48 22 -63 -3 -128 -74
-198 -53 -50 -66 -40 -66 53 0 53 5 77 27 118 16 31 25 60 21 73 -6 23 8 26
67 15z m-2375 -241 c42 -55 68 -134 59 -180 -3 -18 -10 -35 -14 -38 -14 -9
-94 59 -127 108 -40 59 -49 112 -29 162 l16 37 30 -22 c17 -12 46 -42 65 -67z
m2195 61 c35 -90 -8 -185 -120 -267 -20 -14 -17 -14 10 2 53 29 155 61 197 61
47 0 126 -35 121 -52 -6 -17 -104 -76 -148 -88 -89 -25 -177 -2 -211 54 -24
40 -24 109 1 164 19 42 114 152 132 152 5 0 13 -12 18 -26z m-2571 -17 c45
-16 171 -96 171 -109 0 -20 -57 -42 -104 -42 -77 0 -190 65 -229 132 -16 29
-16 31 0 36 29 8 115 -1 162 -17z m2995 17 c26 -10 19 -27 -31 -76 -67 -65
-125 -93 -193 -93 -64 0 -118 28 -99 51 19 23 120 86 168 105 46 18 125 25
155 13z m-2369 -219 c48 -59 58 -83 59 -142 0 -57 -17 -89 -68 -127 -22 -17
-42 -21 -104 -21 -65 1 -88 6 -146 33 -60 28 -67 34 -55 48 44 54 151 68 258
35 l60 -19 -54 50 c-83 75 -109 144 -84 216 l11 32 45 -33 c25 -17 60 -50 78
-72z m1724 22 c1 -62 -25 -113 -85 -166 -26 -22 -45 -41 -43 -41 2 0 26 7 53
15 95 29 214 11 255 -38 12 -15 6 -20 -55 -49 -132 -60 -247 -48 -301 32 -58
85 -10 204 122 302 36 26 40 27 46 11 4 -10 8 -40 8 -66z m-2088 -23 c67 -20
151 -64 146 -78 -2 -5 -16 -19 -31 -30 -42 -32 -144 -29 -216 5 -74 35 -108
64 -94 79 16 16 83 39 115 40 14 0 50 -7 80 -16z m623 -135 c92 -102 80 -226
-27 -278 -55 -27 -126 -27 -208 -1 -91 28 -98 34 -74 60 53 58 151 75 265 46
52 -14 54 -14 30 2 -92 62 -139 133 -140 209 0 72 5 76 60 42 27 -17 69 -53
94 -80z m1225 36 c2 -66 -59 -156 -139 -204 -42 -25 -40 -25 24 -6 75 23 164
20 216 -8 24 -12 49 -32 57 -43 13 -20 11 -23 -44 -45 -46 -19 -76 -24 -144
-24 -78 0 -89 2 -122 28 -116 88 -82 237 78 339 59 37 60 37 67 15 3 -12 6
-35 7 -52z m-1039 -87 c96 -64 146 -146 138 -228 l-3 -38 108 -51 108 -50 104
51 103 52 -1 50 c-1 64 26 118 85 172 54 50 115 87 128 79 15 -9 12 -101 -5
-142 -19 -45 -35 -64 -100 -116 -27 -22 -41 -37 -30 -33 30 12 158 19 200 12
33 -7 115 -67 115 -86 0 -4 -29 -17 -65 -29 -119 -39 -233 -24 -289 37 l-18
21 -90 -45 -90 -45 89 -58 c49 -32 111 -79 138 -104 40 -39 46 -49 35 -62 -19
-23 -26 -19 -83 34 -29 27 -92 75 -141 106 l-88 58 -32 -18 c-75 -44 -144 -93
-198 -143 -56 -52 -88 -62 -88 -28 0 22 103 111 190 163 l79 47 -42 24 c-23
13 -64 35 -91 49 l-48 25 -32 -31 c-41 -39 -75 -51 -146 -51 -58 0 -190 34
-190 49 0 17 51 63 87 78 47 20 140 19 208 -1 47 -14 49 -14 25 2 -90 61 -160
156 -160 218 0 37 10 74 20 74 4 0 36 -19 70 -42z m-720 -1112 c0 -38 0 -38
-17 -18 -13 15 -33 22 -68 24 l-50 3 -3 -150 c-3 -179 -1 -192 36 -198 15 -2
-11 -4 -58 -4 -47 -1 -78 1 -69 4 25 6 29 33 29 200 l0 151 -57 -5 c-32 -3
-67 -13 -77 -22 -18 -15 -19 -15 -13 2 4 10 7 26 7 35 0 15 18 17 170 17 l170
0 0 -39z m183 31 c-21 -9 -23 -17 -23 -84 l0 -74 98 3 97 3 3 49 c4 66 -3 91
-30 103 -18 8 -6 10 56 10 73 0 78 -1 58 -15 -21 -14 -22 -21 -22 -176 0 -88
4 -166 8 -172 4 -7 18 -14 32 -17 14 -2 -13 -4 -60 -4 -47 -1 -78 1 -69 4 20
5 29 44 29 124 l0 59 -100 0 -101 0 3 -87 c3 -83 4 -87 28 -94 15 -4 -10 -7
-60 -7 -61 -1 -79 2 -62 8 22 9 22 11 20 182 -3 169 -3 173 -26 184 -19 9 -9
11 60 11 64 0 78 -2 61 -10z m596 -32 c0 -36 -1 -38 -11 -18 -11 23 -58 38
-95 31 -15 -3 -18 -14 -21 -72 l-3 -68 63 4 63 4 -4 -41 c-3 -36 -5 -38 -14
-17 -8 18 -18 22 -59 22 l-48 0 0 -57 c0 -97 4 -103 65 -103 43 0 56 4 69 23
13 17 16 18 12 4 -3 -10 -6 -27 -6 -38 0 -18 -8 -19 -122 -18 -68 0 -116 3
-108 6 27 11 30 26 30 190 l0 162 -26 14 c-24 12 -14 14 95 13 l121 -1 -1 -40z
m550 0 c0 -34 -2 -37 -9 -17 -7 16 -18 22 -42 22 -18 0 -43 3 -56 6 l-22 6 2
-173 3 -173 25 -7 c15 -4 -10 -7 -60 -7 -60 -1 -78 2 -62 8 22 9 22 12 22 178
l0 169 -57 -5 c-37 -2 -63 -10 -70 -20 -11 -13 -13 -13 -13 -1 0 8 3 23 6 34
5 19 13 20 169 20 l165 0 -1 -40z m288 18 c54 -40 55 -97 4 -156 l-30 -33 65
-77 c44 -52 75 -80 97 -86 30 -9 29 -9 -21 -10 -29 -1 -62 3 -72 9 -10 5 -41
41 -69 80 -40 55 -57 70 -77 70 -25 0 -25 -1 -22 -72 3 -67 5 -73 28 -79 15
-4 -8 -7 -55 -7 -44 0 -73 2 -64 5 9 2 19 18 23 35 8 43 7 301 -2 314 -4 6
-16 16 -27 22 -15 8 5 10 87 8 91 -2 112 -5 135 -23z m259 12 c-21 -16 -31
-116 -21 -220 6 -68 11 -83 35 -107 31 -30 71 -36 113 -17 44 20 51 45 55 191
l4 136 -28 15 c-27 14 -25 15 40 15 61 0 65 -2 46 -15 -18 -13 -20 -25 -20
-141 0 -141 -11 -178 -63 -216 -22 -16 -43 -21 -95 -21 -123 0 -152 46 -152
240 l0 124 -27 15 c-25 13 -22 14 51 13 64 0 76 -2 62 -12z m563 -10 c0 -11
-4 -29 -9 -40 -8 -19 -9 -19 -9 1 -1 24 -25 34 -78 34 l-33 0 0 -71 0 -71 60
4 60 3 -1 -40 c0 -39 0 -40 -16 -17 -12 17 -25 22 -60 22 l-44 0 3 -77 3 -78
56 -3 c49 -3 57 0 67 20 11 21 11 20 9 -12 l-2 -35 -125 -1 c-69 -1 -116 0
-104 3 19 4 22 13 27 114 8 158 0 245 -25 256 -13 5 24 9 101 8 114 0 121 -1
120 -20z m-2604 -596 c89 -25 135 -88 135 -184 0 -67 -24 -119 -74 -163 -41
-36 -83 -46 -165 -40 -104 7 -171 83 -171 193 0 66 17 110 58 148 54 51 135
68 217 46z m763 5 c18 -5 22 -13 22 -48 l0 -41 -20 33 c-16 26 -26 32 -54 32
-35 0 -66 -21 -66 -45 0 -28 13 -45 66 -86 82 -63 104 -122 69 -188 -22 -43
-57 -52 -182 -49 -126 3 -128 4 -196 101 -33 47 -45 57 -69 57 l-29 0 3 -67
c3 -61 6 -69 28 -80 22 -11 16 -13 -52 -13 l-78 0 20 20 c18 18 20 33 20 178
0 86 -4 162 -8 168 -4 7 -16 14 -27 17 -11 3 33 5 98 4 117 -2 119 -2 143 -30
34 -39 31 -84 -7 -136 l-30 -43 40 -51 c46 -60 89 -101 114 -110 15 -6 17 1
18 46 l0 52 19 -41 c25 -58 81 -73 120 -34 36 36 26 64 -51 138 -59 56 -71 74
-76 107 -10 81 71 134 165 109z m2490 0 c18 -5 22 -13 22 -48 -1 -35 -2 -38
-12 -21 -17 31 -39 45 -73 45 -37 0 -55 -16 -55 -48 0 -17 21 -44 71 -91 64
-60 71 -71 76 -113 5 -44 3 -50 -30 -83 -32 -32 -40 -35 -90 -35 -82 0 -87 4
-86 64 l1 51 12 -34 c23 -63 78 -80 122 -36 34 34 26 58 -39 119 -29 27 -60
61 -69 75 -20 29 -23 82 -7 112 20 38 97 59 157 43z m-4000 -14 c-15 -9 -13
-21 18 -127 19 -65 37 -125 40 -133 3 -8 27 41 53 110 26 69 50 134 54 145 11
26 14 19 78 -138 29 -70 53 -126 55 -125 4 5 74 245 74 256 0 6 -8 13 -17 15
-10 3 9 5 42 5 33 0 52 -2 43 -5 -19 -5 -28 -27 -96 -232 -27 -80 -53 -146
-58 -148 -5 -2 -22 30 -38 70 -17 39 -43 101 -59 137 l-29 65 -51 -134 c-29
-74 -57 -136 -62 -138 -6 -2 -37 77 -69 174 -36 111 -65 185 -78 196 -20 16
-18 17 48 17 49 -1 64 -3 52 -10z m1755 0 c-21 -8 -23 -16 -23 -80 l0 -70 100
0 100 0 0 63 c0 69 -6 82 -35 90 -11 2 18 5 65 5 47 0 76 -3 65 -5 -11 -3 -23
-10 -27 -17 -9 -13 -10 -291 -2 -323 3 -12 18 -26 33 -32 21 -7 9 -10 -56 -10
l-83 -1 20 20 c17 17 20 33 20 100 l0 80 -100 0 -101 0 3 -87 c3 -82 5 -88 28
-100 22 -11 15 -13 -60 -12 -62 0 -79 3 -62 9 22 9 22 11 20 187 l-3 177 -25
7 c-15 4 10 7 60 7 60 1 78 -2 63 -8z m501 3 c-27 -5 -34 -42 -33 -183 0 -146
8 -182 39 -191 15 -4 -9 -7 -60 -8 -79 -1 -83 0 -62 15 21 15 22 21 22 185 0
167 0 170 -22 179 -17 6 0 9 57 8 44 0 70 -3 59 -5z m342 -26 c57 -67 -3 -180
-93 -176 -23 1 -24 2 -6 6 39 7 66 52 60 98 -7 46 -47 88 -81 83 -20 -3 -21
-10 -24 -113 -2 -60 0 -138 3 -172 6 -55 9 -63 33 -72 22 -7 10 -10 -57 -10
-81 -1 -83 0 -62 17 21 16 22 24 19 187 l-3 169 -25 8 c-14 4 28 6 93 5 117
-2 119 -3 143 -30z m323 7 c26 -22 31 -33 31 -71 0 -38 -5 -50 -34 -79 -28
-28 -41 -34 -72 -33 -22 1 -30 3 -19 6 40 10 65 44 65 87 -1 44 -13 66 -47 84
-53 29 -54 26 -51 -160 l3 -172 25 -13 c22 -11 15 -13 -60 -12 -57 0 -78 3
-64 9 25 10 34 64 34 206 0 118 -7 153 -34 164 -14 6 17 9 86 9 100 1 108 0
137 -25z m331 -11 c0 -37 0 -37 -16 -15 -12 17 -25 22 -60 22 l-44 0 0 -70 0
-70 41 0 c22 0 50 5 61 11 18 10 20 9 15 -6 -4 -9 -7 -31 -7 -48 l0 -32 -13
25 c-10 20 -21 26 -55 28 l-43 3 3 -83 3 -83 34 -3 c50 -5 78 5 84 30 10 35
17 16 10 -25 l-6 -37 -119 0 c-116 0 -119 1 -99 18 21 16 22 24 19 187 l-3
169 -25 7 c-14 4 30 7 98 8 l122 1 0 -37z m334 8 c38 -36 36 -94 -5 -144 l-30
-37 57 -70 c31 -39 73 -80 93 -90 l36 -19 -42 -1 c-63 0 -89 17 -144 92 -42
58 -54 68 -79 68 -28 0 -30 -2 -30 -39 0 -65 11 -102 34 -111 14 -6 -5 -9 -59
-9 -58 0 -74 3 -57 9 22 9 22 11 20 187 l-3 177 -25 8 c-14 4 28 6 92 5 108
-2 118 -4 142 -26z m-927 -721 c88 180 79 184 113 -56 12 -87 27 -164 32 -171
5 -6 19 -14 31 -16 12 -2 -8 -5 -45 -6 -51 -1 -66 2 -62 12 4 12 -22 227 -29
234 -2 2 -31 -53 -65 -122 -34 -69 -64 -125 -67 -125 -3 0 -34 57 -68 127
l-62 126 -12 -84 c-18 -134 -17 -157 10 -162 12 -2 -7 -4 -43 -4 -36 -1 -57 1
-48 4 22 6 23 9 52 206 14 92 29 173 32 179 4 7 40 -56 82 -143 l74 -154 75
155z m-3629 98 c4 -42 -8 -50 -23 -16 -24 54 -115 46 -115 -10 0 -33 10 -47
72 -96 82 -65 98 -143 42 -199 -30 -30 -93 -43 -144 -30 -30 8 -35 14 -38 41
-2 17 1 40 7 49 9 16 10 16 11 -4 0 -53 86 -85 124 -47 34 33 20 72 -49 136
-94 87 -105 145 -39 197 23 18 39 21 88 19 l61 -3 3 -37z m427 31 c3 -3 2 -27
-1 -52 l-7 -47 -16 33 c-28 56 -135 73 -199 31 -55 -36 -70 -166 -29 -239 49
-88 173 -111 230 -43 l28 33 -7 -40 c-3 -22 -11 -44 -16 -50 -5 -5 -48 -10
-96 -10 -69 1 -95 5 -128 23 -117 61 -149 205 -67 303 46 55 94 70 205 67 53
-2 99 -6 103 -9z m197 -5 c-19 -13 -22 -24 -22 -85 l0 -69 100 0 100 0 0 74
c0 72 -1 75 -27 84 -23 8 -12 10 57 11 69 0 81 -2 62 -11 -22 -11 -22 -13 -20
-187 l3 -175 25 -7 c15 -4 -10 -7 -60 -7 -60 -1 -78 2 -62 8 21 9 22 15 22
100 l0 91 -97 -3 -98 -3 -3 -70 c-4 -93 2 -113 36 -118 15 -2 -13 -4 -63 -4
-49 0 -80 2 -69 4 15 3 24 14 28 35 8 43 7 301 -2 314 -4 6 -16 16 -27 22 -16
9 -5 11 60 12 75 0 78 -1 57 -16z m655 1 c50 -21 72 -42 94 -90 43 -93 6 -212
-79 -263 -61 -35 -156 -38 -217 -6 -139 72 -133 290 10 355 50 23 142 25 192
4z m470 4 c34 -13 80 -55 99 -91 20 -38 17 -135 -5 -184 -55 -120 -228 -151
-331 -58 -48 43 -64 88 -58 164 8 113 84 180 205 180 34 0 74 -5 90 -11z m316
-1 c-29 -14 -33 -34 -32 -173 1 -170 1 -170 74 -170 53 0 61 3 72 25 l13 25 0
-27 c0 -57 -1 -58 -139 -57 -69 1 -118 3 -109 6 26 7 29 31 26 203 -3 153 -3
155 -28 167 -22 11 -15 13 60 12 67 0 80 -3 63 -11z m634 -9 c116 -56 128
-251 21 -332 -109 -82 -260 -51 -319 66 -30 57 -23 149 13 204 53 80 187 109
285 62z m403 -14 c0 -19 -4 -35 -10 -35 -5 0 -10 6 -10 14 0 18 -22 26 -71 26
l-39 0 0 -71 0 -71 61 4 c57 4 60 3 55 -16 -3 -12 -6 -30 -6 -41 -1 -18 -2
-18 -10 3 -8 18 -17 22 -55 22 l-46 0 3 -87 c3 -83 4 -87 28 -94 15 -4 -11 -7
-60 -7 -47 0 -78 2 -70 5 27 11 30 26 30 190 l0 162 -27 15 c-26 14 -19 15
100 16 l127 0 0 -35z m892 23 c-22 -11 -22 -13 -20 -187 l3 -175 25 -7 c15 -4
-10 -7 -60 -7 -60 -1 -78 2 -62 8 22 9 22 12 22 183 0 170 0 174 -22 185 -19
9 -8 11 57 11 65 0 76 -2 57 -11z m294 -135 c80 -82 143 -140 140 -130 -3 10
-6 70 -6 132 l0 114 -27 15 c-27 15 -26 15 42 16 66 0 68 -1 47 -16 -21 -15
-22 -21 -22 -194 0 -98 -4 -181 -9 -184 -4 -3 -72 59 -150 139 l-141 144 0
-109 c0 -123 9 -157 42 -163 13 -2 -11 -5 -52 -5 -54 -1 -69 2 -52 8 21 9 22
15 22 118 0 108 10 262 16 262 2 0 70 -66 150 -147z m416 131 c-21 -15 -22
-21 -22 -177 0 -89 4 -167 8 -173 4 -7 18 -14 32 -17 14 -2 -15 -4 -65 -4 -49
-1 -81 2 -70 4 11 3 23 10 27 17 4 6 8 84 8 173 0 156 -1 162 -22 177 -21 15
-18 16 52 16 70 0 73 -1 52 -16z m313 4 c2 -7 0 -29 -4 -48 -6 -23 -9 -28 -10
-13 -1 26 -36 53 -68 53 -33 0 -66 -36 -57 -63 3 -12 33 -47 66 -76 34 -30 67
-70 74 -87 38 -91 -56 -175 -165 -148 -34 9 -36 11 -39 57 -2 28 1 47 7 47 6
0 11 -8 11 -18 0 -35 29 -62 67 -62 44 0 73 24 73 60 0 20 -17 43 -69 92 -75
72 -92 108 -71 159 7 16 25 36 39 44 33 18 140 20 146 3z m405 -18 c0 -14 -5
-32 -10 -40 -8 -13 -10 -13 -10 2 0 22 -7 26 -68 34 l-52 7 2 -174 3 -173 25
-7 c15 -4 -10 -7 -60 -7 -60 -1 -78 2 -62 8 22 9 22 12 22 180 l0 171 -57 -7
c-34 -4 -63 -13 -70 -23 -11 -14 -12 -14 -13 -1 0 8 3 24 6 35 5 19 13 20 175
20 l169 0 0 -25z m258 14 c40 -15 62 -47 62 -87 0 -20 -15 -48 -51 -98 -10
-14 -3 -28 45 -87 54 -64 75 -82 116 -95 8 -3 -10 -6 -41 -6 -54 -1 -58 1 -95
42 -22 23 -50 59 -64 79 -19 28 -32 38 -52 38 -28 0 -28 -1 -28 -62 0 -70 6
-83 35 -91 11 -2 -16 -5 -60 -5 -44 0 -73 2 -65 5 27 11 30 26 30 190 l0 162
-27 15 c-27 14 -23 15 64 16 61 0 106 -5 131 -16z m224 3 c-9 -10 0 -34 37
-96 l48 -83 43 77 c36 65 41 81 31 96 -10 18 -7 19 50 19 l62 0 -33 -22 c-20
-14 -53 -57 -82 -108 -48 -84 -49 -86 -46 -165 3 -75 4 -80 28 -86 15 -4 -10
-7 -60 -7 -60 -1 -78 2 -62 8 20 9 22 16 22 83 0 71 -2 77 -50 158 -28 46 -65
96 -82 112 l-32 27 68 0 c55 0 66 -3 58 -13z"/>
<path d="M4935 7809 c-247 -54 -451 -98 -453 -98 -1 -1 -1 -396 0 -878 l3
-878 22 -55 c27 -66 130 -197 207 -263 47 -41 62 -48 91 -45 l34 3 -82 70
c-95 82 -179 188 -207 263 -19 51 -20 79 -20 901 l0 848 98 21 c306 68 846
182 863 182 10 0 112 -20 226 -45 265 -58 391 -86 581 -127 l152 -33 0 -851
c0 -718 -2 -858 -14 -893 -24 -67 -89 -153 -181 -238 -84 -79 -85 -81 -58 -86
25 -5 39 5 124 92 77 78 105 115 135 177 l39 79 3 880 2 880 -182 38 c-101 21
-308 65 -462 98 -384 81 -350 83 -921 -42z"/>
<path d="M5025 7733 c-242 -52 -441 -96 -442 -97 -1 0 -3 -375 -4 -831 -2
-828 -2 -830 19 -878 39 -88 136 -195 263 -290 45 -34 120 -37 201 -9 37 13
70 19 92 15 28 -4 39 -1 61 21 14 14 29 26 34 26 4 0 22 11 41 25 19 14 44 25
57 25 16 0 23 6 23 20 0 11 -6 20 -14 20 -9 0 -16 17 -21 46 -5 36 -12 47 -33
57 -15 6 -28 12 -30 13 -1 1 6 23 16 50 11 27 27 93 36 148 18 103 15 119 -24
131 -16 5 -16 10 -4 62 12 54 12 59 -7 79 -19 21 -19 21 7 140 17 78 27 153
28 218 l1 100 -95 53 c-170 97 -185 114 -172 196 l9 54 -48 39 c-51 42 -85 89
-70 98 17 11 122 -43 138 -72 16 -28 164 -132 216 -151 16 -6 51 -11 78 -11
l49 0 0 69 c0 85 22 121 75 121 61 0 90 -57 78 -149 l-6 -41 60 0 c54 0 68 5
140 48 99 60 133 86 147 114 6 13 25 29 41 37 17 8 42 21 58 28 67 34 48 -27
-28 -91 l-47 -39 7 -62 6 -63 -38 -32 c-22 -18 -84 -59 -139 -91 l-99 -57 1
-89 c1 -52 12 -141 28 -217 27 -128 27 -129 7 -150 -18 -20 -19 -25 -6 -78 12
-53 12 -58 -5 -63 -38 -12 -41 -27 -20 -138 10 -58 26 -122 34 -142 21 -49 20
-52 -9 -59 -17 -4 -27 -17 -34 -44 -6 -20 -11 -43 -11 -49 0 -7 -7 -13 -15
-13 -8 0 -15 -9 -15 -19 0 -11 -2 -25 -5 -33 -4 -10 8 -13 49 -13 48 0 59 -4
88 -32 23 -23 44 -33 65 -33 17 0 50 -7 73 -15 23 -8 74 -15 113 -15 67 0 73
2 124 42 78 60 194 187 223 244 l25 49 5 835 c3 459 3 838 0 842 -5 7 -63 20
-573 128 -181 39 -336 70 -345 69 -9 0 -215 -43 -457 -96z"/>
<path d="M5483 5792 c-29 -4 -36 -41 -21 -112 12 -59 13 -60 45 -60 28 0 33 4
33 23 0 12 6 31 14 42 9 14 12 33 7 59 -6 42 -30 56 -78 48z"/>
<path d="M5920 3765 c0 -94 8 -107 59 -89 79 28 54 174 -31 174 l-28 0 0 -85z"/>
<path d="M4114 3221 c-78 -48 -71 -235 11 -299 59 -47 136 -37 178 22 29 41
31 162 3 218 -35 72 -126 100 -192 59z"/>
<path d="M4577 3234 c-4 -4 -7 -45 -7 -91 l0 -83 40 0 c34 0 42 4 55 30 21 42
19 85 -7 114 -24 26 -68 43 -81 30z"/>
<path d="M6972 3232 c-9 -6 -12 -31 -10 -88 l3 -79 37 -3 c46 -4 68 24 68 85
0 41 -25 83 -49 83 -5 0 -15 2 -23 5 -7 3 -19 1 -26 -3z"/>
<path d="M3662 2614 c-46 -24 -65 -66 -65 -144 0 -115 59 -190 150 -190 106 0
159 146 96 266 -37 73 -115 102 -181 68z"/>
<path d="M4132 2610 c-84 -52 -85 -219 -2 -294 32 -29 48 -36 81 -36 85 0 129
56 129 163 0 134 -115 226 -208 167z"/>
<path d="M5062 2610 c-81 -50 -85 -215 -6 -291 38 -37 109 -50 151 -28 63 34
85 174 40 253 -44 78 -122 106 -185 66z"/>
<path d="M8120 2535 c0 -82 1 -85 25 -91 58 -14 102 60 75 127 -14 34 -37 49
-74 49 -26 0 -26 0 -26 -85z"/>
</g>
</svg>
