<?xml version="1.0" standalone="no"?>
<!DOCTYPE svg PUBLIC "-//W3C//DTD SVG 20010904//EN"
 "http://www.w3.org/TR/2001/REC-SVG-20010904/DTD/svg10.dtd">
<svg version="1.0" xmlns="http://www.w3.org/2000/svg"
 width="1080.000000pt" height="1080.000000pt" viewBox="0 0 1080.000000 1080.000000"
 preserveAspectRatio="xMidYMid meet">
<metadata>
Created by potrace 1.16, written by Peter Selinger 2001-2019
</metadata>
<g transform="translate(0.000000,1080.000000) scale(0.100000,-0.100000)"
fill="#000000" stroke="none">
<path d="M0 5400 l0 -5400 4075 0 4075 0 0 1040 0 1040 365 0 c339 0 366 -1
372 -18 13 -31 8 -93 -7 -102 -8 -5 -11 -10 -6 -10 6 0 1 -6 -9 -14 -11 -8
-24 -12 -29 -8 -5 3 -7 -2 -3 -10 3 -9 0 -21 -6 -27 -9 -9 -8 -11 7 -5 16 6
17 4 7 -14 -13 -25 -14 -45 -2 -37 6 3 6 -7 0 -27 -12 -43 -62 -585 -56 -615
2 -12 1 -20 -3 -18 -4 3 -11 -23 -14 -58 -5 -38 -10 -56 -15 -47 -4 8 -36 106
-71 217 -35 112 -65 201 -67 200 -1 -2 -3 -307 -4 -678 0 -371 -4 -665 -9
-654 -6 15 -9 5 -15 -38 -5 -41 -4 -62 4 -70 9 -9 11 -8 6 4 -3 8 -1 26 4 40
8 20 10 14 10 -33 l1 -58 235 0 c129 0 235 4 235 8 0 5 -20 71 -44 148 -43
137 -64 210 -72 249 -6 31 7 115 21 128 6 7 10 18 8 24 -3 7 1 21 7 32 8 16 8
21 -2 21 -8 0 -9 3 -3 8 6 4 12 23 14 42 1 19 7 40 13 47 5 7 7 17 3 23 -4 6
-2 17 4 24 6 6 10 38 10 69 -1 32 3 63 9 70 15 20 37 133 37 199 0 25 3 44 8
41 4 -2 7 20 8 49 0 43 16 113 18 86 1 -4 17 -65 37 -135 72 -259 104 -374
104 -379 0 -3 -5 -2 -11 2 -6 3 -3 -5 6 -20 10 -14 25 -26 34 -26 14 0 14 2 1
10 -12 8 -12 10 -1 10 8 0 12 3 9 6 -4 3 5 47 18 97 23 86 46 167 205 717 33
113 80 278 106 367 l46 163 79 0 c68 0 78 -2 78 -17 0 -15 2 -16 10 -3 5 8 10
11 10 5 0 -5 -9 -21 -20 -35 -21 -26 -26 -45 -11 -35 6 3 14 -3 20 -12 6 -10
11 -13 11 -6 0 14 60 36 60 22 0 -5 -6 -9 -13 -9 -8 0 -25 -9 -38 -21 -22 -19
-24 -19 -38 -2 -11 14 -13 15 -8 2 3 -9 0 -22 -6 -29 -10 -10 -7 -12 11 -7 21
5 32 -8 12 -15 -6 -2 -12 -13 -14 -25 -3 -15 -1 -20 9 -17 8 3 11 12 8 20 -3
8 0 14 5 14 11 0 10 -20 -4 -55 -7 -18 -6 -19 11 -5 10 8 16 11 13 5 -3 -5 -2
-19 3 -30 6 -15 8 -16 8 -4 1 9 8 20 17 23 26 10 29 7 8 -8 -10 -8 -15 -18
-11 -22 4 -4 -3 -14 -15 -21 -23 -13 -22 -13 4 -7 19 4 28 2 28 -6 0 -7 -6
-10 -13 -7 -8 3 -20 1 -28 -4 -11 -7 -11 -9 4 -9 9 0 17 -5 17 -11 0 -6 9 -8
20 -4 20 6 25 -4 21 -47 -1 -9 2 -19 6 -21 5 -3 9 2 10 11 1 9 4 27 8 39 5 16
2 23 -13 27 -30 10 -34 63 -8 88 19 18 21 18 25 2 2 -10 -4 -23 -13 -29 -21
-16 -21 -29 0 -21 14 5 15 4 4 -9 -7 -9 -10 -18 -6 -22 17 -18 25 27 29 172 2
40 -1 50 -15 53 -22 4 -23 -11 -3 -31 11 -11 11 -17 3 -19 -7 -3 -12 -22 -13
-43 0 -43 -12 -52 -40 -30 -19 14 -19 14 4 15 13 0 22 3 18 6 -3 3 -2 17 3 30
7 18 5 26 -7 32 -11 6 -12 11 -4 16 6 4 11 18 11 32 0 13 5 24 10 24 6 0 10
-4 10 -9 0 -5 7 -11 15 -15 26 -10 16 9 -15 27 -22 14 -30 15 -31 5 0 -7 -4
-2 -10 10 -12 31 -2 47 19 30 12 -10 14 -10 8 0 -4 7 -1 12 9 12 9 0 13 -4 10
-10 -3 -5 -1 -10 5 -10 7 0 10 -6 7 -14 -3 -8 0 -17 8 -19 13 -6 15 16 2 29
-20 21 12 24 218 24 l225 0 0 -326 c0 -317 -1 -326 -19 -321 -14 3 -18 1 -14
-9 6 -16 -13 -19 -22 -4 -8 13 -75 10 -92 -3 -18 -13 -16 -72 2 -107 19 -36
84 -58 122 -41 l23 11 0 -307 c0 -194 -4 -303 -9 -297 -14 13 -109 293 -141
412 -6 23 -14 41 -18 38 -4 -2 -7 12 -7 32 -1 21 -5 46 -10 57 -11 26 -12 31
-14 57 -2 32 -11 16 -15 -26 -1 -20 1 -39 6 -42 5 -3 3 -13 -4 -22 -11 -13
-11 -15 2 -7 12 6 13 5 3 -5 -8 -9 -9 -19 -2 -31 5 -10 7 -30 5 -44 -3 -14 0
-25 6 -25 6 0 6 -6 -2 -15 -8 -9 -9 -15 -2 -15 11 0 9 -31 -3 -49 -3 -5 0 -13
6 -17 8 -5 9 -3 4 6 -5 9 -4 11 3 6 8 -4 8 -15 2 -31 -6 -15 -6 -27 0 -30 11
-7 9 -33 -4 -54 -7 -11 -5 -13 8 -8 12 5 15 3 9 -6 -11 -16 -10 -167 0 -160 5
3 7 -14 6 -38 -2 -28 -9 -47 -19 -51 -11 -5 -9 -7 7 -7 12 -1 25 -6 29 -13 4
-6 3 -8 -2 -5 -6 3 -11 -20 -12 -56 0 -34 -2 -73 -3 -87 -1 -14 1 -36 5 -49 5
-13 4 -21 0 -18 -5 3 -9 -8 -9 -23 0 -15 4 -26 9 -22 5 3 7 -5 4 -16 -4 -12
-2 -24 3 -27 4 -3 6 -12 3 -20 -4 -8 -9 -13 -13 -10 -11 6 -6 -27 7 -52 10
-18 9 -22 -6 -26 -16 -4 -16 -5 1 -6 15 -1 16 -8 11 -53 -3 -29 -7 -58 -9 -65
-2 -7 1 -15 7 -19 6 -4 8 -3 5 3 -4 6 0 14 9 17 14 5 16 1 11 -23 l-6 -30 264
-1 265 -1 0 5401 0 5400 -305 0 -305 0 0 -155 0 -155 -330 0 -329 0 -3 -92
c-2 -70 -6 -92 -16 -90 -7 1 -23 -4 -35 -13 -12 -8 -16 -15 -10 -15 7 0 15 5
18 10 3 6 11 10 17 10 6 0 6 -6 -2 -15 -7 -9 -10 -18 -6 -22 3 -3 6 -1 6 5 0
7 8 12 17 12 15 0 14 -2 -4 -15 -14 -10 -19 -22 -16 -35 4 -14 0 -20 -11 -20
-9 0 -16 4 -16 8 0 4 -9 8 -20 8 -11 0 -20 -6 -20 -13 0 -9 -8 -11 -23 -8 -28
7 -97 -19 -74 -28 9 -3 18 -3 20 1 2 4 2 2 1 -5 -2 -7 7 -10 24 -8 16 2 26 8
24 16 -1 8 7 3 19 -11 12 -15 19 -18 16 -9 -5 14 -1 16 21 10 15 -4 27 -14 27
-22 0 -8 4 -19 8 -25 4 -7 0 -17 -9 -24 -12 -11 -12 -15 -2 -21 9 -6 9 -9 1
-9 -21 0 -27 23 -9 36 16 11 16 13 -5 27 -11 9 -30 14 -40 12 -11 -2 -17 0
-14 6 4 5 1 9 -4 9 -6 0 -11 -6 -11 -12 0 -10 -3 -9 -9 1 -5 7 -14 10 -20 6
-7 -4 -19 -1 -28 7 -14 11 -16 11 -11 -3 5 -13 2 -16 -15 -12 -20 4 -20 3 -5
-7 10 -6 18 -16 18 -22 0 -7 -4 -7 -13 1 -8 6 -17 8 -20 4 -4 -3 -7 3 -7 15 0
13 6 22 15 22 13 0 13 3 3 20 -11 17 -10 22 1 29 9 6 10 11 2 15 -6 4 -9 12
-6 17 3 5 -1 6 -9 3 -19 -7 -21 -24 -4 -24 6 0 9 -3 6 -6 -4 -3 -16 -1 -27 5
-17 10 -24 7 -43 -14 -22 -26 -44 -34 -33 -12 4 6 -1 3 -10 -8 -9 -11 -25 -19
-35 -17 -11 2 -27 -1 -35 -5 -13 -8 -13 -11 -1 -28 14 -19 14 -19 13 -1 -1 10
4 21 12 24 10 3 11 -2 6 -19 -4 -16 -3 -20 3 -11 5 8 13 13 18 13 5 -1 9 4 9
10 0 13 55 37 72 32 16 -6 5 -33 -14 -33 -8 0 -11 5 -7 12 4 7 3 8 -4 4 -14
-8 -16 -42 -3 -50 5 -3 12 1 15 10 5 12 10 14 20 5 7 -6 16 -8 19 -4 4 3 7 2
7 -4 0 -6 -7 -14 -16 -17 -8 -3 -12 -2 -9 4 3 6 2 10 -4 10 -5 0 -12 -4 -15
-9 -3 -5 -19 -8 -36 -7 -21 2 -27 -1 -19 -10 6 -8 5 -14 -7 -18 -21 -8 -26 -8
-20 2 9 14 -29 31 -45 20 -11 -8 -10 -9 4 -4 11 3 17 0 17 -9 0 -8 -4 -14 -9
-13 -5 2 -9 -1 -9 -7 -1 -5 6 -9 14 -7 22 4 17 -16 -11 -44 -22 -22 -28 -24
-42 -12 -15 11 -16 11 -10 -4 4 -13 1 -18 -10 -18 -9 0 -13 3 -10 7 4 3 1 13
-6 21 -10 13 -9 14 3 7 13 -7 13 -6 2 7 -7 8 -12 28 -11 44 1 16 1 118 0 227
l-1 197 -336 0 -336 0 7 155 7 155 -4186 0 -4186 0 0 -5400z m9518 3600 c9 0
12 -26 12 -95 l0 -95 -250 1 c-137 1 -250 5 -250 9 0 4 11 15 25 24 14 9 25
13 25 9 0 -13 77 -8 94 6 9 7 22 11 30 8 18 -7 31 24 14 35 -12 7 -4 12 15 9
6 -1 11 14 9 30 -1 4 9 5 21 3 12 -2 17 -2 11 1 -7 3 -10 15 -7 25 6 24 51 27
59 5 4 -8 10 -12 15 -9 5 3 9 -2 9 -10 0 -8 6 -13 13 -11 6 3 26 7 43 9 28 3
31 1 26 -18 -5 -20 -5 -20 19 -5 23 16 43 59 20 45 -7 -5 -11 1 -11 15 0 17 4
20 23 15 12 -3 28 -6 35 -6z m-1257 -318 c-6 -11 -6 -24 -1 -32 6 -9 5 -17 -3
-22 -8 -5 -6 -8 7 -8 17 0 18 -2 4 -17 -9 -10 -13 -24 -10 -32 2 -7 -2 -17 -9
-22 -11 -7 -11 -9 3 -9 20 0 32 -32 23 -60 -4 -12 -2 -20 5 -20 6 0 8 5 4 12
-4 7 -3 8 4 4 6 -4 9 -13 5 -21 -3 -8 -1 -15 5 -15 5 0 8 -10 5 -22 -2 -13 5
-33 15 -46 l18 -23 2 25 c1 14 -3 28 -8 31 -6 3 -10 12 -10 18 0 8 3 8 9 -1 6
-10 11 -9 22 4 8 10 9 15 2 11 -14 -9 -14 32 0 51 12 15 3 15 -26 1 -21 -10
-21 -9 -3 5 15 12 19 30 21 93 3 93 10 115 38 111 17 -2 23 -15 34 -73 8 -38
12 -80 10 -92 -2 -12 0 -20 4 -17 5 3 9 -6 9 -20 0 -14 -5 -28 -10 -31 -6 -4
-7 -11 -4 -17 4 -6 -3 -5 -16 2 -20 11 -21 10 -10 -9 8 -16 8 -21 -1 -21 -7 0
-9 -3 -5 -7 3 -4 -2 -12 -13 -18 -15 -7 -18 -14 -11 -25 8 -13 10 -12 10 3 0
10 4 16 9 13 5 -3 7 -15 4 -26 -5 -19 -7 -19 -23 -5 -22 20 -30 19 -25 -4 3
-15 -1 -19 -17 -16 -16 3 -18 1 -8 -10 6 -7 13 -28 15 -45 3 -18 9 -38 15 -45
8 -9 8 -15 0 -20 -7 -4 -7 -12 0 -26 6 -10 12 -40 14 -65 3 -51 20 -77 29 -45
3 12 2 19 -3 16 -4 -3 -10 4 -13 15 -7 28 7 25 23 -5 7 -13 16 -23 20 -20 3 2
11 -5 18 -15 10 -16 9 -18 -5 -13 -12 5 -14 3 -8 -7 6 -10 4 -12 -8 -7 -10 3
-17 2 -17 -3 0 -6 -5 -10 -11 -10 -5 0 -7 5 -4 10 3 6 1 10 -4 10 -16 0 -14
-10 9 -53 11 -20 17 -37 13 -37 -5 0 0 -5 10 -11 9 -5 17 -19 17 -29 0 -13 10
-22 33 -28 17 -5 31 -14 30 -20 -2 -6 3 -9 10 -6 8 3 13 -4 14 -17 1 -13 7
-35 14 -51 9 -23 9 -32 -1 -41 -10 -9 -11 -9 -6 0 4 8 -2 7 -21 -2 -15 -8 -36
-15 -45 -15 -10 0 -18 -5 -18 -11 0 -5 -4 -8 -9 -5 -26 16 14 -120 47 -156 8
-10 12 -18 8 -18 -4 0 -1 -6 6 -14 7 -8 16 -12 20 -10 4 2 10 -5 13 -17 5 -16
9 -18 15 -9 6 10 15 8 39 -9 35 -25 32 -46 -6 -36 -19 4 -23 3 -17 -7 6 -10 4
-10 -9 0 -15 12 -16 10 -11 -30 2 -23 11 -60 19 -81 17 -43 20 -81 5 -72 -5 3
-10 -1 -10 -9 0 -9 5 -16 11 -16 8 0 8 -4 2 -12 -19 -24 14 -145 65 -235 36
-64 51 -57 40 20 -10 68 -1 179 12 157 4 -7 6 -20 2 -28 -3 -10 -1 -13 6 -8 6
3 14 1 18 -5 4 -7 3 -9 -4 -5 -7 4 -9 -3 -7 -21 2 -16 4 -31 4 -35 1 -4 8 -5
16 -2 8 4 12 10 9 15 -3 5 7 26 21 46 28 42 32 84 10 106 -12 13 -12 16 0 20
7 3 19 16 25 28 8 15 9 19 1 15 -6 -4 -11 -2 -11 3 0 6 5 11 12 11 6 0 8 3 5
7 -4 3 -18 -4 -32 -17 -31 -29 -31 -30 0 122 13 68 34 178 45 245 26 158 56
302 63 310 4 3 17 -2 31 -10 24 -16 25 -15 45 18 23 40 75 75 109 75 30 0 75
-26 92 -53 7 -12 17 -49 21 -82 12 -92 20 -125 31 -125 5 0 6 -5 3 -10 -4 -6
-1 -17 5 -25 9 -11 9 -28 0 -72 -7 -32 -16 -60 -20 -63 -13 -9 -22 -50 -10
-50 8 0 8 -6 -1 -21 -9 -17 -17 -20 -45 -16 -29 5 -34 3 -34 -14 0 -24 22 -49
44 -49 8 0 18 -5 22 -12 5 -7 3 -8 -6 -3 -10 6 -12 4 -7 -8 4 -10 2 -17 -5
-17 -7 0 -6 -5 2 -15 13 -15 6 -33 -21 -52 -14 -11 -15 -19 -7 -51 10 -39 6
-59 -89 -574 -27 -146 -27 -148 -53 -148 -37 0 -41 8 -26 44 7 17 13 51 14 76
3 59 19 150 37 200 17 49 5 52 -21 5 -10 -19 -21 -35 -25 -35 -3 0 -4 -22 -1
-49 5 -53 -32 -220 -52 -233 -14 -9 -103 -10 -174 -1 -44 5 -52 9 -47 24 3 9
0 21 -6 25 -9 5 -10 2 -6 -10 8 -20 -42 -45 -53 -26 -5 7 -11 6 -19 -4 -10
-12 -34 -14 -114 -13 l-101 2 -7 30 c-4 17 -23 102 -44 190 -82 353 -87 378
-73 387 7 4 19 6 26 3 11 -4 17 8 13 28 -1 5 3 6 9 2 5 -3 13 1 16 9 3 9 11
13 17 9 6 -4 8 0 4 10 -4 11 -2 14 8 10 8 -3 12 -9 9 -14 -3 -5 0 -9 5 -9 6 0
11 6 12 13 0 10 2 10 6 0 2 -7 13 -13 24 -13 10 0 19 -4 19 -10 0 -5 9 -10 20
-10 11 0 20 -7 20 -15 0 -8 5 -15 10 -15 6 0 10 -12 11 -27 l1 -28 13 30 c12
25 21 21 16 -7 0 -5 3 -8 8 -8 5 0 12 -8 15 -17 16 -51 -9 111 -35 227 -33
147 -49 200 -61 200 -4 0 -5 7 -2 15 4 8 1 15 -6 15 -6 0 -9 4 -5 9 8 14 -30
32 -49 25 -12 -5 -15 -2 -10 10 4 12 0 16 -15 16 -12 0 -21 6 -21 14 0 9 -7
12 -19 9 -13 -3 -21 2 -25 15 -5 14 -14 19 -36 17 -16 -1 -27 1 -24 6 5 8 -10
13 -30 10 -4 -1 -14 6 -21 16 -10 13 -16 15 -27 6 -32 -27 -37 -13 -128 382
-18 77 -45 194 -61 260 -16 66 -37 159 -48 208 l-19 87 189 0 c180 0 189 -1
180 -18z m1294 -4 c11 -48 35 -184 35 -198 0 -12 -2 -12 -9 -1 -10 16 -47 7
-55 -14 -3 -8 -2 -15 2 -16 43 -5 50 -4 46 3 -3 4 -1 8 5 8 11 0 25 -19 18
-26 -8 -8 -76 -10 -71 -2 3 4 0 8 -5 8 -6 0 -11 -5 -11 -11 0 -5 -4 -7 -10 -4
-5 3 -10 -1 -10 -9 0 -9 -6 -13 -14 -10 -7 3 -21 -2 -30 -11 -9 -9 -16 -13
-16 -8 0 4 -4 2 -9 -6 -5 -8 -16 -11 -30 -6 -12 3 -19 11 -15 16 3 5 2 9 -3 8
-4 -1 -16 1 -27 6 -11 5 -21 3 -26 -5 -4 -7 -15 -10 -24 -7 -14 6 -15 3 -6
-13 9 -16 7 -20 -7 -21 -16 0 -16 -1 2 -9 13 -5 4 -7 -27 -5 -28 2 -48 0 -48
-6 0 -6 -5 -7 -12 -3 -7 5 -8 3 -4 -5 5 -7 15 -10 23 -7 8 3 11 1 8 -4 -8 -13
-89 -4 -93 10 -5 13 -22 13 -22 0 0 -19 -35 -45 -56 -42 -16 2 -20 8 -17 22 4
16 9 18 25 9 15 -8 23 -8 32 2 8 9 7 11 -5 6 -9 -3 -21 -1 -26 4 -6 6 -20 6
-39 -1 -16 -6 -26 -8 -22 -4 12 11 -22 36 -42 31 -11 -3 -18 -1 -14 4 3 5 0 9
-6 9 -22 0 -3 25 19 26 32 2 39 14 8 14 -15 0 -27 3 -27 8 0 4 12 69 26 145
l27 137 278 0 279 0 5 -22z m706 13 c-9 -6 -4 -10 17 -13 22 -3 29 -1 25 9 -6
16 23 17 33 1 4 -6 3 -8 -3 -5 -6 4 -13 0 -17 -8 -3 -8 -1 -17 4 -20 14 -8 13
-42 -1 -51 -8 -4 -9 1 -4 16 5 15 4 20 -4 16 -7 -5 -9 -1 -5 8 7 18 -11 22
-22 5 -4 -8 -9 -7 -15 2 -6 10 -9 10 -9 2 0 -6 5 -15 10 -18 6 -4 8 -11 5 -16
-3 -5 0 -7 7 -4 20 8 19 -46 0 -69 -11 -12 -13 -20 -6 -23 17 -6 4 -62 -18
-77 -11 -8 -17 -19 -14 -25 4 -6 -2 -8 -14 -6 -11 2 -18 0 -15 -6 4 -5 -4 -9
-16 -9 -12 0 -19 -3 -15 -7 10 -10 46 -11 52 -1 3 4 11 8 17 8 7 0 4 -5 -5
-11 -10 -5 -15 -17 -12 -27 5 -14 4 -15 -5 -2 -6 8 -11 11 -11 6 0 -4 -11 -1
-25 8 -14 9 -31 14 -38 10 -13 -8 21 36 38 48 6 5 5 8 -2 8 -7 0 -13 5 -13 11
0 5 5 7 12 3 6 -4 8 -3 5 4 -4 5 -16 8 -27 5 -11 -3 -17 -10 -13 -16 3 -6 1
-7 -5 -3 -18 11 -14 26 5 26 24 0 10 10 -22 16 -14 2 -24 1 -22 -3 3 -5 -1
-17 -10 -28 -13 -19 -14 -18 -7 10 4 17 10 32 13 35 4 3 7 14 7 25 2 65 5 76
16 69 7 -5 8 -3 4 5 -5 7 -5 32 -1 57 l6 44 67 0 c41 0 62 -4 53 -9z m-115
-787 c-4 -12 -2 -15 9 -11 8 4 17 1 21 -5 5 -7 2 -8 -7 -3 -12 8 -12 6 0 -9 8
-9 17 -13 20 -9 10 13 36 9 43 -7 5 -12 7 -10 8 5 1 18 1 19 11 3 5 -10 15
-18 20 -18 6 0 7 5 3 12 -4 6 -3 8 3 5 5 -3 8 -19 5 -35 -2 -16 1 -33 7 -36 6
-4 8 2 6 16 -4 22 -4 22 10 4 8 -11 16 -14 16 -8 4 35 16 53 34 50 8 -2 21 6
29 17 10 12 15 15 16 7 0 -10 4 -10 15 2 9 8 22 13 30 10 11 -5 9 -14 -12 -47
-15 -23 -26 -46 -27 -52 0 -11 -36 -49 -36 -38 0 4 -12 -9 -26 -28 -14 -19
-30 -33 -35 -31 -5 1 -9 -2 -9 -6 0 -5 -13 -18 -28 -29 -21 -15 -29 -17 -29
-8 0 8 4 12 9 9 4 -3 8 1 9 8 0 7 2 23 3 35 1 12 -1 20 -5 17 -4 -2 -9 1 -11
8 -2 6 -14 12 -26 13 -11 1 -19 -2 -16 -7 5 -7 -3 -10 -22 -7 -3 0 -11 -7 -18
-17 -7 -9 -18 -14 -25 -10 -7 4 -10 2 -9 -5 2 -7 -5 -15 -14 -17 -13 -2 -18 3
-18 17 0 18 13 34 33 37 4 1 10 3 15 4 4 1 16 1 27 0 11 -1 17 1 14 4 -3 4
-29 8 -58 10 -36 3 -49 1 -44 -8 3 -6 3 -8 -1 -4 -5 4 -20 2 -35 -4 -23 -9
-101 -18 -101 -12 0 2 5 26 11 54 10 46 13 50 40 50 16 0 32 6 35 14 3 8 19
16 35 20 16 3 28 11 27 18 -2 7 4 12 13 10 9 -1 19 4 23 13 3 8 8 15 12 15 3
0 3 -7 0 -16z m-616 -674 c30 -16 69 -36 85 -45 17 -8 54 -36 84 -62 41 -36
52 -51 48 -69 -2 -13 -1 -21 3 -19 4 2 12 -7 19 -22 9 -20 9 -29 0 -37 -9 -8
-10 -7 -6 6 8 22 -4 30 -20 12 -8 -8 -9 -15 -3 -19 14 -9 1 -28 -14 -22 -7 3
-19 1 -27 -4 -10 -6 -6 -9 16 -9 28 -1 29 -2 8 -10 -13 -5 -23 -12 -23 -14 0
-3 10 -2 23 2 44 15 62 9 59 -20 -1 -15 2 -29 8 -33 8 -5 7 -12 -2 -22 -11
-14 -10 -15 11 -8 17 5 22 4 19 -6 -3 -8 -1 -22 4 -33 6 -10 6 -16 1 -13 -5 3
-14 -3 -21 -14 -7 -11 -8 -19 -2 -19 5 0 10 5 10 10 0 6 7 10 15 10 10 0 15
-10 15 -28 0 -15 4 -32 9 -38 4 -5 13 -28 19 -52 l10 -42 -29 2 c-19 1 -28 7
-25 15 4 9 -4 11 -27 7 -24 -4 -28 -3 -17 5 13 9 13 12 1 23 -12 11 -13 10 -7
-2 4 -8 0 -6 -8 4 -9 11 -16 24 -16 29 0 4 -5 5 -10 2 -8 -5 -8 -11 0 -20 8
-10 8 -15 -1 -21 -7 -4 -9 -3 -5 4 3 6 2 14 -4 17 -8 5 -8 11 0 20 8 10 7 14
-7 18 -15 4 -14 5 4 6 13 1 24 -6 28 -18 4 -13 12 -18 22 -14 8 3 19 0 24 -8
7 -11 9 -11 9 -1 0 8 -9 16 -19 19 -13 3 -18 10 -14 21 5 11 3 13 -7 7 -10 -6
-12 -4 -7 7 4 13 0 14 -29 8 -18 -4 -31 -4 -29 1 3 4 22 11 43 15 l37 7 -28 8
c-16 4 -35 5 -43 2 -7 -3 -21 3 -31 12 -16 17 -16 17 7 11 23 -6 23 -6 8 7
-26 20 -23 24 17 19 31 -4 34 -6 23 -21 -12 -14 -11 -15 5 -2 13 10 15 17 6
27 -6 8 -15 11 -20 8 -8 -5 -13 9 -10 28 0 4 -7 5 -17 2 -15 -5 -15 -4 1 9 17
14 17 16 -2 29 -12 8 -18 18 -14 21 3 4 1 7 -6 7 -7 0 -10 4 -6 9 3 6 -3 10
-12 10 -46 1 -53 4 -42 17 8 9 5 11 -10 7 -12 -3 -21 -1 -21 6 0 6 -6 11 -13
11 -8 0 -24 11 -37 25 -21 23 -25 24 -40 10 -16 -14 -18 -13 -23 15 -4 16 -4
37 -1 45 4 8 2 15 -3 15 -5 0 -14 32 -21 72 -10 58 -10 73 0 80 18 11 17 11
78 -22z m-1 -279 c6 -27 23 -88 40 -137 16 -49 36 -115 44 -147 l15 -58 -36 3
-37 3 -26 145 c-14 80 -28 154 -32 164 -4 11 -2 25 5 34 8 9 8 13 2 9 -7 -4
-14 1 -16 11 -4 12 1 18 13 19 13 1 20 -10 28 -46z m-82 -432 c12 -5 25 -20
28 -34 3 -14 7 -36 10 -50 4 -17 10 -22 21 -18 8 3 12 8 10 11 -3 3 -1 11 4
17 7 8 7 21 1 38 -11 30 -12 30 82 0 57 -17 60 -20 82 -73 13 -30 36 -70 52
-87 23 -28 35 -33 71 -33 41 0 42 1 30 23 -7 12 -11 26 -10 31 2 4 -10 6 -25
3 -15 -4 -22 -4 -15 -1 21 9 13 22 -10 18 l-23 -5 23 10 c24 11 38 10 34 -1
-1 -5 5 -8 14 -8 9 0 27 -10 41 -22 24 -22 35 -33 85 -84 11 -12 17 -27 13
-33 -4 -7 -1 -10 7 -9 7 2 12 -3 10 -9 -1 -7 3 -13 9 -13 6 0 9 -7 5 -15 -3
-8 0 -14 6 -12 6 1 13 -4 16 -12 3 -10 -2 -12 -22 -7 -15 4 -26 2 -26 -4 0 -5
-8 -10 -17 -10 -13 -1 -9 -6 12 -18 28 -16 46 -56 20 -46 -6 3 -12 -2 -12 -10
0 -8 4 -13 9 -10 5 4 12 -3 15 -14 5 -21 33 -39 33 -22 0 6 5 10 11 10 5 0 9
-8 7 -17 -1 -10 1 -24 6 -32 9 -14 -11 -34 -25 -25 -4 2 -10 0 -14 -5 -3 -6 5
-8 19 -5 18 3 25 -1 29 -18 4 -12 5 -23 4 -24 -1 -1 -100 -8 -219 -15 l-218
-14 -20 66 c-35 118 -136 204 -266 229 l-60 12 7 56 c9 68 4 159 -11 177 -8
10 -7 14 2 18 11 4 11 9 0 27 -10 17 -10 20 -1 14 7 -4 5 3 -4 17 -20 28 -22
43 -4 34 6 -4 3 1 -8 10 -19 16 -15 16 70 10 50 -4 100 -11 112 -16z m-287 -4
c10 -12 7 -16 -16 -25 -42 -16 -94 -76 -109 -127 -7 -23 -9 -43 -4 -43 5 0 9
-10 9 -22 0 -17 3 -19 9 -10 7 11 16 9 47 -12 48 -31 77 -28 115 14 33 35 39
37 39 10 0 -34 -55 -80 -95 -80 -19 0 -35 4 -35 9 0 5 -18 8 -40 8 -22 -1 -40
-5 -40 -9 0 -5 4 -8 10 -8 5 0 7 -6 4 -14 -3 -8 5 -24 18 -36 13 -12 19 -20
13 -19 -19 6 -90 -36 -130 -76 l-41 -40 -3 80 c-4 76 -4 140 -1 168 1 6 -2 29
-5 49 -4 20 -4 66 0 102 l6 65 52 10 c29 6 61 13 72 15 50 10 113 5 125 -9z
m-295 -174 c-10 -105 -18 -148 -31 -162 -14 -16 -15 -19 -2 -24 8 -3 21 -5 28
-3 7 2 17 -10 21 -27 8 -28 21 -218 20 -275 -1 -31 -20 -91 -35 -109 -9 -11
-7 -13 12 -7 16 6 22 3 22 -8 0 -9 5 -16 10 -16 6 0 10 28 10 65 l0 66 38 -29
c52 -41 117 -63 379 -127 125 -31 265 -67 310 -81 46 -14 86 -24 89 -24 12 3
23 -24 14 -35 -5 -6 -5 -17 2 -25 8 -12 9 -12 4 3 -4 12 0 17 15 17 13 0 18 4
13 13 -4 6 1 5 12 -4 10 -9 25 -18 32 -20 9 -3 8 -10 -6 -25 -18 -19 -18 -22
-3 -31 9 -6 30 -9 46 -8 42 4 42 4 23 16 -22 12 -23 29 -2 29 9 0 12 -5 8 -12
-4 -7 -3 -8 5 -4 7 5 34 -9 65 -33 75 -56 145 -145 151 -191 7 -62 19 -100 31
-100 8 0 14 -4 14 -10 0 -5 -4 -10 -9 -10 -4 0 -6 -11 -3 -25 2 -14 8 -22 13
-19 5 3 7 -56 6 -133 -3 -128 -6 -143 -34 -210 -39 -92 -90 -162 -161 -219
-79 -64 -212 -129 -212 -103 0 5 5 9 10 9 6 0 10 5 10 12 0 6 -3 8 -7 5 -3 -4
-15 1 -26 10 -20 17 -20 17 -14 -2 7 -18 6 -19 -6 -3 -8 10 -18 14 -22 10 -5
-4 -6 1 -2 10 3 9 0 19 -7 21 -8 3 -12 -3 -12 -17 1 -14 -6 -22 -21 -24 -13
-2 -23 2 -23 8 0 7 -7 10 -15 6 -9 -3 -15 0 -15 10 0 9 9 18 20 21 11 3 17 9
14 14 -3 5 -10 6 -16 3 -6 -4 -8 -2 -5 4 4 5 16 8 27 5 14 -4 20 0 20 12 0 12
-6 16 -20 12 -10 -3 -27 2 -37 10 -17 13 -17 14 5 8 17 -5 22 -2 22 13 0 11
-6 23 -12 26 -9 3 -7 9 6 20 19 15 12 22 -17 17 -5 -1 -6 3 -2 9 3 6 10 8 14
6 4 -3 13 4 20 16 7 11 8 17 2 13 -6 -3 -11 -2 -11 3 0 6 7 13 16 16 16 6 16
8 0 25 -9 9 -14 20 -10 23 8 9 44 -3 44 -14 0 -5 5 -6 10 -3 7 4 3 14 -10 25
-20 17 -20 19 -3 29 16 9 16 12 3 21 -13 9 -13 10 0 11 8 1 18 1 23 0 10 -1 9
11 -3 29 -6 9 -5 17 3 22 6 4 9 10 5 13 -3 3 -13 -1 -21 -10 -9 -8 -18 -11
-22 -6 -3 6 3 14 12 20 10 6 14 11 8 11 -5 0 -3 5 5 10 10 6 11 10 3 10 -7 0
-13 7 -13 15 0 8 -4 15 -10 15 -5 0 -12 17 -16 38 -14 82 -81 144 -191 179
-29 9 -53 21 -53 25 0 5 -4 6 -10 3 -9 -6 -77 8 -115 24 -11 5 -65 18 -120 31
-183 40 -173 36 -185 80 -13 49 -25 53 -17 5 3 -19 3 -35 -1 -35 -16 0 -181
54 -231 76 -65 29 -148 83 -156 102 -3 8 0 10 8 6 9 -5 9 -4 0 7 -7 7 -13 23
-13 36 0 26 -33 45 -88 51 -13 2 -53 84 -66 135 l-7 28 28 -18 c15 -10 24 -12
20 -5 -5 6 -4 12 2 12 6 0 11 -6 11 -14 0 -8 9 -18 20 -21 23 -7 26 -21 8 -28
-8 -4 -7 -6 4 -6 9 -1 18 -6 20 -13 2 -6 11 -12 19 -14 12 -1 16 9 18 43 0 24
-3 42 -8 39 -5 -3 -11 3 -14 14 -3 11 -1 20 4 20 5 0 1 9 -9 20 -9 12 -18 25
-18 30 -1 6 -2 13 -3 16 0 4 -9 0 -18 -7 -11 -10 -14 -10 -9 -1 5 8 1 12 -12
12 -10 0 -27 9 -37 20 -17 19 -41 28 -31 12 2 -4 1 -14 -5 -22 -14 -24 -11
106 6 182 8 38 27 96 44 131 30 64 136 191 151 182 5 -3 21 7 37 23 15 15 46
38 68 51 38 23 157 71 162 67 2 -1 -4 -67 -12 -145z m10 -1406 c34 -72 116
-145 193 -174 56 -21 60 -25 65 -59 2 -21 7 -47 10 -59 3 -13 0 -29 -6 -36 -7
-7 -17 -22 -23 -32 -11 -21 -76 -57 -107 -60 -11 -1 -28 11 -40 27 -11 15 -26
28 -32 28 -19 0 -58 47 -43 52 7 3 -9 10 -36 17 -36 9 -46 15 -42 27 3 9 -1
22 -9 30 -20 20 -9 44 18 38 83 -16 90 -16 83 -6 -3 6 -21 14 -39 18 -17 3
-47 15 -65 24 -30 16 -31 19 -17 34 9 9 17 26 17 38 1 13 6 29 11 36 8 10 4
15 -11 19 -25 6 -30 33 -7 33 8 0 15 4 15 9 0 15 -24 29 -61 36 -27 5 -38 13
-47 37 -10 28 -10 30 12 24 31 -8 40 3 20 25 -20 22 -12 27 51 31 l40 3 12
-53 c7 -29 24 -77 38 -107z m-369 110 c9 -8 11 -15 6 -15 -14 0 -7 -39 11 -60
9 -11 13 -20 7 -20 -5 0 -12 5 -15 10 -5 8 -11 8 -19 1 -7 -6 -16 -9 -20 -6
-3 3 -1 -1 4 -7 9 -10 13 -10 20 2 7 10 10 11 10 3 0 -7 6 -13 14 -13 8 0 17
-6 19 -12 3 -7 6 -3 6 9 1 12 6 25 13 29 6 4 8 3 5 -3 -4 -5 7 -23 23 -38 16
-15 27 -32 24 -36 -3 -5 4 -14 15 -20 11 -7 17 -19 13 -27 -4 -12 0 -14 17 -9
19 4 20 3 10 -9 -10 -12 -8 -18 10 -31 l22 -15 -26 -14 c-15 -8 -31 -11 -36
-8 -5 3 -6 -2 -3 -10 4 -9 1 -16 -6 -16 -9 0 -9 -4 1 -17 12 -14 12 -16 0 -8
-11 6 -13 4 -8 -8 4 -11 2 -14 -8 -10 -8 3 -12 10 -9 17 3 6 -2 2 -10 -8 -9
-11 -16 -23 -16 -28 0 -4 -8 -8 -17 -8 -14 0 -15 -2 -4 -9 11 -7 8 -10 -10
-16 -22 -7 -22 -8 -4 -21 10 -8 14 -14 9 -14 -16 0 -91 97 -130 166 -42 76
-72 162 -80 230 l-7 53 59 4 c33 2 67 4 77 5 10 1 25 -5 33 -13z m766 -325
c51 0 59 -2 54 -16 -5 -13 0 -15 33 -9 35 6 40 4 47 -17 12 -34 13 -49 5 -43
-4 2 -8 -11 -9 -30 -1 -19 2 -35 6 -35 6 0 8 -56 2 -62 -1 -2 -4 -24 -5 -50
-2 -40 1 -50 21 -63 13 -8 24 -12 24 -8 0 5 4 1 9 -7 6 -8 8 -17 5 -21 -6 -11
-304 -11 -304 0 0 26 50 224 60 236 9 10 7 22 -8 52 -11 21 -23 49 -27 62 -6
20 -4 23 10 18 9 -4 44 -7 77 -7z m133 -393 c17 -2 36 -5 43 -5 6 -1 12 -7 12
-12 0 -7 -7 -7 -21 0 -40 22 -34 -2 12 -44 26 -24 55 -58 64 -76 10 -19 24
-40 32 -48 19 -19 37 -57 58 -122 10 -30 24 -64 30 -75 11 -17 35 -106 50
-185 5 -21 4 -23 -7 -9 -45 55 -67 77 -101 98 -20 12 -35 27 -31 32 3 5 -4 9
-16 9 -11 0 -49 9 -83 21 -67 23 -193 30 -285 16 l-52 -8 6 73 c4 40 14 131
23 203 15 120 18 130 39 135 23 5 172 3 227 -3z m-800 -247 c7 0 15 -5 17 -12
5 -13 38 -20 38 -8 0 5 -6 10 -12 13 -7 2 -2 2 11 0 18 -3 22 0 18 12 -6 13
-4 14 17 0 12 -8 25 -12 28 -9 4 3 15 1 26 -5 18 -9 19 -8 14 12 -5 21 -5 21
12 5 13 -14 21 -15 40 -6 17 7 33 7 53 0 15 -6 21 -11 12 -11 -25 -1 -31 -29
-10 -43 18 -11 18 -12 -1 -44 -17 -28 -17 -34 -4 -47 14 -13 13 -16 -7 -22
-21 -6 -22 -6 -2 -15 11 -5 15 -9 8 -9 -7 -1 -10 -13 -9 -28 2 -16 -3 -45 -12
-66 -8 -22 -11 -42 -6 -45 5 -4 9 -14 9 -23 0 -16 -54 -138 -65 -149 -3 -3 -5
-11 -6 -17 -1 -7 -2 -22 -2 -32 -2 -14 -7 -18 -22 -14 -11 3 -20 0 -20 -6 0
-6 -8 -11 -17 -11 -13 0 -15 -2 -5 -8 14 -9 6 -42 -10 -42 -6 0 -8 -7 -4 -15
4 -13 2 -14 -14 -5 -15 8 -20 8 -20 -2 0 -10 -2 -10 -9 1 -5 7 -14 11 -20 7
-7 -5 -8 -1 -4 11 6 15 4 16 -8 6 -11 -9 -14 -6 -14 16 0 16 7 36 15 47 13 16
11 15 -15 -3 -27 -18 -32 -19 -44 -6 -12 13 -11 14 8 8 23 -7 26 2 14 43 -4
18 -8 21 -15 10 -7 -10 -8 -8 -7 7 3 42 -1 55 -20 55 -23 0 -35 46 -14 54 21
9 4 28 -18 21 -11 -4 -19 -3 -18 2 4 26 -1 35 -15 24 -10 -9 -16 -9 -21 -1 -4
7 2 14 14 17 24 6 25 12 10 33 -9 13 -10 12 -5 -2 3 -11 0 -18 -7 -19 -7 0
-20 -2 -29 -4 -10 -2 -18 1 -18 6 0 5 4 9 9 9 5 0 12 7 15 16 5 12 2 15 -11 9
-34 -14 -62 -14 -57 0 3 7 1 16 -5 19 -18 11 -1 37 17 27 11 -6 20 -4 28 7 10
14 14 14 29 2 15 -12 19 -12 30 3 7 9 17 17 23 17 16 0 22 28 8 42 -7 7 -11
18 -9 24 2 7 -4 20 -14 30 -13 12 -14 19 -5 22 6 2 12 9 12 17 0 18 93 101 98
87 2 -7 10 -12 17 -12z m1500 -117 c97 -124 180 -331 205 -513 24 -172 12
-411 -27 -565 -53 -211 -201 -437 -356 -543 -39 -27 -47 -29 -57 -17 -7 8 -17
12 -22 9 -6 -4 -5 -10 3 -15 10 -6 11 -9 2 -9 -7 0 -13 -7 -13 -16 0 -31 -202
-106 -369 -138 l-34 -6 7 72 c4 40 9 81 12 91 4 11 0 17 -13 18 -17 1 -17 2 0
6 9 2 17 8 17 12 0 4 5 45 11 91 9 68 9 84 -2 91 -11 7 -10 9 4 9 11 0 17 8
17 23 0 18 10 28 42 43 82 37 202 180 223 267 5 18 12 26 21 23 8 -3 11 0 7
10 -5 13 10 109 23 152 3 9 12 4 28 -15 24 -28 25 -28 40 -8 19 25 19 30 1 48
-8 8 -12 17 -9 19 3 3 -8 8 -23 11 l-28 6 -1 133 c-1 84 -8 166 -19 223 -10
50 -19 107 -19 128 -1 22 -7 42 -16 47 -12 8 -11 10 8 10 12 0 22 5 22 11 0 6
-9 9 -19 6 -12 -3 -18 0 -15 7 2 6 16 12 31 11 15 0 28 6 30 15 4 12 3 12 -5
1 -7 -10 -9 -6 -9 13 0 15 3 29 8 32 5 3 6 -1 3 -9 -3 -8 3 -20 12 -28 14 -11
18 -11 22 -1 3 10 8 8 18 -5 17 -22 18 -37 2 -27 -7 4 -8 3 -4 -5 6 -9 11 -9
24 1 12 10 14 10 8 1 -4 -8 -2 -13 6 -13 10 0 9 -3 -2 -10 -12 -8 -12 -11 3
-28 9 -10 14 -22 10 -27 -5 -4 3 -5 16 -2 13 3 20 2 15 -3 -5 -4 -18 -10 -29
-13 -18 -4 -18 -5 3 -6 14 -1 22 -7 21 -18 0 -11 -3 -13 -6 -5 -7 17 -23 15
-23 -3 0 -8 7 -15 16 -15 10 0 14 -6 11 -14 -4 -9 2 -17 14 -21 19 -6 25 -20
12 -28 -5 -2 -2 -2 6 0 8 2 22 -4 32 -13 18 -16 19 -16 19 -1 0 10 -6 16 -12
15 -7 -2 -12 4 -12 13 1 9 -4 16 -10 15 -6 0 -12 4 -13 9 -1 6 6 8 15 7 13 -3
14 -1 3 12 -8 9 -9 16 -3 16 5 0 8 10 5 23 -3 12 -2 19 2 14 5 -4 10 -17 12
-30 2 -12 8 -26 13 -31 5 -5 7 -1 4 11 -3 12 -1 24 6 28 8 5 6 11 -7 22 -10 8
-12 11 -5 8 11 -6 11 -3 0 14 -15 24 -24 26 -32 9 -3 -7 -4 3 -1 22 4 29 3 31
-5 13 -10 -25 -22 -31 -19 -10 3 28 -2 39 -16 34 -12 -5 -12 -2 -3 21 7 15 15
32 19 37 15 23 19 65 7 65 -10 0 -9 3 1 9 9 6 12 18 7 37 -5 21 -4 25 3 14 6
-8 13 -11 17 -7 4 4 0 15 -9 25 -21 23 -22 56 -2 76 19 18 19 23 0 29 -11 4
-10 4 2 3 11 -1 20 -13 24 -31 7 -33 9 -32 13 3 2 13 -1 25 -6 28 -20 12 -5
27 34 33 4 0 28 -25 53 -56z m-1594 -518 c104 -37 143 -62 180 -112 23 -34 34
-41 40 -31 5 8 9 -17 9 -63 0 -62 -3 -76 -15 -76 -9 0 -14 6 -11 14 3 7 1 13
-4 13 -5 0 -12 -10 -15 -23 -6 -24 -44 -32 -57 -13 -4 6 -6 1 -5 -12 0 -12 5
-22 10 -22 4 0 6 -4 2 -9 -3 -6 11 -15 32 -20 49 -14 60 -14 66 2 3 6 6 -8 6
-32 1 -34 -2 -42 -13 -38 -39 15 -138 27 -152 19 -11 -6 4 -11 50 -14 37 -3
69 -8 72 -10 9 -9 -8 -37 -25 -43 -13 -4 -16 -14 -12 -47 2 -24 10 -53 18 -65
17 -26 72 -46 104 -38 20 5 28 -1 48 -37 32 -56 106 -135 160 -169 l44 -28
-37 -22 c-38 -22 -47 -33 -19 -22 11 4 14 3 9 -5 -5 -8 -2 -10 8 -6 9 3 14 9
11 13 -2 4 2 8 10 8 12 0 12 -5 -1 -29 -13 -26 -11 -32 9 -29 4 0 7 -4 7 -10
0 -7 -7 -8 -17 -4 -31 12 -36 10 -38 -10 -2 -21 -13 -102 -21 -147 -2 -16 0
-28 5 -28 6 0 8 9 6 20 -2 11 2 26 10 33 9 9 10 19 3 30 -7 13 -5 15 5 11 11
-4 14 3 13 25 0 17 4 30 9 30 6 0 9 -8 8 -17 -6 -50 -13 -76 -22 -85 -6 -6
-11 -24 -11 -40 0 -19 -4 -26 -12 -21 -6 4 -8 3 -5 -3 8 -13 -3 -73 -13 -73
-3 0 -5 15 -3 33 l3 32 -14 -30 c-8 -16 -12 -35 -9 -42 3 -7 3 -13 0 -13 -4 0
-62 19 -107 36 -11 4 -6 12 18 30 37 29 40 51 12 96 -11 18 -20 50 -20 70 0
28 -5 38 -20 43 -11 3 -20 11 -20 16 0 15 -14 10 -26 -9 -8 -13 -7 -45 6 -124
l16 -107 -68 36 c-37 19 -102 64 -143 100 -170 144 -276 328 -326 565 -27 125
-33 412 -10 544 l13 81 88 -48 c48 -26 121 -59 161 -74z m-6606 -951 c57 -21
59 -23 35 -32 -149 -60 -264 -102 -278 -102 -10 0 -75 22 -145 49 l-127 49 0
-57 c0 -50 -2 -57 -20 -57 -18 0 -20 7 -20 62 l0 62 93 36 c50 20 121 46 156
59 l63 24 92 -35 c50 -19 118 -45 151 -58z m7488 43 c-2 -4 -8 -5 -12 -2 -5 2
-17 -2 -27 -10 -17 -13 -17 -14 -2 -15 12 0 15 -5 11 -16 -5 -13 -7 -13 -14
-2 -7 10 -9 9 -9 -3 0 -16 19 -29 43 -29 7 0 6 4 -3 10 -12 7 -12 12 -2 22 16
16 29 -1 27 -35 -1 -17 -7 -21 -26 -18 -13 1 -28 8 -32 15 -5 6 -5 0 -2 -13 6
-18 4 -22 -6 -16 -11 6 -12 5 -2 -5 8 -9 9 -18 3 -25 -6 -7 -2 -11 13 -12 17
-2 19 0 7 7 -11 7 -11 10 -2 10 7 0 11 4 7 9 -3 5 0 13 6 17 8 4 9 3 5 -4 -4
-7 -2 -12 4 -12 7 0 8 -6 2 -17 -5 -10 -9 -33 -7 -51 1 -17 0 -30 -3 -27 -3 3
-12 -1 -21 -8 -14 -11 -14 -10 -2 6 12 15 12 17 -1 12 -10 -4 -15 -21 -16 -50
-2 -38 0 -43 15 -38 11 4 13 8 5 11 -7 2 -10 8 -6 13 11 19 23 8 22 -22 -1
-20 -4 -26 -9 -17 -7 11 -9 11 -9 0 0 -7 -4 -10 -10 -7 -17 10 -11 -3 9 -22
31 -29 13 -40 -75 -46 l-82 -5 2 123 c0 68 4 121 9 118 4 -2 7 16 7 40 0 25 3
59 6 76 5 25 3 31 -10 31 -10 0 -15 3 -13 8 3 4 50 7 105 7 55 0 98 -3 95 -8z
m-7800 -178 l67 -24 68 24 c37 13 72 26 79 28 8 3 13 -13 15 -53 l3 -58 158
-35 157 -35 0 -377 c0 -254 -4 -387 -11 -410 -30 -90 -147 -193 -306 -271
-134 -65 -160 -66 -277 -10 -107 51 -166 90 -234 156 -101 96 -97 74 -100 522
-2 313 0 392 10 396 7 3 74 18 149 33 l135 27 -4 61 c-4 48 -2 59 9 55 8 -3
44 -16 82 -29z m1460 -236 c-8 -3 -13 -23 -13 -49 l0 -44 60 0 60 0 0 44 c0
34 -4 46 -17 49 -10 3 7 5 37 5 30 0 47 -2 38 -5 -16 -4 -18 -18 -18 -113 0
-95 2 -109 18 -113 9 -3 -5 -5 -33 -5 -27 0 -44 2 -37 5 7 3 12 25 12 59 l0
54 -60 0 -60 0 0 -54 c0 -44 4 -55 18 -59 9 -3 -8 -5 -38 -6 -38 0 -50 2 -40
9 23 15 28 191 5 213 -15 16 -13 17 32 16 26 0 42 -3 36 -6z m369 -15 c-3 -12
-7 -17 -10 -10 -2 6 -17 12 -33 12 -27 0 -29 -2 -29 -40 0 -39 1 -40 35 -40
32 0 35 -3 35 -27 -1 -24 -2 -25 -11 -10 -5 9 -21 17 -34 17 -23 0 -25 -4 -25
-50 l0 -50 34 0 c19 0 37 6 39 13 3 6 6 2 6 -10 1 -22 -3 -23 -76 -23 -53 0
-73 3 -63 10 23 15 28 191 5 213 -15 16 -11 17 58 17 73 0 75 -1 69 -22z m522
12 c37 -14 44 -54 17 -91 -22 -29 -22 -30 -2 -57 23 -33 60 -67 81 -75 8 -4
-3 -5 -25 -4 -35 2 -44 8 -75 50 -44 60 -70 63 -70 7 0 -27 6 -42 18 -49 13
-8 6 -10 -33 -10 -27 0 -44 3 -37 6 8 3 12 36 12 113 0 95 -2 109 -17 113 -10
3 10 5 44 6 34 0 73 -3 87 -9z m174 -1 c-15 -8 -18 -24 -18 -90 0 -72 3 -82
25 -104 29 -30 45 -31 76 -6 21 17 24 29 28 102 3 71 1 84 -15 96 -16 11 -13
13 27 13 24 0 39 -4 33 -8 -6 -4 -13 -44 -16 -90 -6 -109 -24 -136 -95 -140
-37 -2 -56 2 -74 17 -22 17 -24 28 -27 115 -3 78 -7 96 -20 99 -10 3 8 5 38 6
42 0 51 -2 38 -10z m352 -3 c0 -11 -10 -13 -40 -9 l-40 6 0 -42 c0 -40 1 -41
35 -41 32 0 35 -3 35 -27 -1 -24 -2 -25 -11 -10 -5 9 -21 17 -34 17 -23 0 -25
-4 -25 -51 l0 -51 40 4 c28 2 40 0 40 -9 0 -10 -21 -13 -77 -13 -58 1 -73 3
-60 11 14 8 17 25 17 109 0 84 -3 101 -17 109 -13 8 2 10 60 11 60 0 77 -3 77
-14z m-1685 -376 c-8 -13 36 -163 45 -153 4 4 20 43 35 86 15 43 31 74 35 70
4 -4 17 -35 30 -68 42 -109 40 -108 66 -20 17 60 20 81 11 87 -7 4 6 8 28 8
31 -1 36 -3 23 -10 -9 -6 -33 -59 -53 -120 -20 -61 -40 -108 -44 -106 -4 3
-20 37 -35 75 -15 39 -31 73 -35 76 -5 2 -21 -30 -37 -71 -16 -42 -33 -75 -39
-74 -5 2 -26 50 -45 107 -20 57 -42 108 -50 113 -11 7 -3 10 28 10 25 0 41 -4
37 -10z m517 -19 c30 -27 33 -35 33 -86 0 -53 -3 -59 -37 -91 -31 -28 -45 -34
-83 -34 -82 0 -135 47 -135 120 0 75 51 119 137 120 44 0 58 -5 85 -29z m226
13 c28 -19 28 -53 1 -88 l-20 -26 37 -45 c20 -25 38 -45 39 -45 2 0 10 -3 19
-6 12 -5 16 1 17 22 0 28 1 28 11 7 14 -28 41 -37 68 -23 31 17 24 42 -25 90
-72 70 -57 130 31 130 41 0 44 -2 44 -27 l0 -27 -16 22 c-18 27 -51 26 -68 -1
-9 -15 -3 -25 37 -62 39 -37 47 -51 47 -79 0 -50 -28 -66 -115 -66 -77 0 -87
5 -130 63 -38 51 -55 49 -55 -7 0 -34 4 -46 18 -49 9 -3 -8 -5 -38 -6 -42 0
-51 2 -37 10 14 8 17 25 17 109 0 84 -3 101 -17 109 -14 8 -2 10 47 11 44 0
73 -5 88 -16z m360 9 c-14 -3 -18 -15 -18 -49 l0 -44 65 0 c61 0 65 1 65 23 0
38 -11 66 -29 70 -9 3 9 5 39 6 33 0 50 -3 42 -8 -32 -20 -26 -216 6 -224 9
-3 -8 -5 -38 -6 -32 0 -50 3 -42 7 7 5 15 32 19 60 l6 52 -67 0 -66 0 0 -50
c0 -43 3 -52 23 -60 17 -7 10 -9 -33 -9 -30 1 -49 3 -42 6 8 3 12 36 12 113 0
95 -2 109 -17 113 -10 3 7 5 37 5 30 0 47 -2 38 -5z m522 -13 c11 -11 20 -28
20 -39 0 -31 -39 -71 -68 -71 l-27 0 25 13 c35 17 40 69 8 91 -12 9 -26 16
-30 16 -5 0 -8 -49 -8 -109 0 -96 2 -110 18 -114 9 -3 -8 -5 -38 -6 -42 0 -51
2 -37 10 14 8 17 25 17 109 0 84 -3 101 -17 109 -14 8 -1 10 50 11 54 0 71 -4
87 -20z m210 0 c11 -11 20 -28 20 -39 0 -31 -39 -71 -68 -71 l-27 0 25 13 c35
17 40 69 8 91 -12 9 -26 16 -30 16 -5 0 -8 -49 -8 -109 0 -96 2 -110 18 -114
9 -3 -8 -5 -38 -6 -42 0 -51 2 -37 10 14 8 17 25 17 109 0 84 -3 101 -17 109
-14 8 -1 10 50 11 54 0 71 -4 87 -20z m210 6 c0 -11 -10 -13 -40 -9 l-40 6 0
-42 c0 -40 1 -41 35 -41 32 0 35 -3 34 -27 -1 -17 -3 -21 -6 -10 -3 11 -14 17
-34 17 -28 0 -29 -1 -29 -51 l0 -51 40 4 c28 2 40 0 40 -9 0 -10 -21 -13 -77
-13 -58 1 -73 3 -60 11 14 8 17 25 17 109 0 84 -3 101 -17 109 -13 8 2 10 60
11 60 0 77 -3 77 -14z m198 -2 c26 -18 29 -59 7 -88 -8 -11 -15 -23 -15 -28 0
-14 73 -90 95 -98 16 -7 13 -9 -17 -9 -32 -1 -42 5 -79 49 -53 63 -69 64 -69
6 0 -34 4 -46 18 -49 9 -3 -8 -5 -38 -5 -30 0 -47 2 -37 5 15 4 17 18 17 113
0 95 -2 109 -17 113 -10 3 11 5 47 6 45 1 73 -4 88 -15z m-1907 -364 c14 0 19
-7 19 -30 l0 -29 -25 24 c-16 17 -35 25 -60 25 -55 0 -85 -35 -85 -100 0 -44
5 -56 29 -81 38 -38 101 -41 125 -7 15 22 16 22 16 2 0 -32 -20 -44 -76 -44
-108 0 -175 92 -130 179 8 15 22 33 30 41 22 17 75 30 110 24 16 -2 37 -4 47
-4z m567 -13 c47 -23 68 -112 38 -165 -35 -64 -139 -84 -195 -36 -57 48 -62
132 -10 184 40 40 108 47 167 17z m269 13 c24 0 72 -52 79 -85 14 -78 -35
-145 -114 -153 -61 -5 -104 15 -126 62 -27 56 -15 119 28 156 20 16 75 30 101
24 11 -2 25 -4 32 -4z m586 0 c10 0 32 -13 48 -29 52 -53 34 -162 -33 -197
-50 -26 -125 -14 -160 25 -39 43 -40 115 -2 160 27 32 75 53 109 45 11 -2 28
-4 38 -4z m513 -82 l47 -93 45 94 c52 107 52 107 72 -42 11 -84 16 -100 34
-107 17 -7 13 -9 -20 -9 l-42 -1 -7 75 c-4 41 -10 75 -13 75 -4 0 -23 -35 -43
-78 l-36 -77 -40 80 -41 80 -6 -50 c-4 -27 -9 -58 -11 -68 -2 -9 4 -21 13 -27
13 -7 8 -9 -22 -10 -30 0 -36 3 -28 13 5 6 18 63 28 125 10 61 19 112 21 112
1 0 24 -42 49 -92z m-1793 75 c-8 -3 -13 -23 -13 -49 l0 -45 63 3 c59 3 62 4
65 30 2 15 -2 36 -8 48 -10 18 -8 20 24 20 l34 0 -10 -40 c-15 -58 -1 -188 20
-193 9 -3 -8 -5 -38 -6 -35 0 -50 2 -41 8 7 5 16 32 19 60 l5 51 -67 0 -66 0
0 -50 c0 -36 5 -52 18 -59 13 -8 6 -10 -33 -11 -30 0 -45 4 -37 9 10 6 13 35
10 120 l-3 111 35 -1 c19 0 29 -3 23 -6z m2299 -80 l88 -88 0 68 c0 38 -5 77
-10 88 -10 17 -7 19 22 18 18 0 27 -3 21 -6 -9 -3 -13 -37 -13 -119 0 -63 -4
-114 -8 -114 -5 0 -46 38 -92 85 -45 47 -83 84 -84 83 -1 -2 0 -38 2 -80 3
-62 7 -78 20 -81 9 -3 -5 -5 -33 -5 -27 0 -42 2 -32 5 15 4 17 18 17 119 0 63
3 114 7 114 4 0 47 -39 95 -87z m889 77 c24 -13 26 -66 3 -98 -14 -20 -14 -24
4 -50 24 -33 62 -68 82 -75 8 -3 0 -6 -19 -6 -28 -1 -41 7 -73 41 -21 23 -38
45 -38 50 0 4 -9 8 -20 8 -17 0 -20 -7 -20 -40 0 -27 6 -42 18 -49 13 -8 6
-10 -33 -11 -30 0 -45 4 -37 9 10 6 13 35 10 120 l-3 111 53 0 c29 0 62 -5 73
-10z m-4895 -354 c23 -23 34 -43 34 -64 0 -26 6 -31 46 -47 46 -17 48 -17 90
3 29 15 42 26 38 36 -13 33 60 117 87 100 16 -9 1 -55 -27 -85 l-24 -26 30 5
c35 5 90 -15 90 -33 0 -28 -88 -33 -130 -8 -27 15 -30 15 -61 -4 l-32 -21 29
-15 c40 -22 90 -70 76 -75 -6 -2 -22 6 -34 18 -13 12 -38 31 -56 42 -39 24
-58 19 -116 -33 -20 -17 -40 -28 -44 -24 -7 7 17 30 74 71 l29 21 -34 18 c-32
16 -36 16 -62 1 -32 -19 -66 -20 -106 -5 l-28 11 25 20 c19 15 35 19 67 15
l42 -4 -30 29 c-19 19 -29 40 -29 59 0 38 14 37 56 -5z"/>
<path d="M9390 5591 c-8 -6 -17 -8 -21 -5 -4 2 -10 -4 -13 -14 -4 -11 -17 -19
-37 -20 -50 -4 -63 -15 -36 -31 19 -13 21 -12 9 1 -10 13 -8 15 17 14 16 -1
27 -4 24 -8 -2 -5 0 -8 6 -8 5 0 11 3 14 8 2 4 2 1 1 -5 -2 -7 1 -13 7 -13 6
0 7 -5 3 -11 -4 -8 -9 -7 -16 2 -7 10 -8 8 -5 -8 3 -13 1 -23 -4 -23 -5 0 -9
11 -9 25 0 23 -2 24 -20 15 -11 -6 -25 -8 -30 -5 -5 3 -12 1 -15 -5 -5 -8 -11
-7 -21 1 -11 9 -14 8 -14 -4 0 -8 7 -17 15 -21 22 -8 19 -39 -2 -34 -13 4 -18
-2 -19 -19 -1 -12 2 -23 6 -23 4 0 10 -9 13 -20 3 -11 12 -20 21 -20 18 0 22
-25 5 -36 -8 -5 -6 -10 5 -16 9 -5 14 -14 10 -19 -3 -6 5 -8 20 -5 14 3 29 0
32 -6 4 -7 2 -8 -4 -4 -7 4 -12 1 -12 -9 0 -9 -4 -13 -10 -10 -5 3 -10 1 -10
-4 0 -6 8 -11 18 -12 9 0 28 -3 42 -6 55 -12 75 -9 73 11 -1 11 6 26 15 33 12
8 13 12 4 13 -7 0 -10 5 -6 12 4 7 3 8 -4 4 -7 -4 -12 -14 -12 -23 0 -10 -6
-13 -16 -9 -8 3 -12 2 -9 -4 3 -5 -4 -14 -16 -21 -27 -14 -45 7 -26 30 9 11 9
15 -1 18 -6 3 -9 9 -6 15 4 6 10 5 16 -3 7 -10 11 -11 14 -2 3 7 12 9 20 6 8
-3 14 1 14 11 0 9 4 16 10 16 5 0 7 7 4 15 -4 8 -10 12 -15 9 -5 -3 -9 0 -9 5
0 6 -6 11 -13 11 -19 0 -49 -35 -40 -45 5 -5 0 -3 -9 4 -9 7 -23 9 -29 5 -8
-5 -9 -3 -5 5 5 7 14 10 21 7 16 -6 35 13 35 36 0 12 5 15 17 11 12 -5 15 -2
10 10 -3 9 -2 17 3 17 5 0 7 8 3 18 -5 14 -3 13 10 -3 14 -17 18 -18 27 -5 6
9 10 10 10 3 0 -6 -4 -15 -10 -18 -5 -3 -10 -11 -10 -16 0 -6 17 2 38 18 25
19 32 21 21 8 -17 -22 -19 -51 -3 -48 6 1 11 -4 11 -11 0 -7 -10 -12 -21 -12
-29 1 -33 -17 -7 -30 12 -6 32 -21 44 -32 l22 -21 1 26 c2 20 -2 24 -17 20
-10 -3 -24 2 -31 12 -7 9 -9 13 -4 9 5 -4 18 -3 29 3 14 8 18 8 13 0 -8 -12
26 -16 38 -4 3 4 12 8 19 9 7 1 17 3 22 4 24 5 55 -1 55 -11 0 -6 -7 -9 -15
-5 -8 3 -15 1 -15 -4 0 -5 -8 -11 -17 -13 -17 -4 -17 -5 0 -6 10 0 35 8 57 19
48 24 68 26 50 5 -7 -8 -21 -15 -32 -15 -11 0 -16 -4 -12 -11 4 -8 0 -9 -15
-4 -11 3 -21 2 -21 -3 0 -7 32 -9 84 -3 4 1 6 8 2 16 -3 8 -1 15 4 15 6 0 10
5 10 12 0 6 8 21 18 32 17 21 17 21 -5 3 -15 -14 -28 -17 -45 -11 -13 4 -29 9
-36 10 -8 1 -17 6 -20 10 -4 4 0 4 8 2 8 -3 23 -1 34 4 14 8 17 7 11 -3 -6 -8
-4 -10 5 -4 9 6 11 4 5 -6 -7 -12 -6 -11 9 0 17 14 16 15 -6 24 -12 4 -33 18
-46 30 -17 16 -21 17 -17 5 5 -11 -1 -19 -17 -24 -13 -4 -26 -7 -30 -6 -5 1
-8 -6 -9 -15 0 -14 -2 -13 -9 5 -6 13 -18 22 -31 22 -12 0 -19 3 -15 8 12 12
30 9 44 -8 12 -13 13 -13 8 3 -5 14 -2 16 13 8 10 -6 21 -7 25 -4 10 10 -15
33 -36 33 -10 0 -23 10 -28 23 -5 12 -9 16 -9 10 -1 -7 -8 -13 -17 -13 -14 0
-14 3 -4 15 10 12 9 15 -8 15 -19 0 -38 25 -33 44 1 5 -7 6 -19 3 -11 -3 -18
-1 -14 4 3 5 -4 9 -15 9 -11 0 -23 5 -26 10 -8 12 -16 12 -35 1z"/>
<path d="M9960 2670 c-8 -4 -27 -13 -41 -20 -34 -15 -49 -49 -49 -106 0 -37 4
-46 23 -53 13 -5 29 -16 36 -25 18 -21 74 -20 94 2 30 33 38 70 24 113 -15 49
-65 100 -87 89z"/>
<path d="M1459 2215 c-80 -17 -158 -35 -172 -39 l-27 -6 0 -373 c0 -415 -5
-382 74 -464 22 -24 46 -43 54 -43 8 0 -11 27 -41 60 -37 40 -58 71 -61 93 -9
58 -16 692 -8 704 4 7 95 31 202 54 l195 41 198 -43 197 -43 0 -359 c0 -244
-4 -365 -11 -380 -6 -12 -32 -43 -57 -69 -26 -27 -40 -48 -32 -48 22 0 99 90
110 129 7 23 10 165 8 391 l-3 354 -175 38 c-213 45 -260 46 -451 3z"/>
<path d="M1570 2199 c-47 -10 -126 -28 -177 -39 l-92 -21 -3 -332 c-2 -183 1
-347 5 -366 6 -22 29 -55 65 -89 53 -52 57 -54 96 -47 23 4 50 8 61 9 11 1 31
9 45 18 14 9 34 20 45 26 11 6 14 12 8 12 -7 0 -13 8 -13 18 0 10 -5 23 -10
28 -7 7 -7 27 2 63 9 39 9 57 1 71 -7 10 -9 27 -6 38 2 11 0 22 -5 26 -6 3 -4
27 4 63 22 95 19 121 -17 141 -60 32 -87 60 -82 84 3 16 -4 31 -21 47 -14 14
-26 28 -26 32 0 13 40 -3 53 -20 21 -30 91 -71 119 -71 24 0 28 4 28 29 0 32
22 56 45 47 9 -3 15 -18 15 -41 0 -31 3 -35 26 -35 26 0 114 48 114 62 0 4 14
14 30 23 36 19 39 7 7 -23 -17 -16 -22 -30 -19 -51 3 -26 -2 -32 -57 -65 -69
-42 -71 -48 -47 -151 9 -38 11 -64 5 -71 -5 -6 -7 -19 -3 -28 3 -9 1 -23 -6
-31 -12 -15 -6 -84 11 -117 6 -10 5 -18 -2 -20 -6 -2 -17 -21 -24 -42 -11 -30
-11 -36 0 -33 7 3 24 -1 38 -8 21 -11 113 -35 133 -35 12 0 107 97 120 122 11
22 14 94 14 372 0 320 -1 345 -17 350 -31 9 -357 76 -368 75 -5 0 -48 -9 -95
-20z"/>
<path d="M3159 1721 c-31 -24 -41 -63 -29 -116 11 -47 35 -72 77 -81 26 -5 37
-1 58 21 25 24 27 32 23 86 -5 67 -24 95 -73 105 -22 4 -37 0 -56 -15z"/>
<path d="M3553 1334 c-23 -23 -25 -32 -21 -80 4 -42 11 -61 31 -81 48 -48 118
-27 131 39 22 109 -72 191 -141 122z"/>
<path d="M3857 1346 c-38 -29 -43 -112 -10 -163 19 -29 67 -45 98 -33 33 12
45 40 45 100 0 44 -5 56 -29 81 -32 32 -74 38 -104 15z"/>
<path d="M4433 1334 c-23 -23 -25 -32 -21 -80 4 -42 11 -61 31 -81 49 -50 120
-26 133 44 20 106 -76 184 -143 117z"/>
<path d="M8560 1754 c0 -9 5 -13 13 -9 6 4 4 0 -7 -9 -13 -11 -21 -35 -26 -83
-4 -37 -5 -71 -3 -75 2 -5 -4 -8 -14 -8 -17 -1 -17 -1 0 -11 9 -5 17 -17 17
-25 0 -10 5 -12 13 -8 8 6 8 3 -2 -9 -13 -17 -8 -53 6 -44 5 3 14 -1 20 -9 8
-8 9 -15 3 -19 -6 -4 -8 -10 -5 -15 3 -5 1 -19 -5 -31 -9 -16 -9 -24 0 -33 8
-8 9 -6 4 8 -6 15 -4 17 6 11 8 -5 11 -4 6 3 -3 6 -2 13 4 17 5 3 10 24 10 45
0 21 5 42 10 45 15 9 12 25 -5 25 -18 0 -20 27 -3 32 7 3 25 0 41 -6 21 -8 34
-7 55 5 41 22 55 60 42 109 -11 40 -50 75 -58 51 -2 -6 -18 -11 -35 -10 -29 0
-30 1 -9 9 33 14 27 23 -12 16 -35 -7 -41 2 -23 32 6 8 1 12 -17 12 -17 0 -26
-6 -26 -16z"/>
<path d="M9869 1498 c-7 -25 -5 -36 7 -31 9 3 14 -1 14 -12 0 -9 5 -13 10 -10
6 3 10 1 10 -4 0 -6 -5 -11 -11 -11 -5 0 -8 -4 -5 -9 7 -10 -24 -110 -33 -109
-18 2 -22 -3 -12 -16 8 -10 3 -38 -23 -117 -19 -57 -52 -162 -74 -234 -22 -71
-95 -305 -162 -520 -67 -215 -124 -398 -126 -407 -5 -17 11 -18 235 -18 l241
0 0 745 c0 430 -4 745 -9 745 -5 0 -11 -7 -15 -15 -4 -13 -9 -13 -25 -3 -11 7
-17 16 -15 20 3 4 3 8 0 8 -3 0 -6 -1 -7 -2z"/>
<path d="M9670 1328 c-44 -26 -50 -35 -50 -80 0 -45 45 -88 91 -88 19 0 28 -4
24 -11 -4 -5 -4 -21 -1 -35 5 -20 10 -23 25 -15 10 6 22 7 26 3 5 -4 5 -1 1 6
-5 8 -1 18 9 26 12 9 17 29 18 74 1 34 -1 62 -5 62 -5 0 -8 5 -8 11 0 5 4 8
10 4 5 -3 3 7 -5 22 -8 15 -23 28 -33 29 -11 1 -30 4 -44 7 -15 4 -36 -1 -58
-15z"/>
<path d="M8564 1262 c-6 -4 -15 -18 -19 -31 -5 -16 -4 -21 4 -17 7 5 9 1 5 -9
-6 -14 -9 -14 -30 0 -19 12 -28 13 -51 3 -15 -6 -32 -10 -36 -9 -4 1 -7 -6 -5
-15 2 -9 -3 -19 -11 -22 -8 -3 -11 0 -7 7 4 6 1 11 -9 11 -12 0 -14 -4 -6 -18
7 -13 6 -23 -2 -31 -9 -10 -8 -11 6 -6 9 4 17 12 18 19 0 6 7 -5 14 -24 7 -19
14 -29 14 -21 1 11 4 11 16 1 12 -10 14 -8 10 9 -2 12 0 19 5 16 11 -7 33 32
25 45 -3 5 -1 11 5 15 5 3 10 0 10 -7 0 -10 2 -10 9 1 5 8 11 9 15 3 4 -6 -1
-15 -10 -20 -11 -6 -17 -23 -17 -50 0 -22 -5 -38 -10 -35 -4 3 -6 11 -3 19 3
8 0 14 -8 14 -7 0 -13 -6 -13 -12 0 -7 -3 -25 -6 -41 -5 -25 -4 -27 21 -21 16
4 23 3 19 -2 -5 -5 -14 -9 -20 -9 -7 -1 -11 -7 -9 -15 2 -9 -6 -6 -22 9 -20
19 -23 27 -15 38 7 8 8 13 1 13 -5 0 -15 -7 -22 -15 -10 -12 -10 -15 0 -15 7
0 10 -7 6 -16 -4 -12 -2 -15 9 -11 17 7 25 -3 31 -41 5 -26 4 -26 -10 -7 -8
11 -12 23 -10 27 6 9 -45 3 -54 -7 -4 -5 1 -5 11 -2 10 4 16 3 12 -2 -3 -5 1
-12 7 -15 7 -3 3 -3 -9 0 -13 3 -23 1 -23 -5 0 -6 6 -11 13 -12 6 0 21 -3 32
-6 79 -19 94 -11 99 54 2 21 7 46 11 56 4 9 5 31 3 47 -3 17 -1 30 4 30 12 0
10 38 -2 45 -7 4 -7 11 -2 18 14 19 23 49 12 42 -6 -3 -10 -2 -10 4 0 5 6 11
13 14 6 2 10 7 7 10 -3 3 -10 3 -16 -1z"/>
<path d="M8505 911 c5 -9 -67 -25 -96 -21 -27 4 -39 0 -39 -14 0 -8 -8 -17
-18 -20 -12 -4 -19 -18 -20 -44 -2 -20 -9 -66 -17 -102 -8 -36 -16 -78 -19
-95 -2 -16 -7 -48 -11 -69 -6 -32 -5 -38 6 -32 8 4 6 1 -4 -7 -10 -8 -22 -40
-28 -73 -5 -33 -12 -67 -15 -76 -5 -18 39 -68 60 -68 6 0 4 5 -4 10 -8 5 -11
10 -6 10 4 0 -2 8 -14 18 -18 14 -19 19 -7 19 9 0 14 -4 11 -9 -3 -4 -1 -8 5
-8 5 0 12 6 14 13 4 8 6 7 6 -4 1 -20 54 -59 80 -59 28 0 32 10 36 95 2 41 6
79 9 83 18 30 100 428 92 449 -3 7 -10 13 -16 13 -6 0 -9 -4 -5 -9z"/>
<path d="M8555 325 c-16 -13 -33 -24 -38 -25 -4 0 -25 -12 -47 -26 -22 -15
-43 -24 -47 -21 -3 4 -14 2 -23 -3 -13 -7 -25 -4 -43 10 l-25 20 -17 -73 c-31
-129 -35 -169 -22 -186 9 -11 9 -13 0 -8 -6 4 -14 3 -18 -3 -9 -14 38 -13 53
2 9 9 12 9 12 0 0 -9 25 -12 90 -11 81 2 90 4 90 21 0 11 4 17 9 13 6 -3 10 3
10 12 2 31 8 67 16 85 4 9 4 22 0 28 -3 5 -2 10 3 10 5 0 14 28 21 63 6 34 14
74 18 90 7 33 -3 34 -42 2z"/>
</g>
</svg>
