<?xml version="1.0" standalone="no"?>
<!DOCTYPE svg PUBLIC "-//W3C//DTD SVG 20010904//EN"
 "http://www.w3.org/TR/2001/REC-SVG-20010904/DTD/svg10.dtd">
<svg version="1.0" xmlns="http://www.w3.org/2000/svg"
 width="1080.000000pt" height="1080.000000pt" viewBox="0 0 1080.000000 1080.000000"
 preserveAspectRatio="xMidYMid meet">
<metadata>
Created by potrace 1.16, written by Peter Selinger 2001-2019
</metadata>
<g transform="translate(0.000000,1080.000000) scale(0.100000,-0.100000)"
fill="#000000" stroke="none">
<path d="M0 6640 l0 -4160 198 -1 c108 -1 213 0 233 1 21 1 40 -3 44 -9 3 -6
16 -11 28 -12 12 -1 2 -6 -22 -11 -30 -7 -47 -6 -54 1 -6 6 -20 11 -32 11 -12
0 -16 -3 -8 -8 6 -4 -24 -7 -68 -7 -74 0 -95 6 -67 19 7 3 2 3 -12 0 -14 -4
-33 -13 -43 -22 -16 -14 -17 -14 -12 0 4 9 1 19 -6 24 -7 4 -10 3 -5 -4 9 -14
-15 -21 -37 -10 -10 5 -31 5 -53 -1 -31 -8 -34 -8 -23 5 10 13 8 13 -15 4 -15
-5 -32 -8 -37 -4 -5 3 -9 -483 -9 -1225 l0 -1231 5400 0 5400 0 0 254 0 254
-31 7 c-21 5 -34 3 -39 -5 -5 -7 -9 -8 -11 -2 -4 10 -36 16 -69 13 -12 -1 -12
-3 -2 -10 11 -7 10 -9 -3 -14 -9 -4 -13 -3 -10 3 3 5 -3 15 -14 22 -19 12 -19
13 4 73 12 33 35 85 50 115 18 36 22 50 11 41 -10 -8 -16 -9 -16 -3 0 18 -26
3 -38 -21 -8 -16 -11 -18 -11 -6 -1 9 6 22 14 29 9 7 13 15 10 18 -3 3 -1 10
5 16 5 7 5 28 -1 54 -5 24 -7 47 -4 53 4 5 -1 9 -9 9 -9 0 -16 7 -16 16 0 8
-4 12 -10 9 -6 -4 -10 7 -10 27 0 31 -1 31 -29 -23 -38 -73 -77 -136 -91 -144
-14 -9 19 57 32 66 5 3 10 9 9 12 0 4 11 32 26 63 17 38 23 65 19 85 -3 16 -2
29 3 29 9 0 20 70 27 177 6 93 35 149 99 190 83 52 105 77 105 119 0 31 -2 35
-15 24 -8 -6 -13 -15 -12 -18 2 -7 -7 -12 -22 -12 -22 0 5 53 32 63 15 6 17
24 17 187 0 99 -4 180 -9 180 -5 0 -14 -7 -22 -16 -15 -18 -62 -44 -90 -49
-19 -4 -19 -4 0 23 36 50 89 95 105 89 14 -6 16 20 16 235 0 213 -2 239 -15
228 -8 -7 -15 -10 -15 -6 0 4 -12 -1 -26 -11 -24 -15 -27 -15 -38 -1 -10 14
-14 14 -30 2 -11 -7 -23 -11 -29 -7 -5 3 -13 -1 -18 -8 -7 -11 -9 -9 -9 6 0
16 -2 17 -10 5 -5 -8 -12 -11 -16 -7 -4 4 -13 2 -21 -4 -9 -9 -13 -8 -13 0 0
6 -5 11 -11 11 -5 0 -8 -4 -5 -9 3 -5 -3 -11 -14 -14 -16 -4 -18 -2 -11 12 7
13 5 17 -9 17 -10 0 -16 -4 -14 -8 3 -4 0 -8 -5 -8 -6 0 -11 4 -11 10 0 6 -9
6 -22 1 -13 -4 -29 -6 -36 -4 -7 3 -18 0 -25 -6 -15 -12 -57 -11 -57 2 0 5 -7
4 -15 -3 -12 -10 -18 -10 -30 0 -11 9 -18 10 -29 1 -24 -20 -56 -22 -56 -3 0
15 -2 15 -10 2 -9 -13 -14 -7 -11 12 0 4 -6 5 -14 1 -12 -4 -13 -9 -5 -18 8
-9 8 -15 0 -20 -6 -3 -8 -11 -5 -16 4 -5 2 -9 -4 -9 -18 0 -21 18 -5 24 12 5
14 10 5 20 -6 7 -8 16 -4 19 3 4 -1 7 -10 7 -10 0 -17 7 -17 15 0 13 44 15
335 15 l335 0 0 4160 0 4160 -5400 0 -5400 0 0 -4160z m548 3124 c49 -55 8
-144 -68 -144 -10 0 -31 11 -47 24 -22 20 -28 32 -27 65 3 85 85 117 142 55z
m115 -16 l32 -52 3 52 c3 44 6 52 23 52 17 0 19 -7 19 -85 0 -83 -1 -85 -24
-85 -19 0 -31 12 -55 53 l-31 52 0 -52 c0 -46 -3 -53 -20 -53 -18 0 -20 7 -20
85 0 79 1 85 20 85 14 0 31 -17 53 -52z m399 -5 l33 -58 3 58 c2 42 7 57 17
57 12 0 15 -17 15 -85 0 -82 -1 -85 -23 -85 -17 0 -30 14 -54 58 l-33 57 0
-57 c0 -51 -2 -58 -20 -58 -18 0 -20 7 -20 78 0 43 3 82 7 85 19 20 44 3 75
-50z m226 35 c3 -15 -4 -18 -42 -18 -34 0 -46 -4 -46 -15 0 -11 11 -15 40 -15
29 0 40 -4 40 -15 0 -11 -11 -15 -40 -15 -33 0 -40 -3 -40 -20 0 -17 7 -20 45
-20 33 0 45 -4 45 -15 0 -12 -14 -15 -65 -15 l-65 0 0 78 c0 43 3 82 7 86 4 4
32 6 63 4 43 -2 56 -7 58 -20z m529 -63 l30 -85 -22 0 c-13 0 -25 7 -29 15 -3
9 -18 15 -36 15 -18 0 -33 -6 -36 -15 -6 -16 -44 -21 -44 -6 0 9 48 140 56
153 3 4 15 8 27 8 19 0 27 -13 54 -85z m491 63 c3 -15 -4 -18 -37 -18 -54 0
-58 -27 -4 -32 52 -4 56 -28 5 -28 -31 0 -41 -4 -45 -20 -5 -18 0 -20 39 -20
32 0 44 -4 44 -15 0 -20 -115 -22 -123 -2 -4 10 -3 102 2 145 1 9 17 12 58 10
46 -2 59 -7 61 -20z m420 6 c23 -16 29 -48 11 -60 -8 -4 -8 -9 0 -17 15 -15
14 -50 -1 -65 -7 -7 -36 -12 -65 -12 l-53 0 0 78 c0 43 3 82 7 85 12 13 79 7
101 -9z m1692 -69 c0 -47 -4 -85 -9 -85 -5 0 -22 -3 -39 -6 -61 -12 -97 71
-51 117 14 14 29 19 45 16 18 -3 24 0 24 13 0 18 9 30 22 30 4 0 8 -38 8 -85z
m1370 -1 c0 -69 -3 -85 -14 -81 -7 3 -18 1 -24 -5 -18 -18 -62 0 -73 29 -22
58 15 112 67 99 21 -6 24 -3 24 19 0 14 5 25 10 25 6 0 10 -35 10 -86z m3880
62 c0 -19 4 -22 24 -19 55 11 88 -75 46 -117 -22 -22 -24 -23 -69 -14 l-31 7
0 83 c0 68 3 84 15 84 9 0 15 -9 15 -24z m-7246 -352 c22 -21 20 -61 -3 -76
-18 -11 -18 -12 1 -45 17 -27 17 -33 5 -33 -8 0 -24 16 -36 35 -13 22 -28 35
-41 35 -16 0 -20 -6 -20 -35 0 -19 -4 -35 -10 -35 -6 0 -10 35 -10 85 l0 85
49 0 c32 0 55 -6 65 -16z m598 4 c26 -21 28 -45 7 -72 l-20 -26 21 -30 c20
-28 20 -30 3 -30 -11 0 -26 15 -37 35 -11 21 -27 35 -38 35 -14 0 -18 -8 -18
-35 0 -24 -5 -35 -15 -35 -12 0 -15 16 -15 85 l0 85 48 0 c27 0 55 -6 64 -12z
m665 -12 c22 -20 28 -32 27 -65 -2 -55 -26 -81 -76 -81 -51 0 -78 27 -78 80 0
30 7 47 25 65 31 32 66 32 102 1z m545 10 c24 -18 40 -65 33 -96 -11 -41 -34
-60 -76 -60 -46 0 -79 36 -79 87 0 64 74 106 122 69z m183 -6 c20 -22 14 -67
-10 -77 -13 -4 -12 -11 6 -39 18 -29 18 -34 4 -34 -8 0 -25 16 -36 35 -12 20
-29 35 -40 35 -15 0 -19 -7 -19 -35 0 -24 -5 -35 -15 -35 -12 0 -15 16 -15 85
l0 85 53 0 c41 0 58 -5 72 -20z m680 -5 c17 -16 25 -35 25 -60 0 -53 -36 -85
-95 -85 l-45 0 0 85 0 85 45 0 c35 0 52 -6 70 -25z m859 4 c21 -17 26 -29 26
-65 0 -55 -25 -84 -75 -84 -50 0 -75 29 -75 84 0 36 5 48 26 65 15 12 37 21
49 21 12 0 34 -9 49 -21z m711 -4 c17 -16 25 -35 25 -60 0 -53 -36 -85 -95
-85 l-45 0 0 85 0 85 45 0 c35 0 52 -6 70 -25z m519 4 c21 -16 26 -29 26 -63
0 -60 -22 -86 -71 -86 -52 0 -79 27 -79 80 0 76 67 113 124 69z m87 -41 c13
-67 18 -64 39 20 15 59 36 54 51 -13 12 -52 29 -75 29 -37 0 35 21 92 34 92
11 0 9 -18 -8 -82 -28 -106 -48 -115 -66 -28 -7 33 -15 58 -17 56 -3 -2 -10
-28 -17 -58 -17 -79 -39 -76 -60 9 -9 37 -19 76 -22 86 -3 11 0 17 10 17 10 0
19 -19 27 -62z m-1191 -314 c0 -22 4 -25 21 -21 28 7 69 -33 69 -68 0 -24 -31
-65 -49 -65 -5 0 -23 3 -40 6 l-31 7 0 83 c0 68 3 84 15 84 10 0 15 -10 15
-26z m820 -63 l0 -79 -41 -7 c-50 -9 -79 13 -79 60 0 44 21 68 59 67 24 0 31
3 31 19 0 10 7 19 15 19 12 0 15 -15 15 -79z m1808 0 l1 -79 -40 -7 c-50 -9
-79 13 -79 60 0 44 21 68 59 67 24 0 31 3 31 19 0 10 6 19 14 19 11 0 14 -18
14 -79z m952 0 l0 -79 -41 -7 c-50 -9 -79 13 -79 60 0 44 21 68 59 67 24 0 31
3 31 19 0 10 7 19 15 19 12 0 15 -15 15 -79z m-7402 36 c15 6 17 -119 2 -148
-16 -30 -100 -24 -100 7 0 16 16 19 25 4 11 -18 55 -12 55 8 0 13 -8 17 -32
17 -24 0 -36 6 -47 26 -28 49 13 107 64 89 11 -4 26 -5 33 -3z m690 0 c15 6
17 -119 2 -148 -13 -23 -72 -26 -90 -4 -16 19 -5 34 12 17 19 -19 55 -14 61 8
4 16 1 18 -23 13 -20 -4 -34 1 -49 16 -28 28 -27 56 3 86 20 20 30 23 48 16
13 -4 29 -6 36 -4z m2002 -67 c0 -80 -13 -100 -65 -100 -24 0 -38 6 -45 20
-12 23 0 27 29 8 22 -13 51 -5 51 15 0 10 -8 13 -25 9 -50 -9 -86 58 -52 100
16 20 32 25 73 20 l34 -4 0 -68z m5090 -4 c0 -43 -5 -77 -12 -84 -24 -24 -98
-9 -98 20 0 4 7 8 15 8 8 0 15 -5 15 -11 0 -17 54 -6 58 12 2 12 -4 15 -26 11
-40 -5 -64 21 -60 67 3 41 31 60 78 53 l30 -4 0 -72z m-8879 -297 c41 -41 5
-126 -48 -116 -17 3 -23 -1 -23 -14 0 -11 -7 -19 -15 -19 -12 0 -15 15 -15 79
0 75 1 80 23 84 45 9 57 7 78 -14z m-371 -464 c0 -32 2 -35 30 -35 28 0 30 3
30 35 0 28 4 35 20 35 18 0 20 -7 20 -85 0 -78 -2 -85 -20 -85 -16 0 -20 7
-20 35 0 32 -2 35 -30 35 -28 0 -30 -3 -30 -35 0 -28 -4 -35 -20 -35 -18 0
-20 7 -20 85 0 78 2 85 20 85 16 0 20 -7 20 -35z m404 14 c21 -16 26 -29 26
-64 0 -58 -32 -85 -101 -85 l-49 0 0 85 0 85 49 0 c34 0 56 -6 75 -21z m638 4
c10 -9 18 -20 18 -25 0 -11 -38 -10 -45 2 -9 15 -45 12 -45 -4 0 -8 14 -17 33
-21 44 -10 57 -22 57 -56 0 -33 -23 -49 -69 -49 -30 0 -71 29 -71 50 0 16 31
12 51 -6 19 -17 49 -13 49 6 0 6 -8 13 -17 16 -65 21 -73 27 -73 53 0 15 5 32
12 39 17 17 78 15 100 -5z m375 -3 c42 -39 34 -126 -12 -144 -71 -27 -131 18
-122 89 4 24 14 47 27 57 29 24 81 23 107 -2z m185 3 c22 -20 23 -51 2 -74
-15 -17 -15 -20 0 -43 21 -32 20 -36 -4 -36 -13 0 -28 12 -38 30 -22 39 -42
39 -42 0 0 -23 -4 -30 -20 -30 -18 0 -20 7 -20 85 l0 85 52 0 c34 0 58 -6 70
-17z m549 -67 c16 -44 29 -81 29 -83 0 -2 -9 -3 -21 -3 -12 0 -23 8 -26 20 -4
15 -14 20 -38 20 -25 0 -35 -5 -40 -20 -6 -18 -45 -30 -45 -14 0 9 49 144 56
156 3 5 17 8 31 6 22 -3 29 -14 54 -82z m2759 1 l0 -83 -42 -1 c-52 -3 -78 18
-78 62 0 40 30 69 65 63 21 -4 25 -1 25 18 0 15 6 24 15 24 12 0 15 -16 15
-83z m-3120 -356 l0 -79 -41 -7 c-31 -5 -45 -3 -60 11 -44 39 -7 133 47 120
19 -5 24 -3 24 14 0 11 7 20 15 20 12 0 15 -15 15 -79z m460 0 l0 -79 -41 -7
c-31 -5 -45 -3 -60 11 -44 39 -7 133 47 120 19 -5 24 -3 24 14 0 11 7 20 15
20 12 0 15 -15 15 -79z m4870 0 l0 -79 -41 -7 c-31 -5 -45 -3 -60 11 -44 39
-7 133 47 120 19 -5 24 -3 24 14 0 11 7 20 15 20 12 0 15 -15 15 -79z m-2000
29 c42 -42 13 -126 -41 -118 -25 4 -29 1 -29 -19 0 -14 -6 -23 -15 -23 -12 0
-15 16 -15 84 0 93 -5 86 68 95 6 0 21 -8 32 -19z m-5319 -515 c16 -44 29 -81
29 -82 0 -2 -9 -3 -21 -3 -12 0 -23 8 -26 20 -4 15 -14 20 -38 20 -25 0 -35
-5 -40 -20 -4 -11 -15 -20 -27 -20 -15 0 -18 4 -13 18 4 9 16 42 26 72 11 30
21 61 24 68 3 8 16 12 31 10 23 -3 30 -13 55 -83z m631 68 c22 -20 23 -56 2
-77 -14 -14 -14 -18 0 -38 21 -30 20 -38 -4 -38 -12 0 -26 12 -35 30 -9 17
-22 30 -30 30 -10 0 -15 -10 -15 -30 0 -23 -4 -30 -20 -30 -18 0 -20 7 -20 85
l0 85 52 0 c34 0 58 -6 70 -17z m218 -55 c34 -101 34 -98 11 -98 -11 0 -22 9
-26 20 -9 28 -58 27 -77 -1 -7 -12 -21 -20 -30 -18 -13 4 -11 15 15 87 27 75
32 82 56 82 25 0 29 -7 51 -72z m180 52 c40 -40 15 -90 -46 -90 -31 0 -34 -2
-34 -30 0 -23 -4 -30 -20 -30 -18 0 -20 7 -20 85 l0 85 50 0 c37 0 55 -5 70
-20z m158 4 c46 -32 18 -94 -44 -94 -31 0 -34 -2 -34 -30 0 -23 -4 -30 -20
-30 -18 0 -20 7 -20 85 l0 85 48 0 c27 0 57 -7 70 -16z m459 -36 l32 -53 1 53
c0 45 3 52 20 52 18 0 20 -7 20 -85 0 -81 -1 -85 -22 -85 -17 0 -31 14 -53 53
l-30 52 -3 -52 c-3 -45 -6 -53 -23 -53 -17 0 -19 7 -19 85 0 82 1 85 23 85 16
0 31 -14 54 -52z m198 -8 c12 -58 17 -54 31 23 5 30 10 37 29 37 21 0 24 -6
31 -56 7 -62 17 -57 29 14 5 32 11 42 26 42 23 0 23 -7 1 -95 -16 -62 -21 -70
-42 -70 -21 0 -26 7 -35 50 -12 53 -13 53 -30 -27 -4 -21 -11 -28 -29 -28 -21
0 -26 7 -40 71 -20 90 -20 101 1 97 12 -2 21 -19 28 -58z m225 25 c0 -33 2
-35 35 -35 33 0 35 2 35 35 0 28 4 35 20 35 18 0 20 -7 20 -85 0 -78 -2 -85
-20 -85 -16 0 -20 7 -20 35 0 33 -2 35 -35 35 -33 0 -35 -2 -35 -35 0 -28 -4
-35 -20 -35 -18 0 -20 7 -20 85 0 78 2 85 20 85 16 0 20 -7 20 -35z m268 -47
c26 -72 28 -83 14 -87 -9 -2 -23 6 -30 18 -19 28 -68 29 -77 1 -3 -11 -15 -20
-26 -20 -23 0 -23 -5 0 61 37 105 39 109 65 109 21 0 28 -10 54 -82z m316 25
l35 -58 1 58 c0 44 3 57 15 57 12 0 15 -16 15 -85 0 -77 -2 -85 -19 -85 -13 0
-32 20 -55 58 l-35 57 -1 -57 c0 -45 -3 -58 -15 -58 -12 0 -15 16 -15 85 0 77
2 85 19 85 13 0 32 -20 55 -57z m-2250 -449 c9 -8 16 -26 16 -39 0 -33 -26
-55 -66 -55 -29 0 -34 -3 -34 -24 0 -23 -22 -41 -34 -29 -3 4 -6 42 -6 85 l0
78 54 0 c36 0 60 -5 70 -16z m-553 -405 l16 -64 13 57 c23 102 40 103 63 3 14
-56 15 -58 22 -30 22 90 27 105 35 105 13 0 13 -1 -7 -92 -13 -62 -20 -78 -34
-78 -14 0 -21 14 -31 60 -13 64 -21 62 -33 -8 -6 -39 -27 -63 -41 -49 -6 5
-44 145 -44 160 0 5 6 7 13 5 6 -3 19 -33 28 -69z m1517 -17 c2 -73 1 -82 -15
-82 -10 0 -28 -3 -40 -6 -28 -8 -63 27 -63 64 0 45 27 75 61 68 26 -5 29 -3
29 20 0 16 5 24 13 22 8 -3 13 -32 15 -86z m-917 -412 c13 -7 19 -21 19 -43 0
-42 -15 -57 -57 -57 -30 0 -33 -3 -33 -30 0 -23 -4 -30 -20 -30 -18 0 -20 7
-20 85 l0 85 46 0 c25 0 54 -5 65 -10z m2309 -429 l0 -79 -42 -7 c-36 -6 -44
-4 -60 15 -27 33 -23 75 9 99 15 13 34 19 45 16 13 -5 18 -1 18 14 0 12 7 21
15 21 12 0 15 -15 15 -79z m660 29 c42 -42 13 -126 -41 -118 -25 4 -29 1 -29
-19 0 -14 -6 -23 -15 -23 -12 0 -15 16 -15 84 0 93 -5 86 68 95 6 0 21 -8 32
-19z m3663 8 c14 1 17 -9 17 -64 0 -36 -5 -74 -10 -85 -13 -23 -72 -26 -90 -4
-16 19 -5 34 12 17 19 -19 55 -14 61 8 4 16 1 18 -22 14 -32 -6 -58 12 -66 48
-9 34 35 84 63 73 9 -4 25 -7 35 -7z m-6685 -454 c25 -17 30 -65 8 -83 -8 -7
-30 -15 -50 -18 -30 -5 -36 -10 -36 -29 0 -17 -6 -24 -20 -24 -18 0 -20 7 -20
78 0 43 3 82 7 85 12 13 89 7 111 -9z m-452 -370 c16 -24 16 -26 -4 -53 -20
-28 -20 -28 -1 -60 16 -26 16 -31 4 -31 -9 0 -25 16 -36 35 -12 20 -29 35 -40
35 -15 0 -19 -7 -19 -35 0 -24 -5 -35 -15 -35 -12 0 -15 16 -15 85 l0 85 55 0
c47 0 57 -3 71 -26z m3324 -544 l0 -78 -41 -7 c-31 -5 -45 -3 -60 11 -44 39
-7 133 47 120 19 -5 24 -2 24 12 0 10 3 22 6 25 16 16 24 -10 24 -83z m-3344
-295 c21 -33 14 -113 -12 -132 -48 -35 -94 -2 -94 69 0 68 13 88 55 88 26 0
39 -6 51 -25z m138 9 c18 -18 21 -40 6 -49 -8 -5 -7 -11 0 -20 6 -8 10 -26 8
-42 -7 -60 -108 -55 -108 6 0 16 5 33 11 37 8 4 8 9 0 17 -17 17 -13 45 7 56
25 15 58 13 76 -5z m150 -6 c23 -33 21 -103 -4 -128 -46 -46 -100 -9 -100 69
0 32 6 55 16 65 23 24 70 20 88 -6z m291 9 c13 -10 16 -22 12 -43 -3 -16 -1
-37 4 -46 22 -42 -37 -82 -87 -59 -25 11 -32 43 -15 70 6 9 5 21 -2 32 -9 14
-7 22 7 38 22 24 54 27 81 8z m3935 -67 c0 -44 -4 -80 -9 -80 -5 0 -22 -3 -39
-6 -61 -12 -97 71 -51 117 14 14 28 19 45 15 19 -5 24 -3 24 14 0 11 7 20 15
20 12 0 15 -16 15 -80z m780 1 l0 -79 -41 -7 c-31 -5 -45 -3 -60 11 -44 39 -7
133 47 120 19 -5 24 -3 24 14 0 11 7 20 15 20 12 0 15 -15 15 -79z m-4105
-287 c56 -26 67 -107 18 -132 -26 -14 -114 -7 -124 9 -26 42 10 89 67 87 l36
-1 -7 -44 c-5 -35 -3 -43 10 -43 14 0 35 36 35 61 0 5 -11 21 -25 34 -37 38
-95 35 -129 -6 -61 -72 -5 -151 97 -135 33 6 39 4 30 -5 -19 -19 -95 -16 -126
4 -60 39 -56 129 6 167 39 24 68 25 112 4z m140 -44 c10 -33 22 -57 25 -53 4
4 15 32 25 61 12 39 21 52 36 52 17 0 19 -8 19 -85 0 -69 -3 -85 -15 -85 -11
0 -15 13 -16 53 l-1 52 -17 -50 c-25 -69 -43 -69 -67 2 l-19 58 -3 -57 c-5
-90 -22 -68 -22 27 0 76 2 85 18 85 14 0 23 -15 37 -60z m469 -2 c36 -50 2
-127 -50 -114 -19 5 -24 3 -24 -14 0 -11 -7 -20 -15 -20 -12 0 -15 15 -15 79
0 75 1 80 23 84 49 9 66 6 81 -15z m652 -3 c38 -51 -8 -128 -66 -110 -16 5
-20 2 -20 -14 0 -12 -4 -21 -10 -21 -6 0 -10 35 -10 84 l0 84 46 -2 c32 -1 50
-7 60 -21z m-1243 -307 c66 -35 63 -117 -5 -141 -10 -3 -20 -2 -22 2 -3 5 -17
6 -31 3 -31 -6 -55 13 -55 44 0 34 26 54 71 54 l39 0 -7 -45 c-3 -28 -2 -45 4
-45 20 0 34 29 31 62 -2 27 -10 36 -40 51 -33 16 -40 17 -71 3 -52 -21 -73
-77 -47 -126 15 -27 74 -44 110 -31 17 5 30 6 30 2 0 -13 -27 -21 -72 -21 -54
0 -98 43 -98 95 0 52 53 105 105 105 20 0 46 -5 58 -12z m-673 -102 c0 -39 -4
-76 -8 -82 -14 -22 -52 -26 -77 -10 -28 18 -33 36 -10 36 8 0 15 -5 15 -11 0
-17 54 -6 58 12 2 12 -4 15 -28 11 -40 -6 -60 13 -60 57 0 48 15 61 67 59 l43
-1 0 -71z m1134 52 c33 -46 7 -108 -45 -108 -22 0 -29 -5 -29 -20 0 -11 -7
-20 -15 -20 -12 0 -15 16 -15 85 l0 85 44 0 c35 0 48 -5 60 -22z m1611 -10
c11 -52 18 -55 30 -12 14 51 41 57 50 12 12 -53 19 -56 31 -13 9 35 15 40 42
43 28 3 31 0 38 -33 9 -50 21 -52 29 -5 9 52 40 57 50 8 11 -52 18 -55 30 -12
9 34 15 39 42 42 31 3 33 1 45 -45 l12 -48 14 48 c17 62 41 61 57 -3 l11 -45
12 48 c8 31 18 47 28 47 9 0 14 -6 12 -12 -3 -7 -13 -37 -22 -65 -10 -29 -24
-53 -31 -53 -7 0 -20 19 -28 43 l-14 42 -13 -42 c-7 -24 -19 -43 -26 -43 -7 0
-20 24 -29 53 -10 28 -21 56 -25 60 -3 4 -15 -20 -25 -53 -21 -69 -43 -77 -59
-22 -5 17 -12 32 -16 32 -4 0 -11 -15 -16 -32 -16 -56 -39 -47 -59 24 l-18 63
-21 -63 c-23 -73 -43 -78 -60 -17 -12 43 -19 40 -31 -13 -10 -48 -35 -37 -56
23 -22 62 -23 75 -5 75 8 0 17 -14 21 -32z m1335 -44 c0 -67 -2 -75 -24 -89
-27 -18 -74 -11 -83 12 -8 19 5 29 19 15 18 -18 55 -14 60 6 4 15 0 17 -27 14
-25 -3 -36 1 -49 19 -20 29 -20 48 0 77 12 18 24 22 60 20 l44 -1 0 -73z m850
4 c0 -55 -4 -72 -20 -88 -25 -25 -51 -25 -81 -1 -28 22 -18 41 11 23 27 -17
60 -15 60 3 0 10 -10 15 -27 15 -55 0 -83 61 -46 102 11 13 29 18 60 16 l43
-1 0 -69z m1544 -688 c91 -11 146 -28 96 -31 -97 -5 -198 -19 -226 -30 -16 -7
-33 -13 -37 -13 -5 -1 -14 -9 -21 -18 -7 -10 -16 -15 -20 -11 -4 4 -5 1 -2 -7
9 -25 18 -74 17 -95 0 -18 1 -19 10 -2 6 9 14 17 18 17 13 0 22 -43 11 -54 -7
-7 -10 -6 -10 2 0 7 -8 12 -17 12 -15 0 -16 -2 -3 -10 8 -5 11 -10 6 -10 -5 0
-3 -6 3 -13 8 -10 4 -19 -19 -35 -16 -12 -34 -22 -40 -22 -5 0 -10 -4 -10 -8
0 -5 -6 -9 -12 -10 -7 0 -30 -5 -51 -11 -22 -5 -55 -8 -75 -6 -20 2 -45 -3
-59 -12 -21 -14 -25 -14 -42 1 -9 9 -30 16 -46 16 -16 0 -36 7 -45 15 -14 13
-22 11 -65 -10 -95 -46 -155 -23 -109 43 18 26 8 29 -19 5 -19 -17 -20 -17
-14 -1 3 10 1 20 -5 24 -7 4 -8 3 -4 -4 4 -7 2 -12 -3 -12 -14 0 -14 3 1 35 6
14 15 25 20 25 5 0 6 6 2 13 -4 6 -4 9 0 5 5 -4 31 11 59 33 110 88 311 163
477 179 112 11 137 11 234 0z m-6608 -61 c15 -29 20 -114 6 -105 -4 2 -6 -11
-4 -30 5 -39 -14 -47 -27 -11 -6 14 -5 27 3 36 9 12 8 14 -6 9 -12 -5 -22 6
-42 48 -14 30 -31 54 -37 54 -6 0 -9 -6 -6 -12 7 -19 -90 -13 -112 5 -13 13
-18 13 -28 2 -9 -10 -28 -12 -64 -9 -33 3 -56 1 -67 -8 -15 -12 -16 -11 -3 5
12 15 10 18 -20 25 -22 4 25 9 136 12 274 9 254 11 271 -21z m2438 21 c18 -6
26 -19 30 -42 15 -90 16 -108 4 -108 -6 0 -3 -9 8 -21 19 -21 19 -21 -8 -9
-14 7 -25 18 -24 24 2 6 1 8 -1 3 -3 -4 -9 -4 -15 -1 -6 4 -5 -2 1 -15 15 -27
0 -28 -17 0 -10 15 -16 18 -26 10 -17 -14 -74 7 -81 30 -3 10 -13 23 -22 31
-16 12 -15 11 0 -12 9 -13 17 -28 17 -32 0 -7 -37 9 -50 22 -3 3 -12 6 -20 6
-8 1 -39 11 -68 23 -34 14 -51 17 -47 9 4 -7 0 -5 -8 5 -15 18 -32 24 -22 7 3
-6 -1 -7 -9 -4 -9 3 -16 1 -16 -5 0 -6 7 -11 16 -11 9 0 12 -5 8 -12 -4 -7 -3
-8 4 -4 6 4 21 2 33 -5 17 -9 20 -8 13 3 -7 11 -5 11 9 0 9 -8 21 -11 27 -7 5
3 10 0 10 -9 0 -8 7 -13 18 -11 9 1 26 -2 37 -8 23 -13 27 -14 56 -16 11 0 18
-4 16 -8 -3 -5 11 -9 31 -10 19 -1 38 -7 42 -13 4 -6 11 -10 16 -9 16 5 74
-12 74 -22 0 -5 6 -8 13 -6 7 1 12 -10 13 -28 1 -40 -5 -49 -22 -34 -8 6 -14
8 -14 3 0 -5 -7 0 -15 10 -11 14 -15 16 -15 5 0 -12 -2 -12 -10 1 -5 8 -10 10
-10 3 0 -6 -9 -9 -20 -6 -11 3 -20 9 -20 14 0 4 -9 6 -20 4 -11 -2 -20 1 -20
7 0 6 -3 8 -7 5 -3 -4 -13 -1 -21 6 -9 7 -13 7 -9 1 4 -7 -2 -10 -18 -6 -14 2
-22 8 -19 13 3 5 2 9 -3 8 -4 -1 -10 0 -13 1 -22 8 -39 7 -33 -3 5 -8 2 -8 -9
0 -8 7 -18 10 -21 6 -4 -3 -7 0 -7 7 0 7 -3 10 -7 7 -3 -4 -13 -1 -21 6 -13
10 -14 9 -7 -3 8 -13 7 -13 -8 -1 -9 7 -17 10 -17 5 0 -5 -4 -3 -9 5 -11 18
-44 25 -34 8 3 -7 -4 -3 -17 8 -14 12 -20 14 -15 5 5 -9 0 -8 -13 4 -12 11
-22 15 -22 11 0 -4 -10 0 -22 11 -13 12 -18 13 -13 4 7 -12 6 -13 -6 -3 -15
12 -19 13 -44 13 -12 0 -14 7 -11 28 2 15 5 37 5 49 1 17 6 20 24 16 20 -4 21
-3 5 10 -10 8 -18 17 -18 20 0 4 73 8 163 10 89 1 199 4 244 5 45 1 93 -2 107
-8z m-2343 -9 c-27 -17 70 -24 102 -8 23 12 81 15 289 16 233 1 260 0 248 -14
-7 -8 -9 -15 -4 -15 5 0 -7 -11 -26 -24 -30 -20 -44 -23 -93 -20 -37 3 -64 1
-73 -7 -8 -6 -14 -8 -14 -4 0 4 -7 2 -15 -5 -8 -6 -18 -9 -22 -7 -5 3 -14 -6
-20 -20 -10 -20 -9 -24 1 -20 16 6 16 -34 1 -45 -6 -5 -5 -11 4 -17 11 -7 11
-13 0 -32 -7 -15 -14 -19 -17 -11 -2 6 -8 10 -13 6 -5 -3 -9 1 -9 9 0 8 -7 18
-15 21 -9 3 -15 11 -14 18 6 32 -41 178 -57 178 -3 0 -3 -4 0 -9 3 -5 -15 -4
-40 1 -28 6 -59 6 -82 1 -35 -9 -33 -10 22 -9 39 1 61 -3 63 -12 3 -6 8 -10
13 -7 5 3 18 -7 30 -22 13 -16 17 -29 11 -31 -6 -2 -9 -8 -5 -13 3 -5 1 -9 -4
-9 -16 0 -21 12 -12 29 8 15 2 18 -38 20 -26 1 -48 6 -50 12 -2 5 -8 9 -13 9
-6 0 -7 -4 -4 -10 3 -5 -1 -10 -10 -10 -9 0 -13 5 -10 10 3 6 1 10 -4 10 -12
0 -13 -7 -2 -34 6 -17 9 -17 21 -4 8 8 23 13 33 10 10 -3 15 -8 9 -11 -5 -3
-12 -19 -16 -35 -6 -25 -5 -28 7 -17 12 9 16 9 20 -2 3 -8 0 -14 -6 -14 -7 0
-21 -4 -31 -9 -16 -6 -18 -4 -13 10 4 10 9 28 11 39 2 12 1 16 -1 10 -7 -19
-17 -16 -41 12 -25 29 -62 34 -58 8 2 -9 8 -19 14 -21 7 -2 12 -8 12 -13 0
-14 -24 0 -38 22 -8 12 -9 18 -3 15 7 -4 8 -1 5 8 -3 9 -10 14 -14 11 -10 -6
-9 -45 1 -45 3 0 6 -10 5 -22 -1 -13 2 -26 7 -29 5 -4 8 -12 5 -19 -2 -8 -12
-5 -28 9 -14 12 -20 20 -15 19 6 -2 11 0 13 5 5 17 1 27 -13 27 -8 0 -15 5
-15 11 0 5 5 7 10 4 6 -3 10 3 10 14 0 14 -5 19 -15 15 -11 -5 -15 1 -15 24 0
24 -5 31 -25 36 -14 4 -30 4 -35 1 -6 -4 -10 -1 -10 4 0 7 22 11 53 11 34 0
47 -3 38 -9z m1207 -26 c-13 -40 -47 -56 -105 -49 l-38 4 33 -20 c24 -15 38
-18 51 -11 13 7 30 4 64 -13 25 -13 48 -21 51 -19 3 3 8 -6 12 -21 3 -14 10
-26 14 -26 21 0 39 -123 20 -135 -6 -4 -7 -12 -4 -18 4 -7 4 -9 -1 -5 -4 4
-19 -1 -32 -12 -17 -13 -30 -16 -41 -11 -9 5 -29 14 -44 21 -30 14 -41 46 -33
94 5 23 2 36 -9 46 -12 9 -15 22 -10 44 5 29 2 34 -38 56 -24 14 -46 25 -50
25 -4 0 -13 8 -20 18 -10 13 -31 19 -85 22 -48 3 -82 11 -105 25 l-33 20 207
0 206 0 -10 -35z m2192 3 c0 -18 -5 -40 -10 -48 -7 -11 -10 -7 -10 18 0 37 1
37 -36 17 -20 -10 -59 -15 -121 -15 -78 0 -93 -3 -93 -16 0 -13 -11 -10 -55
15 -30 17 -60 31 -67 31 -7 1 -26 7 -43 15 -27 12 -3 13 203 14 l232 1 0 -32z
m4960 22 c0 -5 -7 -10 -15 -10 -9 0 -12 -6 -9 -15 9 -22 -22 -29 -69 -15 -32
9 -42 9 -45 0 -3 -9 -7 -9 -13 1 -6 10 -9 10 -9 2 0 -7 -6 -10 -12 -8 -7 2
-26 7 -41 9 -24 4 -28 2 -22 -12 4 -12 3 -14 -5 -6 -6 6 -22 9 -36 6 -25 -5
-31 -16 -14 -27 6 -4 8 -11 5 -16 -3 -5 0 -6 8 -3 8 3 21 -3 28 -14 8 -10 22
-18 32 -16 9 1 17 -1 17 -5 0 -5 12 -6 26 -3 16 3 30 -1 35 -9 7 -11 9 -11 9
3 0 21 9 26 56 33 86 12 96 16 89 33 -4 11 -3 14 4 7 11 -12 101 -318 101
-345 0 -17 -28 -36 -38 -25 -3 3 0 5 6 5 7 0 12 4 12 9 0 5 -9 7 -20 4 -10 -3
-18 -10 -17 -17 1 -6 -13 -12 -32 -14 -26 -3 -31 -6 -20 -13 9 -7 -3 -8 -36
-3 -27 3 -54 7 -60 8 -5 0 -9 -8 -7 -19 2 -18 2 -18 -8 -2 -6 9 -18 17 -25 17
-8 0 -15 4 -15 9 0 5 -16 16 -36 26 -23 11 -34 22 -30 31 6 15 -2 17 -44 15
-20 -2 -22 0 -10 8 8 6 10 11 5 11 -18 0 -56 -31 -50 -41 4 -5 1 -9 -4 -9 -6
0 -11 4 -11 8 0 5 -7 9 -15 10 -8 1 -22 3 -30 4 -13 1 -15 29 -15 184 0 100
-3 189 -6 198 -5 14 15 16 190 16 124 0 196 -4 196 -10z m-5374 -23 c17 -7 44
-22 60 -35 28 -23 28 -23 4 -17 -23 5 -23 5 -8 -8 10 -8 15 -17 11 -20 -3 -4
-1 -7 5 -7 5 0 12 6 15 13 2 6 5 -18 6 -55 2 -71 -5 -83 -27 -47 -7 12 -16 18
-19 15 -3 -3 0 -12 6 -20 7 -9 -18 5 -55 29 -37 25 -71 45 -74 45 -4 0 -2 27
3 60 11 65 16 68 73 47z m6142 -79 c14 -13 22 -17 18 -10 -9 14 12 16 34 2 13
-8 12 -11 -5 -24 -11 -9 -31 -15 -45 -16 -17 0 -21 3 -12 9 11 7 10 9 -3 14
-9 4 -13 3 -10 -3 3 -6 1 -10 -5 -10 -7 0 -5 -7 5 -16 8 -9 23 -13 32 -10 12
5 13 3 5 -6 -5 -7 -8 -30 -7 -50 2 -21 -1 -41 -7 -44 -6 -4 -8 -3 -5 3 3 5 0
10 -8 10 -10 0 -11 -5 -5 -17 11 -21 4 -64 -11 -69 -8 -2 -8 -5 0 -10 8 -5 5
-16 -11 -36 -20 -26 -21 -28 -3 -22 18 7 18 7 2 -11 -9 -10 -14 -22 -10 -26 4
-4 0 -4 -10 0 -12 4 -17 1 -17 -12 0 -14 -2 -16 -9 -6 -4 8 -11 13 -15 12 -4
-1 -10 0 -14 3 -4 2 -2 2 5 1 7 -2 15 1 18 6 4 6 -1 10 -10 10 -9 0 -13 5 -10
10 4 6 9 8 13 6 4 -2 7 7 7 20 0 29 -3 30 -21 7 -11 -14 -11 -10 1 17 7 19 19
34 26 32 10 -2 9 0 0 12 -7 9 -10 25 -6 38 32 114 59 188 69 188 6 0 4 5 -4
10 -8 5 -11 10 -6 10 6 0 21 -10 34 -22z m-7240 -104 c6 3 23 1 39 -5 22 -8
26 -8 16 2 -7 7 -13 18 -13 23 0 6 7 1 14 -10 19 -27 10 -65 -12 -57 -13 4
-12 1 3 -11 16 -14 17 -17 3 -12 -10 3 -20 1 -23 -5 -4 -5 -1 -8 6 -7 6 2 14
-3 17 -11 2 -8 0 -11 -5 -8 -6 4 -10 -5 -10 -20 0 -26 0 -26 18 8 17 32 19 33
25 12 3 -13 13 -23 21 -23 12 0 13 -3 4 -13 -14 -18 6 -45 36 -50 12 -2 25 -6
29 -10 4 -3 -6 -4 -22 -2 -25 4 -26 4 -10 -6 15 -9 16 -13 5 -20 -9 -6 -4 -8
16 -5 17 2 25 2 20 -1 -6 -2 -16 -12 -22 -23 -11 -16 -10 -18 7 -15 11 2 26 7
33 11 9 6 9 4 -1 -8 -14 -17 0 -34 18 -23 6 3 20 3 31 0 32 -11 6 -21 -43 -18
-104 7 -116 9 -130 21 -8 6 -19 8 -23 4 -5 -4 -5 -1 -1 6 4 6 2 12 -3 12 -6 0
-11 -5 -11 -11 0 -5 -5 -7 -11 -3 -18 10 19 27 39 18 9 -4 22 -8 27 -9 6 0 15
-4 22 -8 6 -4 15 -3 18 3 4 6 1 9 -7 8 -7 -2 -13 6 -13 17 0 14 -7 21 -25 22
l-25 2 25 -8 c14 -5 19 -9 12 -10 -7 -1 -10 -5 -7 -11 3 -5 1 -10 -4 -10 -6 0
-11 5 -11 10 0 6 -10 10 -22 10 -19 0 -20 2 -8 10 9 6 10 10 3 10 -6 0 -15 -4
-18 -10 -3 -5 -20 -7 -37 -3 -28 5 -31 4 -24 -13 4 -10 4 -15 0 -12 -4 4 -18
-1 -32 -12 -13 -11 -28 -17 -33 -14 -5 3 -6 -2 -3 -10 3 -9 10 -16 16 -16 5 0
6 5 2 12 -5 7 -3 8 5 3 9 -5 10 -10 2 -18 -7 -7 -15 -6 -25 2 -12 10 -14 9 -9
-8 3 -12 9 -21 13 -21 5 0 5 -14 0 -31 l-9 -31 21 18 c13 11 18 13 13 4 -11
-19 -7 -70 7 -87 6 -7 19 -13 29 -13 28 0 41 -33 23 -58 -13 -18 -18 -20 -46
-10 -24 9 -33 8 -36 0 -2 -7 -9 -10 -15 -6 -7 3 -4 -1 7 -10 10 -8 15 -20 11
-26 -3 -6 -3 -10 2 -9 20 3 22 -2 6 -19 -10 -10 -25 -17 -33 -14 -10 2 -8 -2
4 -12 19 -15 19 -16 -12 -16 -19 0 -35 7 -41 18 -6 9 -11 11 -11 5 0 -19 -18
-16 -24 5 -3 9 3 71 14 137 12 66 24 137 27 158 3 20 8 37 12 37 3 0 7 15 8
33 1 17 12 88 25 155 19 108 24 122 35 106 14 -19 43 -28 43 -14 0 5 -10 19
-22 30 -15 14 -18 20 -8 18 9 -2 14 3 12 12 -1 8 9 2 22 -14 13 -16 28 -26 34
-22z m3910 -230 c32 -7 49 -31 33 -47 -5 -5 -7 -16 -4 -23 3 -8 0 -14 -5 -14
-6 0 -9 -9 -7 -20 2 -11 0 -20 -6 -20 -5 0 -9 -7 -9 -15 0 -8 -8 -19 -19 -24
-16 -9 -23 -4 -44 27 -28 43 -44 102 -28 102 6 0 8 6 5 14 -3 8 2 16 13 19 28
7 38 7 71 1z m2515 -232 c9 -8 17 -24 17 -35 0 -36 32 -151 46 -168 21 -24 17
-44 -11 -57 -14 -6 -25 -18 -25 -27 0 -19 34 -20 50 -1 20 25 37 7 49 -51 26
-130 57 -184 106 -187 19 -2 124 -59 157 -86 35 -29 66 -99 54 -119 -4 -6 -17
-10 -29 -8 -12 2 -7 -1 11 -7 20 -6 31 -15 28 -23 -3 -7 -1 -15 5 -19 6 -4 7
-10 0 -17 -5 -7 -11 -16 -13 -22 -1 -5 -9 -9 -15 -9 -7 1 -10 -2 -7 -7 3 -5
12 -9 20 -9 13 0 19 13 14 35 -1 6 4 5 10 -1 9 -9 9 -17 0 -34 -9 -17 -9 -25
0 -34 8 -8 10 -7 5 5 -4 10 -2 19 3 22 4 3 17 -26 27 -66 10 -40 30 -108 45
-152 19 -56 25 -87 19 -103 -5 -13 -5 -22 1 -22 6 0 10 -3 10 -8 0 -4 -19 -6
-42 -4 -30 2 -39 0 -29 -6 8 -6 21 -8 30 -5 10 3 8 0 -3 -8 -11 -7 -36 -13
-55 -15 -20 -1 -38 -3 -41 -4 -16 -7 -129 4 -150 15 -28 15 -34 60 -19 133 7
34 6 51 -7 78 -14 29 -21 34 -53 34 -30 1 -33 2 -18 11 14 8 16 14 6 25 -6 8
-8 14 -3 14 5 0 3 4 -5 9 -11 7 -10 14 5 37 17 26 17 28 1 15 -12 -9 -17 -10
-17 -2 0 6 7 14 15 17 8 4 15 13 15 22 0 23 -23 86 -34 94 -22 15 -24 -5 -3
-39 11 -20 15 -33 8 -29 -7 5 -20 1 -32 -10 -24 -21 -25 -8 -1 20 16 20 16 20
-1 7 -14 -11 -21 -11 -29 -3 -7 7 -9 12 -5 12 3 0 -2 19 -12 43 -10 23 -21 59
-25 79 -5 26 -11 36 -21 32 -9 -4 -17 5 -23 28 -9 31 -4 57 5 31 7 -21 22 -15
18 7 -2 11 0 20 5 20 10 0 6 86 -8 147 -9 39 -8 43 12 49 31 9 46 24 40 38 -4
10 -14 10 -49 -2 -41 -13 -47 -13 -70 2 -14 9 -30 14 -34 11 -12 -7 -53 118
-45 138 3 9 -4 30 -16 47 -27 38 -28 68 -4 104 30 47 76 54 117 18z m-2400
-54 c3 -18 -1 -45 -8 -61 -10 -19 -10 -25 -2 -21 9 5 9 4 1 -5 -9 -10 -17 -10
-32 -2 -10 6 -22 8 -25 5 -8 -8 3 -58 13 -62 5 -2 6 -20 4 -40 l-5 -37 15 38
c8 21 17 41 20 44 3 4 6 -48 6 -115 0 -114 -7 -141 -27 -109 -4 6 -10 41 -14
77 l-5 65 -13 -47 c-7 -27 -17 -48 -22 -48 -5 0 -9 -11 -9 -25 0 -18 5 -25 19
-25 10 0 24 -6 30 -14 11 -13 23 -106 14 -106 -2 0 -14 11 -27 25 l-23 25 4
-142 c3 -103 8 -150 20 -175 9 -19 17 -53 18 -75 1 -22 8 -44 14 -48 9 -5 7
-10 -4 -20 -20 -17 -46 -66 -39 -73 3 -3 7 -25 9 -50 4 -43 3 -44 -26 -45 -29
-1 -30 1 -28 41 1 23 -5 96 -14 162 -8 66 -15 127 -15 135 0 8 -6 38 -13 66
l-13 52 -18 -39 c-13 -29 -16 -55 -11 -106 6 -84 -6 -118 -44 -126 -35 -7 -39
-3 -54 55 -11 39 -11 61 -1 115 7 38 15 85 17 107 3 21 9 44 15 50 15 19 21
106 7 106 -8 0 -7 3 2 9 10 6 10 10 1 16 -6 4 -20 -1 -31 -11 -17 -15 -19 -15
-19 -1 0 9 -9 18 -20 22 -25 8 -33 51 -26 134 6 63 26 111 47 111 6 0 8 4 5 9
-3 4 3 19 14 31 11 13 20 20 20 16 0 -3 11 1 24 9 13 9 28 15 32 14 19 -3 35
1 30 9 -2 4 11 12 30 18 38 12 43 8 17 -13 -16 -12 -14 -12 10 -2 15 7 26 17
25 23 -5 34 42 85 78 86 17 0 23 -7 27 -32z m2187 -203 c0 -202 -2 -224 -16
-218 -9 3 -19 1 -23 -5 -4 -7 -22 -15 -40 -18 l-33 -7 5 44 c3 24 10 78 15
120 5 42 12 81 16 88 13 21 20 56 20 112 1 54 24 109 46 109 6 0 10 -85 10
-225z m930 156 c0 -8 3 -11 7 -8 3 4 13 1 21 -6 11 -8 14 -9 9 0 -5 8 0 11 13
10 14 -1 20 -8 20 -24 0 -31 14 -36 35 -13 21 24 13 27 -9 4 -9 -8 -16 -11
-16 -5 0 6 9 15 20 21 11 6 20 8 20 5 0 -3 14 2 31 11 17 8 29 12 27 7 -3 -4
-12 -25 -22 -45 -9 -21 -25 -43 -36 -51 -11 -8 -17 -17 -13 -20 3 -4 -1 -7
-10 -7 -9 0 -17 -4 -17 -10 0 -5 -4 -10 -10 -10 -5 0 -10 9 -10 20 0 30 -25
35 -63 11 -46 -28 -49 -27 -41 15 l7 37 -22 -22 c-11 -11 -27 -22 -33 -23 -44
-5 -68 -2 -68 9 0 24 20 63 33 63 7 0 27 10 44 23 36 26 83 31 83 8z m-6116
-15 c11 3 63 7 115 9 91 5 123 -3 128 -30 1 -6 5 -24 9 -40 4 -17 3 -27 -1
-23 -5 5 -16 -6 -26 -22 -13 -21 -27 -30 -46 -30 -271 -5 -335 -5 -339 1 -6
10 17 123 28 136 6 7 14 10 19 7 5 -3 16 -1 25 4 11 6 25 5 42 -4 13 -7 34
-10 46 -8z m6659 -26 c10 -10 9 -11 -3 -5 -13 8 -13 6 -2 -7 11 -14 11 -20 0
-37 -7 -12 -16 -21 -21 -21 -4 0 -5 -4 -2 -10 3 -5 1 -10 -5 -10 -7 0 -8 -6 0
-19 7 -14 7 -22 -2 -27 -7 -4 -8 -3 -4 4 4 7 2 12 -4 12 -6 0 -8 5 -5 10 9 14
-28 13 -43 -2 -9 -9 -9 -15 1 -27 10 -14 10 -14 -4 -3 -11 8 -15 21 -11 35 5
19 3 19 -20 -7 -27 -32 -49 -29 -43 6 3 12 -1 28 -7 35 -8 10 -7 12 4 8 8 -3
21 2 29 12 13 17 13 17 -6 3 -19 -14 -19 -14 -6 2 7 10 17 15 22 12 5 -3 12 2
15 10 3 9 11 13 16 10 6 -4 6 -9 -2 -14 -9 -5 -9 -9 -1 -14 6 -4 15 3 20 18
16 41 57 55 84 26z m-1483 -1120 c-6 -4 -33 -2 -61 3 l-49 10 0 58 c0 33 4 59
10 59 6 0 10 6 10 14 0 8 6 16 14 19 22 9 14 104 -10 123 -11 9 -14 13 -7 10
13 -7 12 19 -2 31 -4 4 -5 2 -1 -4 4 -7 2 -13 -3 -13 -7 0 -11 41 -11 115 0
87 3 113 13 110 9 -4 11 14 9 77 -3 78 7 107 13 36 2 -18 3 -38 4 -45 1 -7 8
-10 16 -6 9 3 13 8 11 11 -3 3 4 20 15 38 13 22 18 41 14 55 -5 14 -2 25 6 30
12 7 14 -53 17 -358 1 -252 -1 -369 -8 -373z"/>
<path d="M9523 1108 c-2 -5 12 -8 31 -8 31 0 36 -4 42 -27 3 -16 16 -62 30
-103 13 -41 36 -120 50 -175 41 -151 72 -193 130 -175 18 5 22 9 11 9 -11 1
-31 11 -45 23 -17 13 -20 19 -9 15 10 -4 23 -7 28 -7 6 0 7 -4 4 -10 -3 -6 4
-10 17 -10 22 0 21 1 -7 20 -16 11 -24 20 -17 20 6 0 12 5 12 11 0 5 -4 7 -10
4 -6 -3 -7 1 -4 9 3 9 11 13 18 10 6 -4 3 1 -6 11 -16 17 -16 19 0 32 9 8 11
12 5 8 -15 -7 -18 31 -4 39 15 9 0 46 -18 46 -14 0 -14 2 -1 10 13 8 13 10 -1
10 -9 0 -19 6 -22 14 -4 10 0 14 14 11 18 -4 18 -3 2 19 -12 16 -20 20 -25 12
-7 -10 -12 -1 -9 17 0 4 -5 7 -13 7 -21 0 -31 21 -15 31 12 7 12 9 0 9 -9 0
-10 4 -4 13 20 25 22 45 5 43 -9 0 -16 5 -14 12 1 8 -2 11 -9 6 -7 -4 -18 1
-26 11 -7 11 -13 16 -13 12 0 -4 -12 0 -27 10 -27 18 -91 24 -100 11z"/>
</g>
</svg>
